SplineFontDB: 1.0
FontName: DejaVuSerifCondensed-BoldOblique
FullName: DejaVu Serif Condensed Bold Oblique
FamilyName: DejaVu Serif Condensed
Weight: Bold
Copyright: Copyright (c) 2003 by Bitstream, Inc. All Rights Reserved.\nDejaVu changes are in public domain\n
Version: 2.2
ItalicAngle: -11
UnderlinePosition: -217
UnderlineWidth: 240
Ascent: 1556
Descent: 492
Order2: 1
NeedsXUIDChange: 1
FSType: 0
PfmFamily: 17
TTFWeight: 700
TTFWidth: 5
LineGap: 0
VLineGap: 0
Panose: 2 6 8 6 5 3 5 11 2 4
OS2TypoAscent: 1556
OS2TypoAOffset: 0
OS2TypoDescent: -492
OS2TypoDOffset: 0
OS2TypoLinegap: 410
OS2WinAscent: 1923
OS2WinAOffset: 0
OS2WinDescent: 483
OS2WinDOffset: 0
HheadAscent: 1923
HheadAOffset: 0
HheadDescent: -483
HheadDOffset: 0
OS2Vendor: 'PfEd'
ScriptLang: 2
 1 latn 1 dflt 
 1 DFLT 1 dflt 
TtfTable: prep 1407
\,q1GjNmf-c:\8arWC@O"3D#Ta>*k<]*$'b"3(*=`0LMBrWC"9"2MZA"i,Ng^IJC?0E]":"2#!D
]D_oDrWB_1"1SjD[L*,E'a(fi"1&=:ZTnZ!Yo3eN)?[4I)?m>d"0WUFY+H.,Xu?HbT+(t++Tnf)
"02e3Wi6R6W\O[U&Hf"_"K3pTVj\Y1Vu?dqV%Ns/*<W,N"/M\B"f/a4UN@L[UFQG@F<(OZ]*"b"
)?li6"/$P7T+(moS\#&srWA^]>m6e2".arFS=:f.S6Z5e5QmRF*X/#Z".GVi"e$J7R^iC55lUtT
&HeC/".2=VQQ60o$NlZ["-a5sP8OIcO^nWYrWA:)*<hR9"-AQO"csE#Nsc&N5Qm+,%0_b+"-!`l
N/J#HN%tKn$3Q/+",Vh^"c<3\LiaX@Lj]A[$Nl)(",(b:"b\W5K7Xa?KDkt)E=W5)'*Ec7%0_:]
"+La^Im=-cF<(O6rW@Rr*sI)l"+20mH[<:-Hi=+nH!LT"]*!A0"F55<"aOAUGsDLW,m/?M"*Sc,
"a4Y`F`\W-Fnu2^*<UB^"*/Al"`jSEE=W.kJ-9h0/d64n")fdoDZ0`TrW?sJ")CO3C'k&VrW?d?
"(sk%Ag%7fI04$Z"$hiUCBJ%X"(?T[@/^77('@hM%g?8<"'Z?>=]c[J=Y0_X*<T@u"',d3<)X\=
<0dVb)?WkU"&Vl1"]6QJ:_"$?:_j./%M/e>(B[E,*!K)c"&2>r"\fs=9gAhT%ibaH0`t&Y&-Y]^
"%l,o"\O1F8IYbm7g]DjI02tH"%G]g"\(6L777Of71B>f\Gs?0rrb^u"%,Bl"[eRX65Tej5Rmr`
I02_m#mER("$hA>5<UG!5J%"]4XgOu>m!5#*!JJS"$AX^"[!D"4$!uX3uA&\3=5pN&d(-$"#r4M
"ZUo42`:sG2\-!LJ-7b:"#`CI2)H-R23n>$.gZA9(]uQ#*<e6b"#;;7"Z$&Z0b+:>$k!4m*Wn&@
.0V@`""k`("YLhu/M%J;/X?Ji.gZA1&HaRL"=jc\.OGE).NJU?%0J%E"=PW0"XoZ=-RK*&-P6G.
5QiD>"!o3A"XUb_,SM=),Uig?'-RN(rW=>f$3_W>"!Jcm"X+3T+b0\<#Ql27"<S:#"Wo2r5dVRE

StartChar: .notdef
Encoding: 0 -1 0
AltUni: 0
Width: 1167
Flags: W
Fore
153.2 -362 m 1,0,-1
 153.2 1444 l 1,1,-1
 1074.8 1444 l 1,2,-1
 1074.8 -362 l 1,3,-1
 153.2 -362 l 1,0,-1
256.7 -248 m 1,4,-1
 972.2 -248 l 1,5,-1
 972.2 1329 l 1,6,-1
 256.7 1329 l 1,7,-1
 256.7 -248 l 1,4,-1
EndSplineSet
EndChar
StartChar: exclam
Encoding: 33 33 33
Width: 855
Flags: W
Fore
180.792 162 m 0,0,1
 194.438 240 194.438 240 254.185 296 c 128,-1,2
 313.933 352 313.933 352 384.132 352 c 0,3,4
 454.332 352 454.332 352 494.935 296 c 128,-1,5
 535.538 240 535.538 240 521.893 162 c 0,6,7
 508.073 83 508.073 83 447.876 27 c 128,-1,8
 387.678 -29 387.678 -29 317.479 -29 c 0,9,10
 247.278 -29 247.278 -29 207.126 27 c 128,-1,11
 166.973 83 166.973 83 180.792 162 c 0,0,1
415.441 1493 m 1,12,-1
 752.941 1493 l 1,13,-1
 498.539 651 l 1,14,-1
 465.301 461 l 1,15,-1
 340.2 461 l 1,16,-1
 373.439 651 l 1,17,-1
 415.441 1493 l 1,12,-1
EndSplineSet
EndChar
StartChar: quotedbl
Encoding: 34 34 34
Width: 1013
Flags: W
Fore
442.15 1493 m 1,0,-1
 442.15 938 l 1,1,-1
 228.85 938 l 1,2,-1
 228.85 1493 l 1,3,-1
 442.15 1493 l 1,0,-1
838.15 1493 m 1,4,-1
 838.15 938 l 1,5,-1
 624.85 938 l 1,6,-1
 624.85 1493 l 1,7,-1
 838.15 1493 l 1,4,-1
EndSplineSet
EndChar
StartChar: numbersign
Encoding: 35 35 35
Width: 1630
Flags: W
Fore
1007.4 872 m 1,0,-1
 769.8 872 l 1,1,-1
 706.8 598 l 1,2,-1
 944.4 598 l 1,3,-1
 1007.4 872 l 1,0,-1
905.7 1470 m 1,4,-1
 819.3 1085 l 1,5,-1
 1056.9 1085 l 1,6,-1
 1144.2 1470 l 1,7,-1
 1343.1 1470 l 1,8,-1
 1255.8 1085 l 1,9,-1
 1505.1 1085 l 1,10,-1
 1505.1 872 l 1,11,-1
 1208.1 872 l 1,12,-1
 1146 598 l 1,13,-1
 1401.6 598 l 1,14,-1
 1401.6 383 l 1,15,-1
 1099.2 383 l 1,16,-1
 1012.8 0 l 1,17,-1
 813.9 0 l 1,18,-1
 900.3 383 l 1,19,-1
 662.7 383 l 1,20,-1
 576.3 0 l 1,21,-1
 375.6 0 l 1,22,-1
 462 383 l 1,23,-1
 210.9 383 l 1,24,-1
 210.9 598 l 1,25,-1
 506.1 598 l 1,26,-1
 569.1 872 l 1,27,-1
 314.4 872 l 1,28,-1
 314.4 1085 l 1,29,-1
 618.6 1085 l 1,30,-1
 705 1470 l 1,31,-1
 905.7 1470 l 1,4,-1
EndSplineSet
EndChar
StartChar: dollar
Encoding: 36 36 36
Width: 1351
Flags: W
Fore
144.468 59 m 1,0,-1
 195.376 350 l 1,1,-1
 303.376 350 l 1,2,3
 295.233 216 295.233 216 354.337 150 c 128,-1,4
 413.441 84 413.441 84 543.041 84 c 2,5,-1
 555.642 84 l 1,6,-1
 626.494 489 l 1,7,8
 412.015 544 412.015 544 331.434 639 c 128,-1,9
 250.854 734 250.854 734 279.369 897 c 0,10,11
 310.859 1077 310.859 1077 439.216 1180.5 c 128,-1,12
 567.572 1284 567.572 1284 766.622 1290 c 1,13,-1
 813.681 1559 l 1,14,-1
 922.581 1559 l 1,15,-1
 875.521 1290 l 1,16,17
 975.268 1284 975.268 1284 1063.76 1262.5 c 128,-1,18
 1152.25 1241 1152.25 1241 1232.73 1202 c 1,19,-1
 1185.14 930 l 1,20,-1
 1076.24 930 l 1,21,22
 1082.13 1046 1082.13 1046 1024.57 1110.5 c 128,-1,23
 967.004 1175 967.004 1175 855.753 1177 c 1,24,-1
 790.675 805 l 1,25,26
 1022.46 746 1022.46 746 1103.15 646.5 c 128,-1,27
 1183.84 547 1183.84 547 1152.35 367 c 0,28,29
 1119.99 182 1119.99 182 988.201 79.5 c 128,-1,30
 856.422 -23 856.422 -23 644.772 -29 c 1,31,-1
 597.539 -299 l 1,32,-1
 488.639 -299 l 1,33,-1
 535.873 -29 l 1,34,35
 437.223 -27 437.223 -27 339.371 -5 c 128,-1,36
 241.521 17 241.521 17 144.468 59 c 1,0,-1
747.029 1178 m 1,37,38
 668.604 1167 668.604 1167 616.706 1125 c 128,-1,39
 564.81 1083 564.81 1083 554.138 1022 c 0,40,41
 541.892 952 541.892 952 572.619 909 c 128,-1,42
 603.347 866 603.347 866 687.548 838 c 1,43,-1
 747.029 1178 l 1,37,38
664.541 84 m 1,44,45
 757.366 95 757.366 95 811.775 138.5 c 128,-1,46
 866.187 182 866.187 182 879.132 256 c 0,47,48
 892.077 330 892.077 330 856.825 378 c 128,-1,49
 821.572 426 821.572 426 729.795 457 c 1,50,-1
 664.541 84 l 1,44,45
EndSplineSet
EndChar
StartChar: percent
Encoding: 37 37 37
Width: 1848
Flags: W
Fore
612.89 1419 m 0,0,1
 555.29 1419 555.29 1419 517.931 1349.5 c 128,-1,2
 480.572 1280 480.572 1280 451.532 1114 c 0,3,4
 422.317 947 422.317 947 435.271 877 c 128,-1,5
 448.225 807 448.225 807 505.825 807 c 0,6,7
 564.325 807 564.325 807 601.771 877 c 128,-1,8
 639.218 947 639.218 947 668.433 1114 c 0,9,10
 697.473 1280 697.473 1280 684.431 1349.5 c 128,-1,11
 671.39 1419 671.39 1419 612.89 1419 c 0,0,1
630.56 1520 m 0,12,13
 802.459 1520 802.459 1520 875.527 1415.5 c 128,-1,14
 948.596 1311 948.596 1311 914.133 1114 c 0,15,16
 879.669 917 879.669 917 769.95 812 c 128,-1,17
 660.231 707 660.231 707 488.332 707 c 0,18,19
 317.332 707 317.332 707 244.351 812 c 128,-1,20
 171.368 917 171.368 917 205.832 1114 c 0,21,22
 240.296 1311 240.296 1311 349.927 1415.5 c 128,-1,23
 459.56 1520 459.56 1520 630.56 1520 c 0,12,13
1451.36 1520 m 1,24,-1
 1606.16 1520 l 1,25,-1
 494.573 -29 l 1,26,-1
 339.773 -29 l 1,27,-1
 1451.36 1520 l 1,24,-1
1456.7 784 m 0,28,29
 1628.6 784 1628.6 784 1701.22 679.5 c 128,-1,30
 1773.84 575 1773.84 575 1739.55 379 c 0,31,32
 1705.09 182 1705.09 182 1595.73 76.5 c 128,-1,33
 1486.37 -29 1486.37 -29 1314.47 -29 c 0,34,35
 1143.47 -29 1143.47 -29 1070.58 76.5 c 128,-1,36
 997.689 182 997.689 182 1032.15 379 c 0,37,38
 1066.44 575 1066.44 575 1176.07 679.5 c 128,-1,39
 1285.7 784 1285.7 784 1456.7 784 c 0,28,29
1439.21 684 m 0,40,41
 1380.71 684 1380.71 684 1343.35 614.5 c 128,-1,42
 1305.99 545 1305.99 545 1276.95 379 c 0,43,44
 1247.74 212 1247.74 212 1261.14 142 c 128,-1,45
 1274.54 72 1274.54 72 1332.14 72 c 0,46,47
 1390.64 72 1390.64 72 1428.09 142 c 128,-1,48
 1465.54 212 1465.54 212 1494.75 379 c 0,49,50
 1523.79 545 1523.79 545 1510.75 614.5 c 128,-1,51
 1497.71 684 1497.71 684 1439.21 684 c 0,40,41
EndSplineSet
EndChar
StartChar: ampersand
Encoding: 38 38 38
Width: 1756
Flags: W
Fore
1592.46 0 m 1,0,-1
 1161.36 0 l 1,1,-1
 1069.98 131 l 1,2,3
 965.981 51 965.981 51 850.089 11 c 0,4,5
 734.187 -29 734.187 -29 605.486 -29 c 0,6,7
 335.486 -29 335.486 -29 205.328 99 c 0,8,9
 105.294 197.38 105.294 197.38 105.294 352.47 c 0,10,11
 105.294 399.17 105.294 399.17 114.356 451 c 0,12,13
 142.878 614 142.878 614 240.933 729.5 c 0,14,15
 338.987 845 338.987 845 520.014 928 c 1,16,17
 485.831 995 485.831 995 473.556 1056 c 0,18,19
 466.778 1089.66 466.778 1089.66 466.778 1122.11 c 0,20,21
 466.778 1148.45 466.778 1148.45 471.242 1174 c 0,22,23
 499.935 1338 499.935 1338 639.605 1429 c 0,24,25
 779.276 1520 779.276 1520 1003.38 1520 c 0,26,27
 1069.98 1520 1069.98 1520 1156.52 1508 c 0,28,29
 1243.07 1496 1243.07 1496 1350.65 1473 c 1,30,-1
 1296.07 1161 l 1,31,-1
 1179.97 1161 l 1,32,33
 1180.6 1175.29 1180.6 1175.29 1180.6 1188.68 c 0,34,35
 1180.6 1291.57 1180.6 1291.57 1143.24 1342 c 0,36,37
 1101.01 1399 1101.01 1399 1004.71 1399 c 0,38,39
 913.809 1399 913.809 1399 853.212 1351 c 128,-1,40
 792.614 1303 792.614 1303 778.269 1221 c 0,41,42
 776.379 1210.22 776.379 1210.22 776.379 1198.35 c 0,43,44
 776.379 1105.68 776.379 1105.68 891.435 947 c 0,45,46
 905.934 927 905.934 927 913.358 918 c 1,47,-1
 1243.04 436 l 1,48,49
 1308.94 504 1308.94 504 1355.11 593 c 0,50,51
 1401.28 682 1401.28 682 1429.14 795 c 1,52,-1
 1450.14 915 l 1,53,-1
 1736.34 915 l 1,54,-1
 1715.34 795 l 1,55,-1
 1556.94 795 l 1,56,57
 1516.1 649 1516.1 649 1455.38 536 c 0,58,59
 1394.66 423 1394.66 423 1312.84 336 c 1,60,-1
 1460.63 121 l 1,61,-1
 1613.63 121 l 1,62,-1
 1592.46 0 l 1,0,-1
1002.52 229 m 1,63,-1
 596.892 817 l 1,64,65
 535.674 750 535.674 750 497.262 674.5 c 0,66,67
 458.85 599 458.85 599 444.333 516 c 0,68,69
 436.115 469.02 436.115 469.02 436.115 426.67 c 0,70,71
 436.115 316.7 436.115 316.7 491.547 238 c 0,72,73
 568.325 129 568.325 129 715.926 129 c 0,74,75
 786.125 129 786.125 129 856.568 153.5 c 0,76,77
 927.003 178 927.003 178 1002.52 229 c 1,63,-1
EndSplineSet
EndChar
StartChar: quotesingle
Encoding: 39 39 39
Width: 595
Flags: W
Fore
420.15 1493 m 1,0,-1
 420.15 938 l 1,1,-1
 206.85 938 l 1,2,-1
 206.85 1493 l 1,3,-1
 420.15 1493 l 1,0,-1
EndSplineSet
EndChar
StartChar: parenleft
Encoding: 40 40 40
Width: 932
Flags: W
Fore
672.445 -319 m 1,0,1
 391.013 -194 391.013 -194 282.374 39 c 128,-1,2
 173.735 272 173.735 272 234.266 618 c 0,3,4
 294.796 964 294.796 964 482.633 1194 c 128,-1,5
 670.469 1424 670.469 1424 1000.46 1556 c 1,6,-1
 979.473 1436 l 1,7,8
 820.474 1340 820.474 1340 724.947 1151.5 c 128,-1,9
 629.421 963 629.421 963 569.065 618 c 0,10,11
 508.886 274 508.886 274 538.46 85.5 c 128,-1,12
 568.033 -103 568.033 -103 693.438 -199 c 1,13,-1
 672.445 -319 l 1,0,1
EndSplineSet
EndChar
StartChar: parenright
Encoding: 41 41 41
Width: 908
Flags: W
Fore
-34.416 -319 m 1,0,-1
 -13.4229 -199 l 1,1,2
 145.572 -103 145.572 -103 241.099 85.5 c 128,-1,3
 336.625 274 336.625 274 396.805 618 c 0,4,5
 457.16 963 457.16 963 427.586 1151.5 c 128,-1,6
 398.013 1340 398.013 1340 272.608 1436 c 1,7,-1
 293.601 1556 l 1,8,9
 577.408 1424 577.408 1424 685.222 1194 c 128,-1,10
 793.035 964 793.035 964 732.505 618 c 0,11,12
 671.975 272 671.975 272 481.363 39 c 128,-1,13
 290.752 -194 290.752 -194 -34.416 -319 c 1,0,-1
EndSplineSet
EndChar
StartChar: asterisk
Encoding: 42 42 42
Width: 1017
Flags: W
Fore
976.95 1212 m 1,0,-1
 652.95 1044 l 1,1,-1
 976.95 874 l 1,2,-1
 888.75 719 l 1,3,-1
 593.55 958 l 1,4,-1
 617.85 569 l 1,5,-1
 453.15 569 l 1,6,-1
 477.45 958 l 1,7,-1
 182.25 719 l 1,8,-1
 94.0498 874 l 1,9,-1
 418.95 1044 l 1,10,-1
 94.0498 1212 l 1,11,-1
 182.25 1370 l 1,12,-1
 477.45 1128 l 1,13,-1
 453.15 1520 l 1,14,-1
 617.85 1520 l 1,15,-1
 593.55 1128 l 1,16,-1
 888.75 1370 l 1,17,-1
 976.95 1212 l 1,0,-1
EndSplineSet
EndChar
StartChar: plus
Encoding: 43 43 43
Width: 1630
Flags: W
Fore
961.5 1284 m 1,0,-1
 961.5 758 l 1,1,-1
 1434.9 758 l 1,2,-1
 1434.9 528 l 1,3,-1
 961.5 528 l 1,4,-1
 961.5 2 l 1,5,-1
 754.5 2 l 1,6,-1
 754.5 528 l 1,7,-1
 281.1 528 l 1,8,-1
 281.1 758 l 1,9,-1
 754.5 758 l 1,10,-1
 754.5 1284 l 1,11,-1
 961.5 1284 l 1,0,-1
EndSplineSet
EndChar
StartChar: comma
Encoding: 44 44 44
Width: 670
Flags: W
Fore
19.9189 -197 m 1,0,1
 128.214 -113 128.214 -113 190.509 -9 c 128,-1,2
 252.801 95 252.801 95 276.944 233 c 2,3,-1
 291.989 319 l 1,4,-1
 548.489 319 l 1,5,-1
 547.09 311 l 2,6,7
 508.428 90 508.428 90 397.273 -69.5 c 128,-1,8
 286.121 -229 286.121 -229 94.252 -338 c 1,9,-1
 19.9189 -197 l 1,0,1
EndSplineSet
EndChar
StartChar: hyphen
Encoding: 45 45 45
Width: 807
Flags: W
Fore
166.017 684 m 1,0,-1
 731.217 684 l 1,1,-1
 683.983 414 l 1,2,-1
 118.783 414 l 1,3,-1
 166.017 684 l 1,0,-1
EndSplineSet
KernsSLIFO: 356 -339 0 0 221 -225 0 0 376 -225 0 0 89 -225 0 0 88 -149 0 0 87 -112 0 0 86 -149 0 0 84 -339 0 0
EndChar
StartChar: period
Encoding: 46 46 46
Width: 677
Flags: W
Fore
185.144 162 m 0,0,1
 198.789 240 198.789 240 258.986 296 c 128,-1,2
 319.182 352 319.182 352 389.382 352 c 0,3,4
 460.481 352 460.481 352 501.086 296 c 128,-1,5
 541.688 240 541.688 240 528.044 162 c 0,6,7
 514.223 83 514.223 83 454.025 27 c 128,-1,8
 393.829 -29 393.829 -29 322.729 -29 c 0,9,10
 252.529 -29 252.529 -29 211.925 27 c 128,-1,11
 171.322 83 171.322 83 185.144 162 c 0,0,1
EndSplineSet
EndChar
StartChar: slash
Encoding: 47 47 47
Width: 710
Flags: W
Fore
658.014 1493 m 1,0,-1
 857.813 1493 l 1,1,-1
 89.0859 -190 l 1,2,-1
 -109.813 -190 l 1,3,-1
 658.014 1493 l 1,0,-1
EndSplineSet
EndChar
StartChar: zero
Encoding: 48 48 48
Width: 1353
Flags: W
Fore
597.916 88 m 0,0,1
 705.916 88 705.916 88 765.036 197 c 128,-1,2
 824.154 306 824.154 306 900.953 745 c 0,3,4
 977.226 1181 977.226 1181 956.597 1292 c 128,-1,5
 935.966 1403 935.966 1403 827.966 1403 c 0,6,7
 719.966 1403 719.966 1403 660.847 1294 c 128,-1,8
 601.728 1185 601.728 1185 524.753 745 c 0,9,10
 447.954 306 447.954 306 468.936 197 c 128,-1,11
 489.916 88 489.916 88 597.916 88 c 0,0,1
577.448 -29 m 0,12,13
 308.348 -29 308.348 -29 200.148 170.5 c 128,-1,14
 91.9502 370 91.9502 370 157.553 745 c 0,15,16
 223.157 1120 223.157 1120 401.246 1320 c 128,-1,17
 579.334 1520 579.334 1520 848.435 1520 c 0,18,19
 1116.64 1520 1116.64 1520 1224.74 1320 c 128,-1,20
 1332.86 1120 1332.86 1120 1267.25 745 c 0,21,22
 1201.65 370 1201.65 370 1023.65 170.5 c 128,-1,23
 845.647 -29 845.647 -29 577.448 -29 c 0,12,13
EndSplineSet
EndChar
StartChar: one
Encoding: 49 49 49
Width: 1344
Flags: W
Fore
181.447 0 m 1,0,-1
 202.615 121 l 1,1,-1
 454.615 121 l 1,2,-1
 665.945 1329 l 1,3,-1
 353.855 1145 l 1,4,-1
 379.922 1294 l 1,5,-1
 756.959 1520 l 1,6,-1
 1040.46 1520 l 1,7,-1
 795.715 121 l 1,8,-1
 1048.61 121 l 1,9,-1
 1027.45 0 l 1,10,-1
 181.447 0 l 1,0,-1
EndSplineSet
EndChar
StartChar: two
Encoding: 50 50 50
Width: 1347
Flags: W
Fore
371.555 1124 m 1,0,-1
 263.555 1124 l 1,1,-1
 319.886 1446 l 1,2,3
 436.158 1483 436.158 1483 546.944 1501.5 c 128,-1,4
 657.731 1520 657.731 1520 767.531 1520 c 0,5,6
 1024.03 1520 1024.03 1520 1147.2 1403.5 c 128,-1,7
 1270.37 1287 1270.37 1287 1233.98 1079 c 0,8,9
 1208.09 931 1208.09 931 1108.33 813.5 c 128,-1,10
 1008.58 696 1008.58 696 757.214 535 c 1,11,-1
 335.053 262 l 1,12,-1
 971.355 262 l 1,13,-1
 1002.14 438 l 1,14,-1
 1125.44 438 l 1,15,-1
 1048.82 0 l 1,16,-1
 55.2188 0 l 1,17,-1
 97.9053 244 l 1,18,-1
 323.571 397 l 2,19,20
 612.385 592 612.385 592 720.952 729 c 128,-1,21
 829.519 866 829.519 866 861.533 1049 c 0,22,23
 891.799 1222 891.799 1222 843.281 1312.5 c 128,-1,24
 794.763 1403 794.763 1403 671.463 1403 c 0,25,26
 565.263 1403 565.263 1403 488.854 1331.5 c 128,-1,27
 412.446 1260 412.446 1260 371.555 1124 c 1,0,-1
EndSplineSet
EndChar
StartChar: three
Encoding: 51 51 51
Width: 1348
Flags: W
Fore
347.979 1450 m 1,0,1
 472.902 1485 472.902 1485 587.564 1502.5 c 128,-1,2
 702.227 1520 702.227 1520 808.426 1520 c 0,3,4
 1051.43 1520 1051.43 1520 1164.59 1423.5 c 128,-1,5
 1277.76 1327 1277.76 1327 1246.27 1147 c 0,6,7
 1222.65 1012 1222.65 1012 1133.26 928 c 128,-1,8
 1043.87 844 1043.87 844 894.792 815 c 1,9,10
 1064.87 784 1064.87 784 1133.43 682 c 128,-1,11
 1201.98 580 1201.98 580 1171.01 403 c 0,12,13
 1134.45 194 1134.45 194 965.996 82.5 c 128,-1,14
 797.54 -29 797.54 -29 514.939 -29 c 0,15,16
 408.74 -29 408.74 -29 299.289 -9 c 128,-1,17
 189.838 11 189.838 11 73.5361 51 c 1,18,-1
 130.917 379 l 1,19,-1
 239.817 379 l 1,20,21
 224.874 237 224.874 237 282.042 162.5 c 128,-1,22
 339.209 88 339.209 88 463.408 88 c 0,23,24
 600.209 88 600.209 88 689.691 172.5 c 128,-1,25
 779.174 257 779.174 257 806.29 412 c 0,26,27
 834.631 574 834.631 574 772.176 662 c 128,-1,28
 709.721 750 709.721 750 566.62 750 c 2,29,-1
 507.221 750 l 1,30,-1
 528.213 870 l 1,31,-1
 575.013 870 l 2,32,33
 707.313 870 707.313 870 785.81 938 c 128,-1,34
 864.306 1006 864.306 1006 887.922 1141 c 0,35,36
 910.14 1268 910.14 1268 859.399 1335.5 c 128,-1,37
 808.657 1403 808.657 1403 691.657 1403 c 0,38,39
 585.457 1403 585.457 1403 512.074 1338.5 c 128,-1,40
 438.69 1274 438.69 1274 404.572 1151 c 1,41,-1
 295.672 1151 l 1,42,-1
 347.979 1450 l 1,0,1
EndSplineSet
EndChar
StartChar: four
Encoding: 52 52 52
Width: 1347
Flags: W
Fore
1108.71 0 m 1,0,-1
 368.914 0 l 1,1,-1
 390.082 121 l 1,2,-1
 589.882 121 l 1,3,-1
 637.466 393 l 1,4,-1
 76.7656 393 l 1,5,-1
 96.8848 508 l 1,6,-1
 836.426 1520 l 1,7,-1
 1174.83 1520 l 1,8,-1
 1000.24 522 l 1,9,-1
 1230.64 522 l 1,10,-1
 1208.06 393 l 1,11,-1
 977.664 393 l 1,12,-1
 930.082 121 l 1,13,-1
 1129.88 121 l 1,14,-1
 1108.71 0 l 1,0,-1
660.033 522 m 1,15,-1
 786.867 1247 l 1,16,-1
 259.533 522 l 1,17,-1
 660.033 522 l 1,15,-1
EndSplineSet
EndChar
StartChar: five
Encoding: 53 53 53
Width: 1349
Flags: W
Fore
1239.58 1493 m 1,0,-1
 1193.75 1231 l 1,1,-1
 474.644 1231 l 1,2,-1
 417.262 903 l 1,3,4
 485.584 954 485.584 954 563.032 980 c 128,-1,5
 640.48 1006 640.48 1006 721.48 1006 c 0,6,7
 969.881 1006 969.881 1006 1089.47 866.5 c 128,-1,8
 1209.07 727 1209.07 727 1167.09 487 c 0,9,10
 1124.4 243 1124.4 243 956.608 107 c 128,-1,11
 788.815 -29 788.815 -29 529.615 -29 c 0,12,13
 419.815 -29 419.815 -29 314.864 -9 c 128,-1,14
 209.914 11 209.914 11 99.3604 53 c 1,15,-1
 156.393 379 l 1,16,-1
 264.393 379 l 1,17,18
 244.076 232 244.076 232 294.93 160 c 128,-1,19
 345.784 88 345.784 88 469.984 88 c 0,20,21
 602.284 88 602.284 88 683.416 186.5 c 128,-1,22
 764.548 285 764.548 285 799.886 487 c 0,23,24
 834.7 686 834.7 686 789.381 784.5 c 128,-1,25
 744.063 883 744.063 883 617.164 883 c 0,26,27
 548.764 883 548.764 883 489.703 851.5 c 128,-1,28
 430.642 820 430.642 820 373.195 754 c 1,29,-1
 283.195 754 l 1,30,-1
 412.479 1493 l 1,31,-1
 1239.58 1493 l 1,0,-1
EndSplineSet
EndChar
StartChar: six
Encoding: 54 54 54
Width: 1356
Flags: W
Fore
551.521 885 m 1,0,1
 619.118 937 619.118 937 696.115 963 c 128,-1,2
 773.115 989 773.115 989 858.615 989 c 0,3,4
 1064.71 989 1064.71 989 1158.72 855 c 128,-1,5
 1252.73 721 1252.73 721 1211.79 487 c 0,6,7
 1168.58 240 1168.58 240 1012.76 105.5 c 128,-1,8
 856.923 -29 856.923 -29 613.023 -29 c 0,9,10
 337.623 -29 337.623 -29 228.149 155.5 c 128,-1,11
 118.677 340 118.677 340 181.307 698 c 0,12,13
 252.508 1105 252.508 1105 446.309 1312.5 c 128,-1,14
 640.109 1520 640.109 1520 949.709 1520 c 0,15,16
 1030.71 1520 1030.71 1520 1120.78 1505 c 128,-1,17
 1210.86 1490 1210.86 1490 1311.81 1460 c 1,18,-1
 1265.63 1196 l 1,19,-1
 1156.73 1196 l 1,20,21
 1152.08 1298 1152.08 1298 1098.71 1350.5 c 128,-1,22
 1045.34 1403 1045.34 1403 946.341 1403 c 0,23,24
 786.141 1403 786.141 1403 693.248 1281 c 128,-1,25
 600.354 1159 600.354 1159 551.521 885 c 1,0,1
612.792 88 m 0,26,27
 705.492 88 705.492 88 760.398 175.5 c 128,-1,28
 815.307 263 815.307 263 853.094 479 c 0,29,30
 890.882 695 890.882 695 866.589 782.5 c 128,-1,31
 842.296 870 842.296 870 749.596 870 c 0,32,33
 656.896 870 656.896 870 602.439 782.5 c 128,-1,34
 547.981 695 547.981 695 510.193 479 c 0,35,36
 472.407 263 472.407 263 496.249 175.5 c 128,-1,37
 520.092 88 520.092 88 612.792 88 c 0,26,27
EndSplineSet
EndChar
StartChar: seven
Encoding: 55 55 55
Width: 1363
Flags: W
Fore
1296.3 1239 m 1,0,-1
 525.153 0 l 1,1,-1
 342.453 0 l 1,2,-1
 1094.14 1210 l 1,3,-1
 430.833 1210 l 1,4,-1
 395.493 1008 l 1,5,-1
 272.193 1008 l 1,6,-1
 357.04 1493 l 1,7,-1
 1340.74 1493 l 1,8,-1
 1296.3 1239 l 1,0,-1
EndSplineSet
EndChar
StartChar: eight
Encoding: 56 56 56
Width: 1351
Flags: W
Fore
934.377 795 m 1,0,1
 1089.5 766 1089.5 766 1154.91 664 c 128,-1,2
 1220.31 562 1220.31 562 1191.45 397 c 0,3,4
 1155.42 191 1155.42 191 996.214 81 c 128,-1,5
 837.024 -29 837.024 -29 573.324 -29 c 0,6,7
 309.624 -29 309.624 -29 188.468 81 c 128,-1,8
 67.3115 191 67.3115 191 103.35 397 c 0,9,10
 132.215 562 132.215 562 233.76 664 c 128,-1,11
 335.303 766 335.303 766 499.677 795 c 1,12,13
 364.674 831 364.674 831 309.258 915.5 c 128,-1,14
 253.84 1000 253.84 1000 276.582 1130 c 0,15,16
 309.822 1320 309.822 1320 455.115 1420 c 128,-1,17
 600.41 1520 600.41 1520 844.311 1520 c 0,18,19
 1087.31 1520 1087.31 1520 1198.07 1420 c 128,-1,20
 1308.82 1320 1308.82 1320 1275.58 1130 c 0,21,22
 1252.84 1000 1252.84 1000 1167.4 915.5 c 128,-1,23
 1081.98 831 1081.98 831 934.377 795 c 1,0,1
926.583 1126 m 0,24,25
 954.224 1284 954.224 1284 930.433 1343.5 c 128,-1,26
 906.642 1403 906.642 1403 823.842 1403 c 0,27,28
 740.142 1403 740.142 1403 695.982 1343.5 c 128,-1,29
 651.824 1284 651.824 1284 624.183 1126 c 0,30,31
 596.717 969 596.717 969 620.232 910.5 c 128,-1,32
 643.748 852 643.748 852 727.448 852 c 0,33,34
 811.148 852 811.148 852 855.132 910.5 c 128,-1,35
 899.117 969 899.117 969 926.583 1126 c 0,24,25
837.123 414 m 0,36,37
 869.139 597 869.139 597 839.359 666 c 128,-1,38
 809.58 735 809.58 735 706.98 735 c 0,39,40
 603.48 735 603.48 735 550.01 666 c 128,-1,41
 496.539 597 496.539 597 464.523 414 c 0,42,43
 432.16 229 432.16 229 461.676 158.5 c 128,-1,44
 491.192 88 491.192 88 593.793 88 c 0,45,46
 695.492 88 695.492 88 750.125 158.5 c 128,-1,47
 804.76 229 804.76 229 837.123 414 c 0,36,37
EndSplineSet
EndChar
StartChar: nine
Encoding: 57 57 57
Width: 1351
Flags: W
Fore
812.199 1403 m 0,0,1
 719.5 1403 719.5 1403 665.043 1315.5 c 128,-1,2
 610.584 1228 610.584 1228 572.798 1012 c 0,3,4
 535.01 796 535.01 796 558.853 708.5 c 128,-1,5
 582.695 621 582.695 621 675.396 621 c 0,6,7
 768.095 621 768.095 621 823.002 708.5 c 128,-1,8
 877.909 796 877.909 796 915.698 1012 c 0,9,10
 953.484 1228 953.484 1228 929.192 1315.5 c 128,-1,11
 904.899 1403 904.899 1403 812.199 1403 c 0,0,1
873.82 608 m 1,12,13
 805.149 555 805.149 555 728.062 528.5 c 128,-1,14
 650.977 502 650.977 502 566.376 502 c 0,15,16
 361.177 502 361.177 502 267.081 635.5 c 128,-1,17
 172.986 769 172.986 769 214.098 1004 c 0,18,19
 257.483 1252 257.483 1252 412.326 1386 c 128,-1,20
 567.168 1520 567.168 1520 811.068 1520 c 0,21,22
 1086.47 1520 1086.47 1520 1196.31 1335 c 128,-1,23
 1306.14 1150 1306.14 1150 1243.68 793 c 0,24,25
 1172.48 386 1172.48 386 978.687 178.5 c 128,-1,26
 784.882 -29 784.882 -29 475.282 -29 c 0,27,28
 394.282 -29 394.282 -29 304.206 -14 c 128,-1,29
 214.131 1 214.131 1 113.179 31 c 1,30,-1
 159.364 295 l 1,31,-1
 268.264 295 l 1,32,33
 272.919 193 272.919 193 326.285 140.5 c 128,-1,34
 379.65 88 379.65 88 479.551 88 c 0,35,36
 637.951 88 637.951 88 731.382 210.5 c 128,-1,37
 824.812 333 824.812 333 873.82 608 c 1,12,13
EndSplineSet
EndChar
StartChar: colon
Encoding: 58 58 58
Width: 718
Flags: W
Fore
263.889 813 m 0,0,1
 277.709 892 277.709 892 337.455 948 c 128,-1,2
 397.202 1004 397.202 1004 467.401 1004 c 0,3,4
 537.602 1004 537.602 1004 578.118 947.5 c 128,-1,5
 618.634 891 618.634 891 604.988 813 c 0,6,7
 591.343 735 591.343 735 531.771 680 c 128,-1,8
 472.199 625 472.199 625 401.1 625 c 0,9,10
 330 625 330 625 290.12 680 c 128,-1,11
 250.242 735 250.242 735 263.889 813 c 0,0,1
150.001 162 m 0,12,13
 163.646 240 163.646 240 223.393 296 c 128,-1,14
 283.14 352 283.14 352 353.339 352 c 0,15,16
 423.539 352 423.539 352 464.143 296 c 128,-1,17
 504.746 240 504.746 240 491.101 162 c 0,18,19
 477.28 83 477.28 83 417.084 27 c 128,-1,20
 356.887 -29 356.887 -29 286.688 -29 c 0,21,22
 216.487 -29 216.487 -29 176.334 27 c 128,-1,23
 136.18 83 136.18 83 150.001 162 c 0,12,13
EndSplineSet
EndChar
StartChar: semicolon
Encoding: 59 59 59
Width: 711
Flags: W
Fore
283.188 813 m 0,0,1
 297.008 892 297.008 892 356.755 948 c 128,-1,2
 416.501 1004 416.501 1004 486.7 1004 c 0,3,4
 556.9 1004 556.9 1004 597.417 947.5 c 128,-1,5
 637.933 891 637.933 891 624.287 813 c 0,6,7
 610.642 735 610.642 735 551.07 680 c 128,-1,8
 491.498 625 491.498 625 420.397 625 c 0,9,10
 349.298 625 349.298 625 309.421 680 c 128,-1,11
 269.541 735 269.541 735 283.188 813 c 0,0,1
-13.4297 -188 m 1,12,13
 95.5908 -105 95.5908 -105 157.797 -1.5 c 128,-1,14
 220.003 102 220.003 102 244.146 240 c 2,15,-1
 259.541 328 l 1,16,-1
 516.041 328 l 1,17,18
 476.679 103 476.679 103 364.638 -59 c 128,-1,19
 252.597 -221 252.597 -221 61.6289 -330 c 1,20,-1
 -13.4297 -188 l 1,12,13
EndSplineSet
EndChar
StartChar: less
Encoding: 60 60 60
Width: 1634
Flags: W
Fore
1434.9 979 m 1,0,-1
 553.8 641 l 1,1,-1
 1434.9 305 l 1,2,-1
 1434.9 66 l 1,3,-1
 281.1 530 l 1,4,-1
 281.1 756 l 1,5,-1
 1434.9 1219 l 1,6,-1
 1434.9 979 l 1,0,-1
EndSplineSet
EndChar
StartChar: equal
Encoding: 61 61 61
Width: 1630
Flags: W
Fore
281.1 528 m 1,0,-1
 1434.9 528 l 1,1,-1
 1434.9 301 l 1,2,-1
 281.1 301 l 1,3,-1
 281.1 528 l 1,0,-1
281.1 983 m 1,4,-1
 1434.9 983 l 1,5,-1
 1434.9 756 l 1,6,-1
 281.1 756 l 1,7,-1
 281.1 983 l 1,4,-1
EndSplineSet
EndChar
StartChar: greater
Encoding: 62 62 62
Width: 1625
Flags: W
Fore
281.1 979 m 1,0,-1
 281.1 1219 l 1,1,-1
 1434.9 756 l 1,2,-1
 1434.9 530 l 1,3,-1
 281.1 66 l 1,4,-1
 281.1 305 l 1,5,-1
 1162.2 641 l 1,6,-1
 281.1 979 l 1,0,-1
EndSplineSet
EndChar
StartChar: question
Encoding: 63 63 63
Width: 1149
Flags: W
Fore
275.559 162 m 0,0,1
 289.204 240 289.204 240 349.4 296 c 128,-1,2
 409.599 352 409.599 352 479.798 352 c 0,3,4
 550.898 352 550.898 352 591.501 296 c 128,-1,5
 632.104 240 632.104 240 618.459 162 c 0,6,7
 604.638 83 604.638 83 544.441 27 c 128,-1,8
 484.244 -29 484.244 -29 413.145 -29 c 0,9,10
 342.944 -29 342.944 -29 302.342 27 c 128,-1,11
 261.738 83 261.738 83 275.559 162 c 0,0,1
313.135 1452 m 1,12,13
 430.682 1486 430.682 1486 534.456 1503 c 128,-1,14
 638.23 1520 638.23 1520 732.73 1520 c 0,15,16
 959.53 1520 959.53 1520 1061.7 1409.5 c 128,-1,17
 1163.87 1299 1163.87 1299 1128 1094 c 0,18,19
 1092.67 892 1092.67 892 954.835 775.5 c 128,-1,20
 817.006 659 817.006 659 593.356 641 c 1,21,-1
 557.492 436 l 1,22,-1
 432.393 436 l 1,23,-1
 484.7 735 l 1,24,25
 618.223 778 618.223 778 692.817 870 c 128,-1,26
 767.412 962 767.412 962 794.354 1116 c 0,27,28
 819.546 1260 819.546 1260 777.504 1333.5 c 128,-1,29
 735.462 1407 735.462 1407 628.362 1407 c 0,30,31
 529.362 1407 529.362 1407 464.266 1341 c 128,-1,32
 399.17 1275 399.17 1275 368.327 1145 c 1,33,-1
 259.427 1145 l 1,34,-1
 313.135 1452 l 1,12,13
EndSplineSet
EndChar
StartChar: at
Encoding: 64 64 64
Width: 1946
Flags: W
Fore
1241.17 504 m 2,0,-1
 1254.48 580 l 2,1,2
 1277.04 709 1277.04 709 1234.97 787.5 c 128,-1,3
 1192.91 866 1192.91 866 1102.01 866 c 0,4,5
 1012.91 866 1012.91 866 943.149 778.5 c 128,-1,6
 873.392 691 873.392 691 847.5 543 c 0,7,8
 821.608 395 821.608 395 860.663 307 c 128,-1,9
 899.719 219 899.719 219 988.818 219 c 0,10,11
 1079.71 219 1079.71 219 1149.08 296.5 c 128,-1,12
 1218.43 374 1218.43 374 1241.17 504 c 2,0,-1
1195 240 m 1,13,14
 1142.79 168 1142.79 168 1071.8 130 c 128,-1,15
 1000.8 92 1000.8 92 919.802 92 c 0,16,17
 747.901 92 747.901 92 670.794 212 c 128,-1,18
 593.688 332 593.688 332 630.6 543 c 0,19,20
 667.514 754 667.514 754 786.52 873.5 c 128,-1,21
 905.524 993 905.524 993 1077.43 993 c 0,22,23
 1158.43 993 1158.43 993 1216.13 955 c 128,-1,24
 1273.83 917 1273.83 917 1301.01 846 c 1,25,-1
 1322.88 971 l 1,26,-1
 1519.98 971 l 1,27,-1
 1390.17 229 l 1,28,29
 1525.69 268 1525.69 268 1616.36 385 c 128,-1,30
 1707.02 502 1707.02 502 1737.82 678 c 0,31,32
 1762.83 821 1762.83 821 1733.8 938 c 128,-1,33
 1704.77 1055 1704.77 1055 1619.87 1151 c 0,34,35
 1550.71 1229 1550.71 1229 1446.46 1271 c 128,-1,36
 1342.21 1313 1342.21 1313 1216.21 1313 c 0,37,38
 1099.21 1313 1099.21 1313 991.382 1278 c 128,-1,39
 883.561 1243 883.561 1243 786.89 1174 c 0,40,41
 640.545 1068 640.545 1068 543.004 904 c 128,-1,42
 445.464 740 445.464 740 411 543 c 0,43,44
 383.884 388 383.884 388 403.479 250.5 c 128,-1,45
 423.075 113 423.075 113 485.507 12 c 0,46,47
 560.988 -107 560.988 -107 675.866 -168 c 128,-1,48
 790.745 -229 790.745 -229 937.445 -229 c 0,49,50
 1047.24 -229 1047.24 -229 1155.79 -195 c 128,-1,51
 1264.34 -161 1264.34 -161 1368.76 -94 c 1,52,-1
 1403.62 -188 l 1,53,54
 1273.72 -272 1273.72 -272 1141.72 -314 c 128,-1,55
 1009.73 -356 1009.73 -356 880.127 -356 c 0,56,57
 705.526 -356 705.526 -356 570.748 -293 c 128,-1,58
 435.97 -230 435.97 -230 343.713 -104 c 0,59,60
 252.005 20 252.005 20 221.558 185.5 c 128,-1,61
 191.111 351 191.111 351 224.7 543 c 0,62,63
 258.29 735 258.29 735 346.555 900 c 128,-1,64
 434.82 1065 434.82 1065 570.088 1190 c 0,65,66
 707.33 1316 707.33 1316 865.327 1378 c 128,-1,67
 1023.32 1440 1023.32 1440 1207.82 1440 c 0,68,69
 1368.02 1440 1368.02 1440 1490.94 1391.5 c 128,-1,70
 1613.86 1343 1613.86 1343 1700.21 1245 c 1,71,72
 1800.49 1134 1800.49 1134 1835.05 992 c 128,-1,73
 1869.61 850 1869.61 850 1839.17 676 c 0,74,75
 1790.89 400 1790.89 400 1621.74 246 c 128,-1,76
 1452.6 92 1452.6 92 1197 92 c 2,77,-1
 1169.1 92 l 1,78,-1
 1195 240 l 1,13,14
EndSplineSet
EndChar
StartChar: A
Encoding: 65 65 65
Width: 1496
Flags: W
Fore
-78.5273 0 m 1,0,-1
 -57.3604 121 l 1,1,-1
 52.4395 121 l 1,2,-1
 798.26 1493 l 1,3,-1
 1013.36 1493 l 1,4,-1
 1280.04 121 l 1,5,-1
 1407.84 121 l 1,6,-1
 1386.68 0 l 1,7,-1
 757.572 0 l 1,8,-1
 778.739 121 l 1,9,-1
 910.14 121 l 1,10,-1
 852.797 426 l 1,11,-1
 347.896 426 l 1,12,-1
 182.039 121 l 1,13,-1
 342.239 121 l 1,14,-1
 321.072 0 l 1,15,-1
 -78.5273 0 l 1,0,-1
413.165 547 m 1,16,-1
 829.864 547 l 1,17,-1
 722.757 1118 l 1,18,-1
 413.165 547 l 1,16,-1
EndSplineSet
KernsSLIFO: 357 -36 0 0 356 -112 0 0 253 -83 0 0 221 -102 0 0 64258 -36 0 0 64257 -36 0 0 376 -102 0 0 255 -83 0 0 8217 -243 0 0 8221 -243 0 0 121 -83 0 0 119 -83 0 0 118 -83 0 0 116 -36 0 0 102 -36 0 0 89 -102 0 0 87 -102 0 0 86 -149 0 0 84 -112 0 0
EndChar
StartChar: B
Encoding: 66 66 66
Width: 1635
Flags: W
Fore
33.8369 0 m 1,0,-1
 55.0039 121 l 1,1,-1
 226.904 121 l 1,2,-1
 445.757 1372 l 1,3,-1
 273.857 1372 l 1,4,-1
 295.024 1493 l 1,5,-1
 1091.52 1493 l 2,6,7
 1337.22 1493 1337.22 1493 1444.43 1401 c 128,-1,8
 1551.64 1309 1551.64 1309 1519.27 1124 c 0,9,10
 1496.01 991 1496.01 991 1397.3 913 c 128,-1,11
 1298.61 835 1298.61 835 1127.72 815 c 1,12,13
 1326.54 794 1326.54 794 1417.22 695 c 128,-1,14
 1507.91 596 1507.91 596 1479.21 432 c 0,15,16
 1440.37 210 1440.37 210 1271.25 105 c 128,-1,17
 1102.14 0 1102.14 0 780.837 0 c 2,18,-1
 33.8369 0 l 1,0,-1
704.437 870 m 1,19,-1
 822.336 870 l 2,20,21
 977.136 870 977.136 870 1062.77 932.5 c 128,-1,22
 1148.4 995 1148.4 995 1170.97 1124 c 0,23,24
 1193.72 1254 1193.72 1254 1131.59 1313 c 128,-1,25
 1069.45 1372 1069.45 1372 910.157 1372 c 2,26,-1
 792.257 1372 l 1,27,-1
 704.437 870 l 1,19,-1
573.404 121 m 1,28,-1
 702.104 121 l 2,29,30
 874.004 121 874.004 121 970.1 197 c 128,-1,31
 1066.19 273 1066.19 273 1094.01 432 c 0,32,33
 1122 592 1122 592 1052.12 671 c 128,-1,34
 982.243 750 982.243 750 812.144 750 c 2,35,-1
 683.443 750 l 1,36,-1
 573.404 121 l 1,28,-1
EndSplineSet
KernsSLIFO: 268 38 0 0 262 38 0 0 286 38 0 0 221 -36 0 0 210 38 0 0 212 38 0 0 211 38 0 0 376 -36 0 0 338 38 0 0 213 38 0 0 216 38 0 0 214 38 0 0 199 38 0 0 89 -36 0 0 79 38 0 0 71 38 0 0 67 38 0 0 45 38 0 0
EndChar
StartChar: C
Encoding: 67 67 67
Width: 1550
Flags: W
Fore
1401.36 426 m 1,0,1
 1307.84 195 1307.84 195 1150.55 83 c 128,-1,2
 993.254 -29 993.254 -29 761.056 -29 c 0,3,4
 420.856 -29 420.856 -29 259.781 179.5 c 128,-1,5
 98.707 388 98.707 388 161.161 745 c 0,6,7
 223.791 1103 223.791 1103 457.817 1311.5 c 128,-1,8
 691.843 1520 691.843 1520 1032.04 1520 c 0,9,10
 1151.74 1520 1151.74 1520 1275.75 1488 c 128,-1,11
 1399.75 1456 1399.75 1456 1533.27 1391 c 1,12,-1
 1469.07 1024 l 1,13,-1
 1354.77 1024 l 1,14,15
 1352.56 1212 1352.56 1212 1276.21 1305.5 c 128,-1,16
 1199.88 1399 1199.88 1399 1047.78 1399 c 0,17,18
 851.573 1399 851.573 1399 728.096 1238.5 c 128,-1,19
 604.618 1078 604.618 1078 546.361 745 c 0,20,21
 488.105 412 488.105 412 555.515 252 c 128,-1,22
 622.925 92 622.925 92 820.925 92 c 0,23,24
 955.025 92 955.025 92 1054.6 175 c 128,-1,25
 1154.17 258 1154.17 258 1222.26 426 c 1,26,-1
 1401.36 426 l 1,0,1
EndSplineSet
KernsSLIFO: 46 -36 0 0 44 -36 0 0
EndChar
StartChar: D
Encoding: 68 68 68
Width: 1681
Flags: W
Fore
578.435 121 m 1,0,-1
 703.534 121 l 2,1,2
 914.134 121 914.134 121 1038.02 271 c 128,-1,3
 1161.92 421 1161.92 421 1219.12 748 c 0,4,5
 1275.97 1073 1275.97 1073 1204.94 1222.5 c 128,-1,6
 1133.88 1372 1133.88 1372 922.387 1372 c 2,7,-1
 797.287 1372 l 1,8,-1
 578.435 121 l 1,0,-1
38.8662 0 m 1,9,-1
 60.0342 121 l 1,10,-1
 231.935 121 l 1,11,-1
 450.787 1372 l 1,12,-1
 278.887 1372 l 1,13,-1
 300.055 1493 l 1,14,-1
 989.45 1493 l 2,15,16
 1351.25 1493 1351.25 1493 1509.36 1301 c 128,-1,17
 1667.47 1109 1667.47 1109 1604.32 748 c 0,18,19
 1540.82 385 1540.82 385 1314.99 192.5 c 128,-1,20
 1089.17 0 1089.17 0 728.267 0 c 2,21,-1
 38.8662 0 l 1,9,-1
EndSplineSet
KernsSLIFO: 86 -36 0 0 46 -73 0 0 45 38 0 0 44 -73 0 0
EndChar
StartChar: E
Encoding: 69 69 69
Width: 1481
Flags: W
Fore
32.5059 0 m 1,0,-1
 53.6729 121 l 1,1,-1
 225.573 121 l 1,2,-1
 444.427 1372 l 1,3,-1
 272.526 1372 l 1,4,-1
 293.693 1493 l 1,5,-1
 1501.49 1493 l 1,6,-1
 1439.91 1141 l 1,7,-1
 1315.71 1141 l 1,8,-1
 1353.32 1356 l 1,9,-1
 788.127 1356 l 1,10,-1
 704.329 877 l 1,11,-1
 1056.23 877 l 1,12,-1
 1089.47 1067 l 1,13,-1
 1212.77 1067 l 1,14,-1
 1122.5 551 l 1,15,-1
 999.2 551 l 1,16,-1
 1032.44 741 l 1,17,-1
 680.538 741 l 1,18,-1
 574.872 137 l 1,19,-1
 1157.18 137 l 1,20,-1
 1194.79 352 l 1,21,-1
 1318.09 352 l 1,22,-1
 1256.51 0 l 1,23,-1
 32.5059 0 l 1,0,-1
EndSplineSet
KernsSLIFO: 45 38 0 0
EndChar
StartChar: F
Encoding: 70 70 70
Width: 1384
Flags: W
Fore
31.9561 0 m 1,0,-1
 53.123 121 l 1,1,-1
 225.023 121 l 1,2,-1
 443.876 1372 l 1,3,-1
 271.977 1372 l 1,4,-1
 293.144 1493 l 1,5,-1
 1491.04 1493 l 1,6,-1
 1429.46 1141 l 1,7,-1
 1306.16 1141 l 1,8,-1
 1343.77 1356 l 1,9,-1
 789.377 1356 l 1,10,-1
 705.579 877 l 1,11,-1
 1046.68 877 l 1,12,-1
 1079.92 1067 l 1,13,-1
 1203.22 1067 l 1,14,-1
 1112.95 551 l 1,15,-1
 989.649 551 l 1,16,-1
 1022.89 741 l 1,17,-1
 681.788 741 l 1,18,-1
 573.323 121 l 1,19,-1
 784.823 121 l 1,20,-1
 763.656 0 l 1,21,-1
 31.9561 0 l 1,0,-1
EndSplineSet
KernsSLIFO: 252 -36 0 0 229 -112 0 0 230 -112 0 0 59 -73 0 0 242 -112 0 0 45 -92 0 0 46 -206 0 0 367 -36 0 0 245 -112 0 0 235 -112 0 0 249 -36 0 0 44 -206 0 0 224 -112 0 0 195 -120 0 0 234 -112 0 0 341 -36 0 0 232 -112 0 0 196 -120 0 0 193 -120 0 0 251 -36 0 0 227 -112 0 0 194 -120 0 0 248 -112 0 0 244 -112 0 0 65 -120 0 0 97 -112 0 0 228 -112 0 0 246 -112 0 0 250 -36 0 0 225 -112 0 0 345 -36 0 0 226 -112 0 0 233 -112 0 0 283 -112 0 0 101 -112 0 0 339 -112 0 0 111 -112 0 0 114 -36 0 0 117 -36 0 0 192 -120 0 0 58 -73 0 0 243 -112 0 0
EndChar
StartChar: G
Encoding: 71 71 71
Width: 1660
Flags: W
Fore
1403.2 1024 m 1,0,1
 1397.34 1222 1397.34 1222 1318.33 1310.5 c 128,-1,2
 1239.31 1399 1239.31 1399 1067.41 1399 c 0,3,4
 858.61 1399 858.61 1399 733.408 1241.5 c 128,-1,5
 608.204 1084 608.204 1084 548.898 745 c 0,6,7
 490.118 409 490.118 409 555.99 250.5 c 128,-1,8
 621.862 92 621.862 92 819.862 92 c 0,9,10
 895.462 92 895.462 92 963.586 111 c 128,-1,11
 1031.71 130 1031.71 130 1091.46 168 c 1,12,-1
 1163.18 578 l 1,13,-1
 1001.18 578 l 1,14,-1
 1022.18 698 l 1,15,-1
 1506.38 698 l 1,16,-1
 1406.14 125 l 1,17,18
 1241.29 47 1241.29 47 1083.89 9 c 128,-1,19
 926.493 -29 926.493 -29 768.993 -29 c 0,20,21
 423.394 -29 423.394 -29 262.057 178 c 128,-1,22
 100.72 385 100.72 385 163.698 745 c 0,23,24
 226.853 1106 226.853 1106 460.616 1313 c 128,-1,25
 694.38 1520 694.38 1520 1039.98 1520 c 0,26,27
 1183.98 1520 1183.98 1520 1317.88 1488 c 128,-1,28
 1451.79 1456 1451.79 1456 1581.71 1391 c 1,29,-1
 1517.5 1024 l 1,30,-1
 1403.2 1024 l 1,0,1
EndSplineSet
KernsSLIFO: 46 -73 0 0 45 38 0 0 44 -73 0 0
EndChar
StartChar: H
Encoding: 72 72 72
Width: 1838
Flags: W
Fore
52.7559 0 m 1,0,-1
 73.9229 121 l 1,1,-1
 245.823 121 l 1,2,-1
 464.677 1372 l 1,3,-1
 292.776 1372 l 1,4,-1
 313.943 1493 l 1,5,-1
 1005.14 1493 l 1,6,-1
 983.977 1372 l 1,7,-1
 811.177 1372 l 1,8,-1
 723.355 870 l 1,9,-1
 1257.96 870 l 1,10,-1
 1345.77 1372 l 1,11,-1
 1173.87 1372 l 1,12,-1
 1195.04 1493 l 1,13,-1
 1886.24 1493 l 1,14,-1
 1865.07 1372 l 1,15,-1
 1692.27 1372 l 1,16,-1
 1473.43 121 l 1,17,-1
 1646.23 121 l 1,18,-1
 1625.06 0 l 1,19,-1
 933.856 0 l 1,20,-1
 955.023 121 l 1,21,-1
 1126.93 121 l 1,22,-1
 1233.99 733 l 1,23,-1
 699.388 733 l 1,24,-1
 592.323 121 l 1,25,-1
 765.123 121 l 1,26,-1
 743.956 0 l 1,27,-1
 52.7559 0 l 1,0,-1
EndSplineSet
EndChar
StartChar: I
Encoding: 73 73 73
Width: 910
Flags: W
Fore
3.80566 0 m 1,0,-1
 24.9736 121 l 1,1,-1
 196.873 121 l 1,2,-1
 415.727 1372 l 1,3,-1
 243.826 1372 l 1,4,-1
 264.993 1493 l 1,5,-1
 956.189 1493 l 1,6,-1
 935.026 1372 l 1,7,-1
 762.227 1372 l 1,8,-1
 543.373 121 l 1,9,-1
 716.173 121 l 1,10,-1
 695.006 0 l 1,11,-1
 3.80566 0 l 1,0,-1
EndSplineSet
EndChar
StartChar: J
Encoding: 74 74 74
Width: 909
Flags: W
Fore
-253.25 -358 m 1,0,-1
 -212.138 -123 l 1,1,-1
 -95.1377 -123 l 1,2,3
 -106.184 -217 -106.184 -217 -79.2314 -261 c 128,-1,4
 -52.2783 -305 -52.2783 -305 16.1211 -305 c 0,5,6
 103.422 -305 103.422 -305 151.104 -230.5 c 128,-1,7
 198.788 -156 198.788 -156 234.65 49 c 2,8,-1
 466.101 1372 l 1,9,-1
 270.8 1372 l 1,10,-1
 291.968 1493 l 1,11,-1
 1007.47 1493 l 1,12,-1
 986.302 1372 l 1,13,-1
 814.4 1372 l 1,14,-1
 581.552 41 l 2,15,16
 539.041 -202 539.041 -202 409.197 -314 c 128,-1,17
 279.354 -426 279.354 -426 39.0537 -426 c 0,18,19
 -35.6465 -426 -35.6465 -426 -108.271 -409 c 128,-1,20
 -180.898 -392 -180.898 -392 -253.25 -358 c 1,0,-1
EndSplineSet
KernsSLIFO: 59 -83 0 0 58 -83 0 0 46 -159 0 0 44 -83 0 0
EndChar
StartChar: K
Encoding: 75 75 75
Width: 1691
Flags: W
Fore
45.7061 0 m 1,0,-1
 66.873 121 l 1,1,-1
 238.773 121 l 1,2,-1
 457.626 1372 l 1,3,-1
 285.727 1372 l 1,4,-1
 306.894 1493 l 1,5,-1
 998.09 1493 l 1,6,-1
 976.927 1372 l 1,7,-1
 804.126 1372 l 1,8,-1
 708.782 827 l 1,9,-1
 1373.82 1372 l 1,10,-1
 1229.82 1372 l 1,11,-1
 1250.99 1493 l 1,12,-1
 1752.29 1493 l 1,13,-1
 1731.12 1372 l 1,14,-1
 1552.02 1372 l 1,15,-1
 988.979 911 l 1,16,-1
 1506.88 121 l 1,17,-1
 1639.18 121 l 1,18,-1
 1618.01 0 l 1,19,-1
 1162.61 0 l 1,20,-1
 690.938 725 l 1,21,-1
 585.273 121 l 1,22,-1
 758.073 121 l 1,23,-1
 736.906 0 l 1,24,-1
 45.7061 0 l 1,0,-1
EndSplineSet
KernsSLIFO: 367 -45 0 0 366 -73 0 0 283 -45 0 0 268 -55 0 0 262 -55 0 0 253 -92 0 0 221 -55 0 0 217 -73 0 0 219 -73 0 0 218 -73 0 0 210 -55 0 0 212 -55 0 0 211 -55 0 0 193 -83 0 0 194 -83 0 0 376 -55 0 0 255 -92 0 0 339 -45 0 0 338 -55 0 0 213 -55 0 0 195 -83 0 0 192 -83 0 0 248 -36 0 0 216 -55 0 0 252 -45 0 0 251 -45 0 0 249 -45 0 0 250 -45 0 0 245 -45 0 0 246 -45 0 0 244 -45 0 0 242 -45 0 0 243 -45 0 0 235 -45 0 0 234 -45 0 0 232 -45 0 0 233 -45 0 0 220 -73 0 0 214 -55 0 0 199 -55 0 0 196 -83 0 0 121 -92 0 0 117 -45 0 0 111 -45 0 0 101 -45 0 0 89 -55 0 0 87 -73 0 0 85 -73 0 0 79 -55 0 0 67 -55 0 0 65 -83 0 0 45 -149 0 0
EndChar
StartChar: L
Encoding: 76 76 76
Width: 1359
Flags: W
Fore
19.4707 0 m 1,0,-1
 40.6387 121 l 1,1,-1
 212.538 121 l 1,2,-1
 431.392 1372 l 1,3,-1
 259.491 1372 l 1,4,-1
 280.658 1493 l 1,5,-1
 971.854 1493 l 1,6,-1
 950.691 1372 l 1,7,-1
 777.892 1372 l 1,8,-1
 561.837 137 l 1,9,-1
 1091.04 137 l 1,10,-1
 1132.33 373 l 1,11,-1
 1253.83 373 l 1,12,-1
 1188.58 0 l 1,13,-1
 19.4707 0 l 1,0,-1
EndSplineSet
KernsSLIFO: 366 -112 0 0 356 -167 0 0 253 -73 0 0 221 -131 0 0 217 -112 0 0 219 -112 0 0 218 -112 0 0 376 -131 0 0 255 -73 0 0 8217 -491 0 0 8216 -491 0 0 8221 -491 0 0 8220 -491 0 0 220 -112 0 0 121 -73 0 0 89 -131 0 0 87 -139 0 0 86 -243 0 0 85 -112 0 0 84 -167 0 0
EndChar
StartChar: M
Encoding: 77 77 77
Width: 2153
Flags: W
Fore
59.6553 0 m 1,0,-1
 80.8232 121 l 1,1,-1
 251.823 121 l 1,2,-1
 470.677 1372 l 1,3,-1
 299.677 1372 l 1,4,-1
 320.844 1493 l 1,5,-1
 875.243 1493 l 1,6,-1
 1091.05 535 l 1,7,-1
 1643.84 1493 l 1,8,-1
 2197.34 1493 l 1,9,-1
 2176.17 1372 l 1,10,-1
 2004.27 1372 l 1,11,-1
 1785.43 121 l 1,12,-1
 1957.33 121 l 1,13,-1
 1936.16 0 l 1,14,-1
 1244.96 0 l 1,15,-1
 1266.13 121 l 1,16,-1
 1437.13 121 l 1,17,-1
 1636.38 1260 l 1,18,-1
 1037.56 219 l 1,19,-1
 809.868 219 l 1,20,-1
 577.082 1260 l 1,21,-1
 377.823 121 l 1,22,-1
 548.823 121 l 1,23,-1
 527.656 0 l 1,24,-1
 59.6553 0 l 1,0,-1
EndSplineSet
EndChar
StartChar: N
Encoding: 78 78 78
Width: 1778
Flags: W
Fore
44.4053 0 m 1,0,-1
 65.5732 121 l 1,1,-1
 237.474 121 l 1,2,-1
 456.326 1372 l 1,3,-1
 284.427 1372 l 1,4,-1
 305.594 1493 l 1,5,-1
 725.894 1493 l 1,6,-1
 1351.88 436 l 1,7,-1
 1515.62 1372 l 1,8,-1
 1344.62 1372 l 1,9,-1
 1365.79 1493 l 1,10,-1
 1835.59 1493 l 1,11,-1
 1814.42 1372 l 1,12,-1
 1642.52 1372 l 1,13,-1
 1402.51 0 l 1,14,-1
 1166.71 0 l 1,15,-1
 531.969 1079 l 1,16,-1
 364.373 121 l 1,17,-1
 535.373 121 l 1,18,-1
 514.206 0 l 1,19,-1
 44.4053 0 l 1,0,-1
EndSplineSet
KernsSLIFO: 59 -73 0 0 58 -73 0 0 46 -131 0 0 44 -131 0 0
EndChar
StartChar: O
Encoding: 79 79 79
Width: 1694
Flags: W
Fore
776.671 92 m 0,0,1
 948.57 92 948.57 92 1060.44 253 c 0,2,3
 1172.3 414 1172.3 414 1230.21 745 c 0,4,5
 1288.29 1077 1288.29 1077 1232.75 1238 c 0,6,7
 1177.22 1399 1177.22 1399 1005.32 1399 c 0,8,9
 834.319 1399 834.319 1399 721.741 1236.5 c 0,10,11
 609.163 1074 609.163 1074 551.606 745 c 0,12,13
 494.227 417 494.227 417 549.949 254.5 c 0,14,15
 605.671 92 605.671 92 776.671 92 c 0,0,1
755.502 -29 m 0,16,17
 416.202 -29 416.202 -29 259.641 177 c 0,18,19
 103.078 383 103.078 383 166.407 745 c 0,20,21
 229.737 1107 229.737 1107 458.912 1313.5 c 0,22,23
 688.088 1520 688.088 1520 1026.49 1520 c 0,24,25
 1365.79 1520 1365.79 1520 1522.34 1314 c 0,26,27
 1678.91 1108 1678.91 1108 1615.41 745 c 0,28,29
 1552.08 383 1552.08 383 1323 177 c 0,30,31
 1093.9 -29 1093.9 -29 755.502 -29 c 0,16,17
EndSplineSet
KernsSLIFO: 88 -36 0 0 86 -36 0 0 46 -120 0 0 45 75 0 0 44 -120 0 0
EndChar
StartChar: P
Encoding: 80 80 80
Width: 1461
Flags: W
Fore
31.2783 0 m 1,0,-1
 52.4463 121 l 1,1,-1
 224.347 121 l 1,2,-1
 443.199 1372 l 1,3,-1
 271.299 1372 l 1,4,-1
 292.467 1493 l 1,5,-1
 1057.46 1493 l 2,6,7
 1281.56 1493 1281.56 1493 1393.14 1374.5 c 128,-1,8
 1504.71 1256 1504.71 1256 1469.9 1057 c 0,9,10
 1434.9 857 1434.9 857 1281.25 737.5 c 128,-1,11
 1127.59 618 1127.59 618 904.393 618 c 2,12,-1
 657.793 618 l 1,13,-1
 570.847 121 l 1,14,-1
 787.746 121 l 1,15,-1
 766.579 0 l 1,16,-1
 31.2783 0 l 1,0,-1
678.961 739 m 1,17,-1
 779.761 739 l 2,18,19
 896.761 739 896.761 739 981.646 825.5 c 128,-1,20
 1066.53 912 1066.53 912 1091.9 1057 c 0,21,22
 1117.09 1201 1117.09 1201 1062.75 1286.5 c 128,-1,23
 1008.39 1372 1008.39 1372 890.499 1372 c 2,24,-1
 789.699 1372 l 1,25,-1
 678.961 739 l 1,17,-1
EndSplineSet
KernsSLIFO: 283 -55 0 0 193 -149 0 0 194 -149 0 0 8222 -264 0 0 8218 -264 0 0 339 -55 0 0 195 -149 0 0 192 -149 0 0 248 -55 0 0 230 -55 0 0 245 -55 0 0 246 -55 0 0 244 -55 0 0 242 -55 0 0 243 -55 0 0 235 -55 0 0 234 -55 0 0 232 -55 0 0 233 -55 0 0 229 -55 0 0 227 -55 0 0 228 -55 0 0 226 -55 0 0 224 -55 0 0 225 -55 0 0 196 -149 0 0 111 -55 0 0 101 -55 0 0 97 -55 0 0 65 -149 0 0 59 -73 0 0 58 -73 0 0 46 -339 0 0 45 -112 0 0 44 -264 0 0
EndChar
StartChar: Q
Encoding: 81 81 81
Width: 1697
Flags: W
Fore
786.347 -29 m 1,0,1
 447.199 -23 447.199 -23 293.435 181 c 0,2,3
 184.354 325.72 184.354 325.72 184.354 548.96 c 0,4,5
 184.354 640.39 184.354 640.39 202.651 745 c 0,6,7
 265.984 1107 265.984 1107 495.16 1313.5 c 0,8,9
 724.337 1520 724.337 1520 1062.74 1520 c 0,10,11
 1402.04 1520 1402.04 1520 1558.6 1314 c 0,12,13
 1669.98 1167.45 1669.98 1167.45 1669.98 941.43 c 0,14,15
 1669.98 849.75 1669.98 849.75 1651.65 745 c 0,16,17
 1596.02 427 1596.02 427 1413.33 229 c 0,18,19
 1230.65 31 1230.65 31 948.823 -16 c 1,20,21
 986.552 -73 986.552 -73 1050.58 -98 c 0,22,23
 1199.12 -156 1199.12 -156 1320.33 -156 c 2,24,-1
 1494.03 -156 l 1,25,-1
 1451 -402 l 1,26,-1
 1297.1 -402 l 2,27,28
 1069.5 -402 1069.5 -402 929.312 -287 c 0,29,30
 829.357 -205 829.357 -205 786.347 -29 c 1,0,1
812.914 92 m 0,31,32
 984.814 92 984.814 92 1096.68 253 c 0,33,34
 1208.55 414 1208.55 414 1266.45 745 c 0,35,36
 1296.14 914.72 1296.14 914.72 1296.14 1039.75 c 0,37,38
 1296.14 1159.3 1296.14 1159.3 1269 1238 c 0,39,40
 1213.47 1399 1213.47 1399 1041.57 1399 c 0,41,42
 870.568 1399 870.568 1399 757.987 1236.5 c 128,-1,43
 645.406 1074 645.406 1074 587.852 745 c 0,44,45
 558.745 578.6 558.745 578.6 558.745 454.79 c 0,46,47
 558.745 334.56 558.745 334.56 586.195 254.5 c 0,48,49
 641.914 92 641.914 92 812.914 92 c 0,31,32
EndSplineSet
KernsSLIFO: 46 -102 0 0 45 75 0 0 44 -102 0 0
EndChar
StartChar: R
Encoding: 82 82 82
Width: 1608
Flags: W
Fore
1052.41 729 m 1,0,1
 1130.23 716 1130.23 716 1177.08 670 c 128,-1,2
 1223.94 624 1223.94 624 1249.22 537 c 2,3,-1
 1372.64 121 l 1,4,-1
 1510.34 121 l 1,5,-1
 1489.18 0 l 1,6,-1
 1047.28 0 l 1,7,-1
 911.971 451 l 1,8,9
 874.361 591 874.361 591 837.448 629.5 c 128,-1,10
 800.533 668 800.533 668 723.133 668 c 2,11,-1
 668.232 668 l 1,12,-1
 572.539 121 l 1,13,-1
 745.339 121 l 1,14,-1
 724.172 0 l 1,15,-1
 32.9717 0 l 1,16,-1
 54.1396 121 l 1,17,-1
 226.039 121 l 1,18,-1
 444.893 1372 l 1,19,-1
 272.992 1372 l 1,20,-1
 294.159 1493 l 1,21,-1
 1060.96 1493 l 2,22,23
 1294.96 1493 1294.96 1493 1404.03 1388.5 c 128,-1,24
 1513.1 1284 1513.1 1284 1479.51 1092 c 0,25,26
 1452.21 936 1452.21 936 1345.93 845.5 c 128,-1,27
 1239.65 755 1239.65 755 1052.41 729 c 1,0,1
689.226 788 m 1,28,-1
 807.125 788 l 2,29,30
 933.125 788 933.125 788 1014.37 864 c 128,-1,31
 1095.62 940 1095.62 940 1120.28 1081 c 0,32,33
 1144.95 1222 1144.95 1222 1090.12 1297 c 128,-1,34
 1035.29 1372 1035.29 1372 909.292 1372 c 2,35,-1
 791.393 1372 l 1,36,-1
 689.226 788 l 1,28,-1
EndSplineSet
KernsSLIFO: 356 -36 0 0 253 -36 0 0 221 -63 0 0 376 -63 0 0 255 -36 0 0 8217 -73 0 0 8221 -73 0 0 248 38 0 0 230 47 0 0 229 47 0 0 227 47 0 0 228 47 0 0 226 47 0 0 224 47 0 0 225 47 0 0 121 -36 0 0 97 47 0 0 89 -63 0 0 87 -45 0 0 86 -73 0 0 84 -36 0 0
EndChar
StartChar: S
Encoding: 83 83 83
Width: 1402
Flags: W
Fore
95.5029 72 m 1,0,-1
 157.433 426 l 1,1,-1
 271.732 426 l 1,2,3
 268.441 258 268.441 258 351.122 175 c 128,-1,4
 433.802 92 433.802 92 605.702 92 c 0,5,6
 745.202 92 745.202 92 828.422 151 c 128,-1,7
 911.645 210 911.645 210 931.588 324 c 0,8,9
 947.332 414 947.332 414 906.58 464 c 128,-1,10
 865.827 514 865.827 514 718.55 557 c 2,11,-1
 526.571 612 l 1,12,13
 339.269 668 339.269 668 276.574 767.5 c 128,-1,14
 213.882 867 213.882 867 246.071 1051 c 0,15,16
 284.908 1273 284.908 1273 439.264 1396.5 c 128,-1,17
 593.619 1520 593.619 1520 833.02 1520 c 0,18,19
 950.919 1520 950.919 1520 1074.42 1498 c 128,-1,20
 1197.93 1476 1197.93 1476 1327.02 1432 c 1,21,-1
 1269.3 1102 l 1,22,-1
 1155 1102 l 1,23,24
 1155.83 1256 1155.83 1256 1080.14 1327.5 c 128,-1,25
 1004.45 1399 1004.45 1399 841.551 1399 c 0,26,27
 708.351 1399 708.351 1399 631.392 1347.5 c 128,-1,28
 554.432 1296 554.432 1296 536.588 1194 c 0,29,30
 520.319 1101 520.319 1101 558.634 1052.5 c 128,-1,31
 596.948 1004 596.948 1004 770.553 952 c 1,32,-1
 962.529 897 l 2,33,34
 1140.63 845 1140.63 845 1205.54 735 c 128,-1,35
 1270.45 625 1270.45 625 1236.68 432 c 0,36,37
 1197.14 206 1197.14 206 1036.19 88.5 c 128,-1,38
 875.233 -29 875.233 -29 602.533 -29 c 0,39,40
 471.133 -29 471.133 -29 345.907 -4 c 128,-1,41
 220.681 21 220.681 21 95.5029 72 c 1,0,-1
EndSplineSet
KernsSLIFO: 350 -45 0 0 352 -45 0 0 83 -45 0 0 46 -73 0 0 45 75 0 0 44 -73 0 0
EndChar
StartChar: T
Encoding: 84 84 84
Width: 1458
Flags: W
Fore
290.491 0 m 1,0,-1
 311.658 121 l 1,1,-1
 489.858 121 l 1,2,-1
 705.912 1356 l 1,3,-1
 337.812 1356 l 1,4,-1
 296.526 1120 l 1,5,-1
 173.226 1120 l 1,6,-1
 238.479 1493 l 1,7,-1
 1570.47 1493 l 1,8,-1
 1505.22 1120 l 1,9,-1
 1383.72 1120 l 1,10,-1
 1425.01 1356 l 1,11,-1
 1054.21 1356 l 1,12,-1
 838.158 121 l 1,13,-1
 1017.26 121 l 1,14,-1
 996.095 0 l 1,15,-1
 290.491 0 l 1,0,-1
EndSplineSet
KernsSLIFO: 252 -188 0 0 229 -196 0 0 230 -159 0 0 59 -73 0 0 242 -235 0 0 255 -225 0 0 45 -339 0 0 8222 -149 0 0 367 -188 0 0 245 -235 0 0 235 -235 0 0 249 -188 0 0 44 -225 0 0 224 -196 0 0 195 -112 0 0 234 -235 0 0 231 -235 0 0 341 -149 0 0 232 -235 0 0 196 -112 0 0 193 -112 0 0 269 -235 0 0 345 -149 0 0 233 -235 0 0 251 -188 0 0 253 -225 0 0 8218 -149 0 0 227 -196 0 0 194 -112 0 0 248 -159 0 0 244 -235 0 0 353 -188 0 0 65 -112 0 0 283 -235 0 0 187 -149 0 0 351 -188 0 0 228 -196 0 0 119 -225 0 0 246 -235 0 0 250 -188 0 0 8250 -149 0 0 263 -235 0 0 225 -196 0 0 46 -264 0 0 84 -73 0 0 226 -196 0 0 101 -235 0 0 356 -73 0 0 97 -196 0 0 99 -235 0 0 171 -149 0 0 339 -159 0 0 8249 -149 0 0 111 -235 0 0 115 -188 0 0 114 -149 0 0 117 -188 0 0 192 -112 0 0 121 -225 0 0 58 -73 0 0 243 -235 0 0
EndChar
StartChar: U
Encoding: 85 85 85
Width: 1711
Flags: W
Fore
450.129 1372 m 1,0,-1
 279.129 1372 l 1,1,-1
 300.298 1493 l 1,2,-1
 991.498 1493 l 1,3,-1
 970.329 1372 l 1,4,-1
 798.429 1372 l 1,5,-1
 667.747 625 l 2,6,7
 618.938 346 618.938 346 677.732 234.5 c 128,-1,8
 736.526 123 736.526 123 926.426 123 c 0,9,10
 1111.82 123 1111.82 123 1209.36 235.5 c 128,-1,11
 1306.89 348 1306.89 348 1355.35 625 c 2,12,-1
 1486.03 1372 l 1,13,-1
 1315.03 1372 l 1,14,-1
 1336.19 1493 l 1,15,-1
 1804.19 1493 l 1,16,-1
 1783.03 1372 l 1,17,-1
 1611.13 1372 l 1,18,-1
 1476.77 604 l 2,19,20
 1416.94 262 1416.94 262 1258.29 116.5 c 128,-1,21
 1099.64 -29 1099.64 -29 785.534 -29 c 0,22,23
 473.234 -29 473.234 -29 364.852 118 c 128,-1,24
 256.469 265 256.469 265 316.123 606 c 2,25,-1
 450.129 1372 l 1,0,-1
EndSplineSet
KernsSLIFO: 193 -63 0 0 194 -63 0 0 195 -63 0 0 192 -63 0 0 196 -63 0 0 65 -63 0 0 59 -73 0 0 58 -73 0 0 46 -188 0 0 45 -36 0 0 44 -188 0 0
EndChar
StartChar: V
Encoding: 86 86 86
Width: 1523
Flags: W
Fore
1680.42 1493 m 1,0,-1
 1659.26 1372 l 1,1,-1
 1546.76 1372 l 1,2,-1
 800.041 0 l 1,3,-1
 585.841 0 l 1,4,-1
 319.161 1372 l 1,5,-1
 192.261 1372 l 1,6,-1
 213.428 1493 l 1,7,-1
 843.428 1493 l 1,8,-1
 822.261 1372 l 1,9,-1
 691.761 1372 l 1,10,-1
 881.443 383 l 1,11,-1
 1419.86 1372 l 1,12,-1
 1259.66 1372 l 1,13,-1
 1280.82 1493 l 1,14,-1
 1680.42 1493 l 1,0,-1
EndSplineSet
KernsSLIFO: 367 -131 0 0 283 -188 0 0 253 -83 0 0 210 -36 0 0 212 -36 0 0 211 -36 0 0 193 -159 0 0 194 -159 0 0 8222 -264 0 0 8218 -264 0 0 255 -83 0 0 8217 38 0 0 8221 38 0 0 339 -188 0 0 338 -36 0 0 213 -36 0 0 195 -159 0 0 192 -159 0 0 248 -188 0 0 230 -188 0 0 216 -36 0 0 252 -131 0 0 251 -131 0 0 249 -131 0 0 250 -131 0 0 245 -188 0 0 246 -188 0 0 244 -188 0 0 242 -188 0 0 243 -188 0 0 235 -188 0 0 234 -188 0 0 232 -188 0 0 233 -188 0 0 229 -188 0 0 227 -188 0 0 228 -188 0 0 226 -188 0 0 224 -188 0 0 225 -188 0 0 214 -36 0 0 196 -159 0 0 121 -83 0 0 117 -131 0 0 111 -188 0 0 105 -36 0 0 101 -188 0 0 97 -188 0 0 79 -36 0 0 65 -159 0 0 59 -206 0 0 58 -206 0 0 46 -358 0 0 45 -149 0 0 44 -358 0 0
EndChar
StartChar: W
Encoding: 87 87 87
Width: 2198
Flags: W
Fore
1568.54 0 m 1,0,-1
 1336.34 0 l 1,1,-1
 1222.31 1087 l 1,2,-1
 727.94 0 l 1,3,-1
 495.74 0 l 1,4,-1
 352.36 1372 l 1,5,-1
 221.86 1372 l 1,6,-1
 243.028 1493 l 1,7,-1
 880.228 1493 l 1,8,-1
 859.061 1372 l 1,9,-1
 715.061 1372 l 1,10,-1
 811.139 455 l 1,11,-1
 1282.52 1493 l 1,12,-1
 1538.12 1493 l 1,13,-1
 1648.76 438 l 1,14,-1
 2074.06 1372 l 1,15,-1
 1913.86 1372 l 1,16,-1
 1935.02 1493 l 1,17,-1
 2350.82 1493 l 1,18,-1
 2329.66 1372 l 1,19,-1
 2191.96 1372 l 1,20,-1
 1568.54 0 l 1,0,-1
EndSplineSet
KernsSLIFO: 252 -83 0 0 229 -178 0 0 230 -139 0 0 59 -139 0 0 242 -167 0 0 45 -112 0 0 8222 -225 0 0 367 -83 0 0 245 -167 0 0 235 -167 0 0 249 -83 0 0 44 -319 0 0 224 -178 0 0 195 -131 0 0 234 -167 0 0 341 -92 0 0 8221 38 0 0 232 -167 0 0 196 -131 0 0 193 -131 0 0 8217 38 0 0 251 -83 0 0 253 -45 0 0 8218 -225 0 0 227 -178 0 0 194 -131 0 0 248 -167 0 0 244 -167 0 0 65 -131 0 0 97 -178 0 0 228 -178 0 0 246 -167 0 0 250 -83 0 0 225 -178 0 0 345 -92 0 0 46 -319 0 0 226 -178 0 0 233 -167 0 0 283 -167 0 0 101 -167 0 0 105 -36 0 0 339 -167 0 0 255 -45 0 0 111 -167 0 0 114 -92 0 0 117 -83 0 0 192 -131 0 0 121 -45 0 0 58 -139 0 0 243 -167 0 0
EndChar
StartChar: X
Encoding: 88 88 88
Width: 1507
Flags: W
Fore
671.897 575 m 1,0,-1
 312.573 121 l 1,1,-1
 478.173 121 l 1,2,-1
 457.006 0 l 1,3,-1
 -19.9941 0 l 1,4,-1
 1.17285 121 l 1,5,-1
 166.773 121 l 1,6,-1
 620.365 692 l 1,7,-1
 319.026 1372 l 1,8,-1
 195.727 1372 l 1,9,-1
 216.894 1493 l 1,10,-1
 884.693 1493 l 1,11,-1
 863.526 1372 l 1,12,-1
 715.927 1372 l 1,13,-1
 902.551 952 l 1,14,-1
 1233.42 1372 l 1,15,-1
 1076.82 1372 l 1,16,-1
 1097.99 1493 l 1,17,-1
 1565.99 1493 l 1,18,-1
 1544.82 1372 l 1,19,-1
 1379.22 1372 l 1,20,-1
 953.357 836 l 1,21,-1
 1269.28 121 l 1,22,-1
 1396.18 121 l 1,23,-1
 1375.01 0 l 1,24,-1
 704.506 0 l 1,25,-1
 725.673 121 l 1,26,-1
 875.073 121 l 1,27,-1
 671.897 575 l 1,0,-1
EndSplineSet
KernsSLIFO: 268 -36 0 0 262 -36 0 0 210 -36 0 0 212 -36 0 0 211 -36 0 0 193 -73 0 0 194 -73 0 0 338 -36 0 0 213 -36 0 0 195 -73 0 0 192 -73 0 0 216 -36 0 0 214 -36 0 0 199 -36 0 0 196 -73 0 0 79 -36 0 0 67 -36 0 0 65 -73 0 0 45 -73 0 0
EndChar
StartChar: Y
Encoding: 89 89 89
Width: 1402
Flags: W
Fore
272.69 0 m 1,0,-1
 293.857 121 l 1,1,-1
 474.758 121 l 1,2,-1
 561.704 618 l 1,3,-1
 294.011 1372 l 1,4,-1
 179.711 1372 l 1,5,-1
 200.878 1493 l 1,6,-1
 845.278 1493 l 1,7,-1
 824.11 1372 l 1,8,-1
 674.711 1372 l 1,9,-1
 877.568 803 l 1,10,-1
 1277.71 1372 l 1,11,-1
 1143.61 1372 l 1,12,-1
 1164.77 1493 l 1,13,-1
 1549.97 1493 l 1,14,-1
 1528.81 1372 l 1,15,-1
 1414.51 1372 l 1,16,-1
 919.102 670 l 1,17,-1
 823.058 121 l 1,18,-1
 1003.96 121 l 1,19,-1
 982.791 0 l 1,20,-1
 272.69 0 l 1,0,-1
EndSplineSet
KernsSLIFO: 367 -178 0 0 283 -178 0 0 268 -36 0 0 262 -36 0 0 193 -131 0 0 194 -131 0 0 339 -178 0 0 195 -131 0 0 192 -131 0 0 248 -178 0 0 230 -159 0 0 252 -178 0 0 251 -178 0 0 249 -178 0 0 250 -178 0 0 245 -178 0 0 246 -178 0 0 244 -178 0 0 242 -178 0 0 243 -178 0 0 235 -178 0 0 234 -178 0 0 232 -178 0 0 233 -178 0 0 229 -159 0 0 227 -159 0 0 228 -159 0 0 226 -159 0 0 224 -159 0 0 225 -159 0 0 199 -36 0 0 196 -131 0 0 117 -178 0 0 111 -178 0 0 105 -36 0 0 101 -178 0 0 97 -159 0 0 67 -36 0 0 65 -131 0 0 59 -253 0 0 58 -253 0 0 46 -264 0 0 45 -206 0 0 44 -264 0 0
EndChar
StartChar: Z
Encoding: 90 90 90
Width: 1419
Flags: W
Fore
12.1553 0 m 1,0,-1
 36.8223 141 l 1,1,-1
 1051.27 1356 l 1,2,-1
 407.777 1356 l 1,3,-1
 368.765 1133 l 1,4,-1
 245.465 1133 l 1,5,-1
 308.443 1493 l 1,6,-1
 1474.84 1493 l 1,7,-1
 1450.18 1352 l 1,8,-1
 444.723 137 l 1,9,-1
 1123.33 137 l 1,10,-1
 1159.88 346 l 1,11,-1
 1283.18 346 l 1,12,-1
 1222.66 0 l 1,13,-1
 12.1553 0 l 1,0,-1
EndSplineSet
KernsSLIFO: 46 -36 0 0 44 -36 0 0
EndChar
StartChar: bracketleft
Encoding: 91 91 91
Width: 926
Flags: W
Fore
444.072 1556 m 1,0,-1
 954.373 1556 l 1,1,-1
 933.38 1436 l 1,2,-1
 741.68 1436 l 1,3,-1
 464.221 -150 l 1,4,-1
 655.921 -150 l 1,5,-1
 634.928 -270 l 1,6,-1
 124.628 -270 l 1,7,-1
 444.072 1556 l 1,0,-1
EndSplineSet
EndChar
StartChar: backslash
Encoding: 92 92 92
Width: 710
Flags: W
Fore
383.514 1493 m 1,0,-1
 563.386 -190 l 1,1,-1
 363.586 -190 l 1,2,-1
 184.614 1493 l 1,3,-1
 383.514 1493 l 1,0,-1
EndSplineSet
EndChar
StartChar: bracketright
Encoding: 93 93 93
Width: 915
Flags: W
Fore
844.322 1556 m 1,0,-1
 524.878 -270 l 1,1,-1
 13.6777 -270 l 1,2,-1
 34.6709 -150 l 1,3,-1
 226.37 -150 l 1,4,-1
 503.83 1436 l 1,5,-1
 312.13 1436 l 1,6,-1
 333.122 1556 l 1,7,-1
 844.322 1556 l 1,0,-1
EndSplineSet
EndChar
StartChar: asciicircum
Encoding: 94 94 94
Width: 1624
Flags: W
Fore
961.5 1493 m 1,0,-1
 1443.9 936 l 1,1,-1
 1252.2 936 l 1,2,-1
 858 1251 l 1,3,-1
 463.8 936 l 1,4,-1
 272.1 936 l 1,5,-1
 760.8 1493 l 1,6,-1
 961.5 1493 l 1,0,-1
EndSplineSet
EndChar
StartChar: underscore
Encoding: 95 95 95
Width: 972
Flags: W
Fore
972.8 -293 m 1,0,-1
 972.8 -483 l 1,1,-1
 51.2002 -483 l 1,2,-1
 51.2002 -293 l 1,3,-1
 972.8 -293 l 1,0,-1
EndSplineSet
EndChar
StartChar: grave
Encoding: 96 96 96
Width: 971
Flags: W
Fore
537.25 1638 m 1,0,-1
 702.85 1262 l 1,1,-1
 555.25 1262 l 1,2,-1
 286.15 1638 l 1,3,-1
 537.25 1638 l 1,0,-1
EndSplineSet
EndChar
StartChar: a
Encoding: 97 97 97
Width: 1255
Flags: W
Fore
749.91 479 m 2,0,-1
 768.288 584 l 2,1,2
 787.179 692.01 787.179 692.01 787.179 765.29 c 0,3,4
 787.179 818.2 787.179 818.2 777.324 853 c 0,5,6
 753.834 936 753.834 936 670.674 936 c 0,7,8
 583.554 936 583.554 936 533.001 848.5 c 0,9,10
 482.448 761 482.448 761 442.389 532 c 0,11,12
 415.776 379.88 415.776 379.88 415.776 289.98 c 0,13,14
 415.776 244.54 415.776 244.54 422.571 215 c 0,15,16
 442.812 127 442.812 127 529.14 127 c 0,17,18
 612.309 127 612.309 127 664.842 210 c 128,-1,19
 717.375 293 717.375 293 749.91 479 c 2,0,-1
967.656 121 m 1,20,-1
 1087.25 121 l 1,21,-1
 1066.08 0 l 1,22,-1
 666.12 0 l 1,23,-1
 689.736 135 l 1,24,25
 639.57 52 639.57 52 571.899 11.5 c 128,-1,26
 504.228 -29 504.228 -29 415.524 -29 c 0,27,28
 236.532 -29 236.532 -29 160.212 121 c 0,29,30
 112.458 214.85 112.458 214.85 112.458 352.16 c 0,31,32
 112.458 434.3 112.458 434.3 129.549 532 c 0,33,34
 175.386 794 175.386 794 304.014 943 c 0,35,36
 432.642 1092 432.642 1092 611.634 1092 c 0,37,38
 700.338 1092 700.338 1092 753.843 1051.5 c 0,39,40
 807.339 1011 807.339 1011 828.462 928 c 1,41,-1
 857.154 1092 l 1,42,-1
 1137.52 1092 l 1,43,-1
 967.656 121 l 1,20,-1
EndSplineSet
EndChar
StartChar: b
Encoding: 98 98 98
Width: 1349
Flags: W
Fore
365.373 1436 m 1,0,-1
 228.573 1436 l 1,1,-1
 249.57 1556 l 1,2,-1
 704.97 1556 l 1,3,-1
 595.107 928 l 1,4,5
 650.124 1011 650.124 1011 725.607 1051.5 c 128,-1,6
 801.09 1092 801.09 1092 901.89 1092 c 0,7,8
 1106.19 1092 1106.19 1092 1197.49 942.5 c 0,9,10
 1258.34 842.84 1258.34 842.84 1258.34 693.63 c 0,11,12
 1258.34 619.01 1258.34 619.01 1243.12 532 c 0,13,14
 1197.47 271 1197.47 271 1053.77 121 c 0,15,16
 910.08 -29 910.08 -29 705.78 -29 c 0,17,18
 604.98 -29 604.98 -29 543.672 11.5 c 0,19,20
 482.355 52 482.355 52 456.372 135 c 1,21,-1
 432.756 0 l 1,22,-1
 114.156 0 l 1,23,-1
 365.373 1436 l 1,0,-1
516.555 479 m 2,24,25
 499.131 379.4 499.131 379.4 499.131 309.34 c 0,26,27
 499.131 248.56 499.131 248.56 512.244 210 c 0,28,29
 540.477 127 540.477 127 635.877 127 c 0,30,31
 733.977 127 733.977 127 789.417 215 c 0,32,33
 844.866 303 844.866 303 884.925 532 c 0,34,35
 909.693 673.57 909.693 673.57 909.693 761.06 c 0,36,37
 909.693 815.09 909.693 815.09 900.243 848.5 c 0,38,39
 875.502 936 875.502 936 777.402 936 c 0,40,41
 682.002 936 682.002 936 624.735 853 c 0,42,43
 567.459 770 567.459 770 534.924 584 c 2,44,-1
 516.555 479 l 2,24,25
EndSplineSet
EndChar
StartChar: c
Encoding: 99 99 99
Width: 1186
Flags: W
Fore
1068.68 332 m 1,0,1
 1002.64 150 1002.64 150 881.24 60.5 c 0,2,3
 759.83 -29 759.83 -29 578.03 -29 c 0,4,5
 322.43 -29 322.43 -29 207.743 118 c 0,6,7
 126.257 222.46 126.257 222.46 126.257 387.5 c 0,8,9
 126.257 454.73 126.257 454.73 139.775 532 c 0,10,11
 185.954 796 185.954 796 350.447 944 c 0,12,13
 514.94 1092 514.94 1092 761.54 1092 c 0,14,15
 861.44 1092 861.44 1092 959.468 1071 c 0,16,17
 1057.5 1050 1057.5 1050 1155.44 1008 c 1,18,-1
 1103.84 713 l 1,19,-1
 1003.04 713 l 1,20,21
 1004.59 735.85 1004.59 735.85 1004.59 756.7 c 0,22,23
 1004.59 859.08 1004.59 859.08 967.01 913.5 c 0,24,25
 921.767 979 921.767 979 819.167 979 c 0,26,27
 685.967 979 685.967 979 612.23 879 c 0,28,29
 538.484 779 538.484 779 495.275 532 c 0,30,31
 472.757 403.31 472.757 403.31 472.757 313.82 c 0,32,33
 472.757 235.73 472.757 235.73 489.902 187.5 c 0,34,35
 526.703 84 526.703 84 650.903 84 c 0,36,37
 747.203 84 747.203 84 816.449 148 c 128,-1,38
 885.695 212 885.695 212 919.283 332 c 1,39,-1
 1068.68 332 l 1,0,1
EndSplineSet
EndChar
StartChar: d
Encoding: 100 100 100
Width: 1359
Flags: W
Fore
811.78 479 m 2,0,-1
 830.149 584 l 2,1,2
 847.447 682.86 847.447 682.86 847.447 752.63 c 0,3,4
 847.447 814.12 847.447 814.12 834.011 853 c 0,5,6
 805.327 936 805.327 936 710.827 936 c 0,7,8
 611.827 936 611.827 936 556.469 848.5 c 128,-1,9
 501.109 761 501.109 761 461.051 532 c 0,10,11
 436.427 391.22 436.427 391.22 436.427 303.73 c 0,12,13
 436.427 248.9 436.427 248.9 446.093 215 c 0,14,15
 471.202 127 471.202 127 569.303 127 c 0,16,17
 663.803 127 663.803 127 721.52 210 c 0,18,19
 779.236 293 779.236 293 811.78 479 c 2,0,-1
1318.8 1556 m 1,20,-1
 1046.58 0 l 1,21,-1
 727.981 0 l 1,22,-1
 751.598 135 l 1,23,24
 696.58 52 696.58 52 620.647 11.5 c 0,25,26
 544.705 -29 544.705 -29 443.905 -29 c 0,27,28
 240.506 -29 240.506 -29 150.199 121 c 0,29,30
 90.2148 220.63 90.2148 220.63 90.2148 369.22 c 0,31,32
 90.2148 444.35 90.2148 444.35 105.551 532 c 0,33,34
 151.388 794 151.388 794 294.002 943 c 0,35,36
 436.615 1092 436.615 1092 640.016 1092 c 0,37,38
 740.815 1092 740.815 1092 802.582 1051.5 c 128,-1,39
 864.35 1011 864.35 1011 890.332 928 c 1,40,-1
 979.198 1436 l 1,41,-1
 842.398 1436 l 1,42,-1
 863.396 1556 l 1,43,-1
 1318.8 1556 l 1,20,-1
EndSplineSet
EndChar
StartChar: e
Encoding: 101 101 101
Width: 1236
Flags: W
Fore
815.06 600 m 1,0,1
 838.712 735.22 838.712 735.22 838.712 818.41 c 0,2,3
 838.712 864.41 838.712 864.41 831.476 894.5 c 0,4,5
 811.153 979 811.153 979 726.554 979 c 0,6,7
 644.653 979 644.653 979 594.587 896 c 0,8,9
 540.263 798.91 540.263 798.91 507.26 600 c 1,10,-1
 815.06 600 l 1,0,1
486.434 481 m 1,11,12
 468.686 382.74 468.686 382.74 467.911 303.06 c 0,13,14
 467.911 223.51 467.911 223.51 488.791 175.5 c 0,15,16
 528.59 84 528.59 84 652.789 84 c 0,17,18
 756.289 84 756.289 84 830.854 145 c 0,19,20
 905.429 206 905.429 206 943.724 322 c 1,21,-1
 1093.12 322 l 1,22,23
 1022.75 141 1022.75 141 892.685 56 c 0,24,25
 762.616 -29 762.616 -29 555.616 -29 c 0,26,27
 307.217 -29 307.217 -29 199.919 116.5 c 0,28,29
 125.426 217.52 125.426 217.52 125.426 378.57 c 0,30,31
 125.426 449.47 125.426 449.47 139.861 532 c 0,32,33
 186.04 796 186.04 796 347.833 944 c 0,34,35
 509.627 1092 509.627 1092 751.727 1092 c 0,36,37
 989.326 1092 989.326 1092 1089.02 936.5 c 0,38,39
 1158 828.9 1158 828.9 1158 652.12 c 0,40,41
 1158 573.42 1158 573.42 1144.33 481 c 1,42,-1
 486.434 481 l 1,11,12
EndSplineSet
EndChar
StartChar: f
Encoding: 102 102 102
Width: 845
Flags: W
Fore
1055.3 1290 m 1,0,-1
 954.497 1290 l 1,1,2
 955.739 1304.99 955.739 1304.99 955.739 1318.49 c 0,0,0
 955.739 1375.3 955.739 1375.3 933.84 1406 c 128,-1,3
 906.738 1444 906.738 1444 844.639 1444 c 0,4,5
 772.639 1444 772.639 1444 730.18 1386.5 c 128,-1,6
 687.719 1329 687.719 1329 665.152 1200 c 2,7,-1
 641.185 1063 l 1,8,-1
 881.484 1063 l 1,9,-1
 860.317 942 l 1,10,-1
 620.018 942 l 1,11,-1
 450.147 -29 l 2,22,23
 419.184 -206 419.184 -206 301.476 -297.5 c 128,-1,24
 183.769 -389 183.769 -389 -13.332 -389 c 0,25,26
 -89.8311 -389 -89.8311 -389 -161.069 -379.5 c 128,-1,27
 -232.308 -370 -232.308 -370 -299.183 -351 c 1,28,-1
 -259.297 -123 l 1,0,-1
 -158.497 -123 l 1,1,2
 -159.735 -137.985 -159.735 -137.985 -159.735 -151.494 c 0,0,0
 -159.735 -208.301 -159.735 -208.301 -137.84 -239 c 128,-1,3
 -110.738 -277 -110.738 -277 -48.6377 -277 c 0,4,5
 23.3623 -277 23.3623 -277 65.8223 -219.5 c 128,-1,6
 108.281 -162 108.281 -162 130.849 -33 c 2,7,-1
 301.418 942 l 1,18,-1
 159.218 942 l 1,19,-1
 180.385 1063 l 1,20,-1
 322.585 1063 l 1,21,-1
 345.853 1196 l 2,22,23
 376.816 1373 376.816 1373 494.524 1464.5 c 128,-1,24
 612.231 1556 612.231 1556 809.332 1556 c 0,25,26
 885.832 1556 885.832 1556 957.071 1546.5 c 128,-1,27
 1028.31 1537 1028.31 1537 1095.19 1518 c 1,28,-1
 1055.3 1290 l 1,0,-1
EndSplineSet
KernsSLIFO: 8217 151 0 0 8221 151 0 0 8220 65 0 0 46 -73 0 0 45 -73 0 0 44 -45 0 0
EndChar
StartChar: g
Encoding: 103 103 103
Width: 1367
Flags: W
Fore
1297.54 942 m 1,0,-1
 1135.19 14 l 2,1,2
 1096 -210 1096 -210 931.024 -332.5 c 128,-1,3
 766.045 -455 766.045 -455 504.145 -455 c 0,4,5
 408.745 -455 408.745 -455 313.525 -438.5 c 0,6,7
 218.314 -422 218.314 -422 120.592 -389 c 1,8,-1
 165.025 -135 l 1,9,-1
 266.725 -135 l 1,10,11
 266.32 -143.74 266.32 -143.74 266.32 -152.11 c 0,12,13
 266.32 -244.25 266.32 -244.25 315.478 -291 c 0,14,15
 369.109 -342 369.109 -342 485.209 -342 c 0,16,17
 632.809 -342 632.809 -342 707.293 -263.5 c 128,-1,18
 781.777 -185 781.777 -185 816.589 14 c 2,19,-1
 837.757 135 l 1,20,21
 782.74 52 782.74 52 706.807 11.5 c 0,22,23
 630.865 -29 630.865 -29 530.065 -29 c 0,24,25
 326.665 -29 326.665 -29 236.359 121 c 0,26,27
 176.374 220.63 176.374 220.63 176.374 369.22 c 0,28,29
 176.374 444.35 176.374 444.35 191.71 532 c 0,30,31
 237.547 794 237.547 794 380.161 943 c 0,32,33
 522.775 1092 522.775 1092 726.175 1092 c 0,34,35
 826.975 1092 826.975 1092 888.742 1051.5 c 128,-1,36
 950.509 1011 950.509 1011 976.483 928 c 1,37,-1
 1000.11 1063 l 1,38,-1
 1454.61 1063 l 1,39,-1
 1433.44 942 l 1,40,-1
 1297.54 942 l 1,0,-1
916.309 584 m 2,41,42
 933.607 682.86 933.607 682.86 933.607 752.63 c 0,43,44
 933.607 814.12 933.607 814.12 920.17 853 c 0,45,46
 891.487 936 891.487 936 796.987 936 c 0,47,48
 697.987 936 697.987 936 642.628 848.5 c 128,-1,49
 587.269 761 587.269 761 547.21 532 c 0,50,51
 522.586 391.22 522.586 391.22 522.586 303.73 c 0,52,53
 522.586 248.9 522.586 248.9 532.252 215 c 0,54,55
 557.362 127 557.362 127 655.462 127 c 0,56,57
 749.962 127 749.962 127 807.679 210 c 0,58,59
 865.396 293 865.396 293 897.94 479 c 2,60,-1
 916.309 584 l 2,41,42
EndSplineSet
EndChar
StartChar: h
Encoding: 104 104 104
Width: 1401
Flags: W
Fore
131.996 0 m 1,0,-1
 383.213 1436 l 1,1,-1
 241.013 1436 l 1,2,-1
 262.01 1556 l 1,3,-1
 722.81 1556 l 1,4,-1
 610.319 913 l 1,5,6
 684.542 1008 684.542 1008 765.686 1050 c 0,7,8
 846.83 1092 846.83 1092 959.33 1092 c 0,9,10
 1120.44 1092 1120.44 1092 1184.33 986.5 c 0,11,12
 1225.25 918.93 1225.25 918.93 1225.25 810.54 c 0,13,14
 1225.25 749.7 1225.25 749.7 1212.36 676 c 2,15,-1
 1115.26 121 l 1,16,-1
 1252.06 121 l 1,17,-1
 1230.9 0 l 1,18,-1
 775.496 0 l 1,19,-1
 895.511 686 l 2,20,21
 907.769 756.1 907.769 756.1 907.769 803.95 c 0,22,23
 907.769 848.26 907.769 848.26 897.257 873.5 c 0,24,25
 875.396 926 875.396 926 798.896 926 c 0,26,27
 702.596 926 702.596 926 643.862 847.5 c 128,-1,28
 585.128 769 585.128 769 555.212 598 c 2,29,-1
 450.596 0 l 1,30,-1
 131.996 0 l 1,0,-1
EndSplineSet
EndChar
StartChar: i
Encoding: 105 105 105
Width: 730
Flags: W
Fore
309.658 1364 m 0,0,1
 323.824 1445 323.824 1445 383.935 1500.5 c 128,-1,2
 444.046 1556 444.046 1556 516.946 1556 c 0,3,4
 588.046 1556 588.046 1556 628.285 1500.5 c 0,5,6
 658.048 1459.45 658.048 1459.45 658.048 1404.46 c 0,7,8
 658.048 1385.09 658.048 1385.09 654.358 1364 c 0,9,10
 640.534 1285 640.534 1285 580.873 1229.5 c 0,11,12
 521.212 1174 521.212 1174 450.121 1174 c 0,13,14
 377.221 1174 377.221 1174 336.442 1229 c 0,15,16
 306.076 1269.95 306.076 1269.95 306.076 1324.75 c 0,17,18
 306.076 1343.56 306.076 1343.56 309.658 1364 c 0,0,1
440.5 121 m 1,19,-1
 577.3 121 l 1,20,-1
 556.132 0 l 1,21,-1
 100.732 0 l 1,22,-1
 265.531 942 l 1,23,-1
 129.631 942 l 1,24,-1
 150.799 1063 l 1,25,-1
 605.299 1063 l 1,26,-1
 440.5 121 l 1,19,-1
EndSplineSet
EndChar
StartChar: j
Encoding: 106 106 106
Width: 686
Flags: W
Fore
321.679 1364 m 0,0,1
 335.845 1445 335.845 1445 395.506 1500.5 c 128,-1,2
 455.167 1556 455.167 1556 528.967 1556 c 0,3,4
 599.167 1556 599.167 1556 639.766 1500 c 0,5,6
 669.961 1458.35 669.961 1458.35 669.961 1403.44 c 0,7,8
 669.961 1384.51 669.961 1384.51 666.379 1364 c 0,9,10
 652.555 1285 652.555 1285 592.894 1229.5 c 0,11,12
 533.242 1174 533.242 1174 462.142 1174 c 0,13,14
 389.242 1174 389.242 1174 348.463 1229 c 0,15,16
 318.097 1269.95 318.097 1269.95 318.097 1324.75 c 0,17,18
 318.097 1343.56 318.097 1343.56 321.679 1364 c 0,0,1
284.752 942 m 1,19,-1
 148.852 942 l 1,20,-1
 170.02 1063 l 1,21,-1
 624.52 1063 l 1,22,-1
 416.692 -125 l 2,23,24
 388.171 -288 388.171 -288 269.614 -371.5 c 0,25,26
 151.057 -455 151.057 -455 -51.4434 -455 c 0,27,28
 -105.443 -455 -105.443 -455 -164.897 -445 c 0,29,30
 -224.342 -435 -224.342 -435 -286.721 -416 c 1,31,-1
 -247.184 -190 l 1,32,-1
 -145.655 -191 l 1,33,34
 -150.227 -220.99 -150.227 -220.99 -150.227 -244.72 c 0,35,36
 -150.227 -284.31 -150.227 -284.31 -137.51 -306.5 c 0,37,38
 -117.17 -342 -117.17 -342 -57.7695 -342 c 0,39,40
 7.92969 -342 7.92969 -342 42.2471 -295 c 0,41,42
 76.5732 -248 76.5732 -248 98.0918 -125 c 2,43,-1
 284.752 942 l 1,19,-1
EndSplineSet
EndChar
StartChar: k
Encoding: 107 107 107
Width: 1343
Flags: W
Fore
451.196 0 m 1,0,-1
 132.596 0 l 1,1,-1
 383.813 1436 l 1,2,-1
 247.913 1436 l 1,3,-1
 268.91 1556 l 1,4,-1
 723.41 1556 l 1,5,-1
 548.639 557 l 1,6,-1
 1002.09 942 l 1,7,-1
 887.795 942 l 1,8,-1
 908.963 1063 l 1,9,-1
 1168.16 1063 l 1,10,-1
 1147 942 l 1,11,-1
 857.357 696 l 1,12,-1
 1159.96 121 l 1,13,-1
 1263.46 121 l 1,14,-1
 1242.3 0 l 1,15,-1
 890.396 0 l 1,16,-1
 627.767 500 l 1,17,-1
 523.277 412 l 1,18,-1
 451.196 0 l 1,0,-1
EndSplineSet
KernsSLIFO: 45 -83 0 0
EndChar
StartChar: l
Encoding: 108 108 108
Width: 732
Flags: W
Fore
442.361 121 m 1,0,-1
 579.161 121 l 1,1,-1
 557.993 0 l 1,2,-1
 102.593 0 l 1,3,-1
 353.81 1436 l 1,4,-1
 217.91 1436 l 1,5,-1
 238.907 1556 l 1,6,-1
 693.407 1556 l 1,7,-1
 442.361 121 l 1,0,-1
EndSplineSet
EndChar
StartChar: m
Encoding: 109 109 109
Width: 2050
Flags: W
Fore
1286.32 889 m 1,0,1
 1371.46 995 1371.46 995 1457.34 1043.5 c 0,2,3
 1543.23 1092 1543.23 1092 1646.73 1092 c 0,4,5
 1811.43 1092 1811.43 1092 1874.77 988.5 c 0,6,7
 1914.93 922.88 1914.93 922.88 1914.93 814.84 c 0,8,9
 1914.93 752.48 1914.93 752.48 1901.56 676 c 2,10,-1
 1804.46 121 l 1,11,-1
 1941.26 121 l 1,12,-1
 1920.1 0 l 1,13,-1
 1464.7 0 l 1,14,-1
 1573.69 623 l 2,15,16
 1596.48 753.31 1596.48 753.31 1596.48 820.59 c 0,17,18
 1596.48 856.05 1596.48 856.05 1590.15 874 c 0,19,20
 1571.79 926 1571.79 926 1497.09 926 c 0,21,22
 1412.49 926 1412.49 926 1353.01 853.5 c 128,-1,23
 1293.53 781 1293.53 781 1270.08 647 c 2,24,-1
 1156.9 0 l 1,25,-1
 838.296 0 l 1,26,-1
 947.286 623 l 2,27,28
 969.885 752.21 969.885 752.21 969.885 819.45 c 0,29,30
 969.885 855.76 969.885 855.76 963.297 874 c 0,31,32
 944.487 926 944.487 926 870.687 926 c 0,33,34
 785.187 926 785.187 926 725.706 853.5 c 0,35,36
 666.225 781 666.225 781 642.78 647 c 2,37,-1
 529.596 0 l 1,38,-1
 210.996 0 l 1,39,-1
 375.795 942 l 1,40,-1
 239.896 942 l 1,41,-1
 261.054 1063 l 1,42,-1
 715.554 1063 l 1,43,-1
 689.319 913 l 1,44,45
 761.382 1006 761.382 1006 840.906 1049 c 0,46,47
 920.43 1092 920.43 1092 1019.43 1092 c 0,48,49
 1136.43 1092 1136.43 1092 1200.67 1042.5 c 128,-1,50
 1264.91 993 1264.91 993 1286.32 889 c 1,0,1
EndSplineSet
EndChar
StartChar: n
Encoding: 110 110 110
Width: 1406
Flags: W
Fore
177.096 0 m 1,0,-1
 341.896 942 l 1,1,-1
 205.995 942 l 1,2,-1
 227.154 1063 l 1,3,-1
 681.654 1063 l 1,4,-1
 655.419 913 l 1,5,6
 729.633 1008 729.633 1008 810.786 1050 c 0,7,8
 891.93 1092 891.93 1092 1004.43 1092 c 0,9,10
 1165.53 1092 1165.53 1092 1229.42 986.5 c 0,11,12
 1270.35 918.93 1270.35 918.93 1270.35 810.53 c 0,13,14
 1270.35 749.7 1270.35 749.7 1257.46 676 c 2,15,-1
 1160.36 121 l 1,16,-1
 1297.16 121 l 1,17,-1
 1276 0 l 1,18,-1
 820.596 0 l 1,19,-1
 940.602 686 l 2,20,21
 952.869 756.1 952.869 756.1 952.869 803.95 c 0,22,23
 952.869 848.26 952.869 848.26 942.357 873.5 c 0,24,25
 920.487 926 920.487 926 843.987 926 c 0,26,27
 747.687 926 747.687 926 688.953 847.5 c 0,28,29
 630.228 769 630.228 769 600.312 598 c 2,30,-1
 495.696 0 l 1,31,-1
 177.096 0 l 1,0,-1
EndSplineSet
EndChar
StartChar: o
Encoding: 111 111 111
Width: 1297
Flags: W
Fore
605.734 84 m 0,0,1
 706.534 84 706.534 84 764.278 180 c 0,2,3
 822.022 276 822.022 276 866.806 532 c 0,4,5
 896.047 699.18 896.047 699.18 896.047 797.91 c 0,6,7
 896.047 850.37 896.047 850.37 887.794 883.5 c 0,8,9
 863.998 979 863.998 979 762.298 979 c 128,-1,10
 660.598 979 660.598 979 602.323 882.5 c 0,11,12
 544.039 786 544.039 786 499.606 532 c 0,13,14
 470.932 368.11 470.932 368.11 470.932 269.58 c 0,15,16
 470.932 215.41 470.932 215.41 479.599 181 c 0,17,18
 504.034 84 504.034 84 605.734 84 c 0,0,1
585.961 -29 m 0,19,20
 333.061 -29 333.061 -29 215.665 120.5 c 0,21,22
 131.236 228.02 131.236 228.02 131.236 393.73 c 0,23,24
 131.236 458.43 131.236 458.43 144.106 532 c 0,25,26
 190.114 795 190.114 795 359.638 943.5 c 0,27,28
 529.171 1092 529.171 1092 782.071 1092 c 0,29,30
 1035.87 1092 1035.87 1092 1152.99 943.5 c 0,31,32
 1237.08 836.88 1237.08 836.88 1237.08 671.24 c 0,33,34
 1237.08 606.17 1237.08 606.17 1224.11 532 c 0,35,36
 1178.27 270 1178.27 270 1008.57 120.5 c 0,37,38
 838.861 -29 838.861 -29 585.961 -29 c 0,19,20
EndSplineSet
KernsSLIFO: 46 -36 0 0
EndChar
StartChar: p
Encoding: 112 112 112
Width: 1354
Flags: W
Fore
614.465 584 m 2,0,-1
 596.096 479 l 2,1,2
 578.672 379.4 578.672 379.4 578.672 309.34 c 0,3,4
 578.672 248.56 578.672 248.56 591.784 210 c 0,5,6
 620.018 127 620.018 127 715.418 127 c 0,7,8
 813.518 127 813.518 127 868.957 215 c 0,9,10
 924.406 303 924.406 303 964.466 532 c 0,11,12
 989.233 673.56 989.233 673.56 989.233 761.05 c 0,13,14
 989.233 815.09 989.233 815.09 979.783 848.5 c 0,15,16
 955.043 936 955.043 936 856.942 936 c 0,17,18
 761.543 936 761.543 936 704.275 853 c 0,19,20
 646.999 770 646.999 770 614.465 584 c 2,0,-1
358.495 942 m 1,21,-1
 221.695 942 l 1,22,-1
 242.863 1063 l 1,23,-1
 698.264 1063 l 1,24,-1
 674.647 928 l 1,25,26
 729.664 1011 729.664 1011 805.147 1051.5 c 0,27,28
 880.631 1092 880.631 1092 981.431 1092 c 0,29,30
 1185.73 1092 1185.73 1092 1277.03 942.5 c 0,31,32
 1337.89 842.84 1337.89 842.84 1337.89 693.64 c 0,33,34
 1337.89 619.02 1337.89 619.02 1322.67 532 c 0,35,36
 1277.01 271 1277.01 271 1133.31 121 c 0,37,38
 989.62 -29 989.62 -29 785.329 -29 c 0,39,40
 684.529 -29 684.529 -29 623.213 11.5 c 128,-1,41
 561.896 52 561.896 52 535.912 135 c 1,42,-1
 437.776 -426 l 1,43,-1
 119.177 -426 l 1,44,-1
 358.495 942 l 1,21,-1
EndSplineSet
EndChar
StartChar: q
Encoding: 113 113 113
Width: 1370
Flags: W
Fore
1297.82 942 m 1,0,-1
 1058.5 -426 l 1,1,-1
 739.9 -426 l 1,2,-1
 838.036 135 l 1,3,4
 783.019 52 783.019 52 707.086 11.5 c 128,-1,5
 631.153 -29 631.153 -29 530.353 -29 c 0,6,7
 326.953 -29 326.953 -29 236.638 121 c 0,8,9
 176.653 220.63 176.653 220.63 176.653 369.22 c 0,10,11
 176.653 444.35 176.653 444.35 191.989 532 c 0,12,13
 237.826 794 237.826 794 380.44 943 c 0,14,15
 523.054 1092 523.054 1092 726.454 1092 c 0,16,17
 827.254 1092 827.254 1092 889.021 1051.5 c 0,18,19
 950.788 1011 950.788 1011 976.771 928 c 1,20,-1
 1000.39 1063 l 1,21,-1
 1454.89 1063 l 1,22,-1
 1433.72 942 l 1,23,-1
 1297.82 942 l 1,0,-1
916.588 584 m 2,24,25
 933.886 682.86 933.886 682.86 933.886 752.63 c 0,26,27
 933.886 814.12 933.886 814.12 920.449 853 c 0,28,29
 891.766 936 891.766 936 797.266 936 c 0,30,31
 698.266 936 698.266 936 642.907 848.5 c 128,-1,32
 587.548 761 587.548 761 547.489 532 c 0,33,34
 522.865 391.22 522.865 391.22 522.865 303.73 c 0,35,36
 522.865 248.9 522.865 248.9 532.531 215 c 0,37,38
 557.641 127 557.641 127 655.741 127 c 0,39,40
 750.241 127 750.241 127 807.958 210 c 0,41,42
 865.675 293 865.675 293 898.219 479 c 2,43,-1
 916.588 584 l 2,24,25
EndSplineSet
EndChar
StartChar: r
Encoding: 114 114 114
Width: 1029
Flags: W
Fore
1148.43 1075 m 1,0,-1
 1092.97 758 l 1,1,-1
 991.274 758 l 1,2,3
 993.623 779.07 993.623 779.07 993.623 797.46 c 0,4,5
 993.623 853.28 993.623 853.28 972.005 884.5 c 0,6,7
 943.259 926 943.259 926 874.859 926 c 0,8,9
 770.459 926 770.459 926 692.321 824 c 0,10,11
 614.174 722 614.174 722 582.512 541 c 2,12,-1
 487.868 0 l 1,13,-1
 169.268 0 l 1,14,-1
 334.067 942 l 1,15,-1
 188.267 942 l 1,16,-1
 209.426 1063 l 1,17,-1
 673.826 1063 l 1,18,-1
 640.769 874 l 1,19,20
 706.982 985 706.982 985 793.292 1038.5 c 0,21,22
 879.602 1092 879.602 1092 991.202 1092 c 0,23,24
 1019.1 1092 1019.1 1092 1058.37 1087.5 c 0,25,26
 1097.63 1083 1097.63 1083 1148.43 1075 c 1,0,-1
EndSplineSet
KernsSLIFO: 8217 75 0 0 8216 75 0 0 8221 75 0 0 8220 75 0 0 46 -188 0 0 44 -149 0 0
EndChar
StartChar: s
Encoding: 115 115 115
Width: 1093
Flags: W
Fore
54.2998 31 m 1,0,-1
 106.257 328 l 1,1,-1
 207.957 328 l 1,2,3
 206.922 312.9 206.922 312.9 206.922 298.72 c 0,4,5
 206.922 201.07 206.922 201.07 256.305 146.5 c 0,6,7
 312.879 84 312.879 84 428.979 84 c 0,8,9
 526.179 84 526.179 84 584.481 121.5 c 0,10,11
 642.792 159 642.792 159 655.041 229 c 0,12,13
 658.344 247.9 658.344 247.9 658.344 264.26 c 0,14,15
 658.344 303.33 658.344 303.33 639.507 328 c 0,16,17
 612.786 363 612.786 363 522.831 389 c 2,18,-1
 397.902 426 l 2,19,20
 256.575 467 256.575 467 203.358 543.5 c 0,21,22
 166.08 597.1 166.08 597.1 166.08 676.95 c 0,23,24
 166.08 711.08 166.08 711.08 172.884 750 c 0,25,26
 203.151 923 203.151 923 325.929 1007.5 c 0,27,28
 448.716 1092 448.716 1092 673.716 1092 c 0,29,30
 758.316 1092 758.316 1092 851.457 1076.5 c 0,31,32
 944.589 1061 944.589 1061 1054.92 1028 c 1,33,-1
 1008.04 760 l 1,34,-1
 906.339 760 l 1,35,36
 908.247 778.98 908.247 778.98 908.247 796.32 c 0,37,38
 908.247 878.58 908.247 878.58 865.271 924 c 0,39,40
 813.243 979 813.243 979 698.043 979 c 0,41,42
 600.843 979 600.843 979 544.863 944.5 c 0,43,44
 488.874 910 488.874 910 477.327 844 c 0,45,46
 474.609 828.46 474.609 828.46 474.609 814.82 c 0,47,48
 474.609 781.08 474.609 781.08 491.259 759 c 0,49,50
 514.641 728 514.641 728 585.66 707 c 2,51,-1
 709.689 670 l 2,52,53
 888.519 617 888.519 617 946.875 539 c 0,54,55
 988.068 483.94 988.068 483.94 988.068 398.49 c 0,56,57
 988.068 362.89 988.068 362.89 980.913 322 c 0,58,59
 949.422 142 949.422 142 818.814 56.5 c 128,-1,60
 688.206 -29 688.206 -29 444.306 -29 c 0,61,62
 355.206 -29 355.206 -29 257.934 -14 c 0,63,64
 160.653 1 160.653 1 54.2998 31 c 1,0,-1
EndSplineSet
EndChar
StartChar: t
Encoding: 116 116 116
Width: 902
Flags: W
Fore
279.466 942 m 1,0,-1
 140.866 942 l 1,1,-1
 162.034 1063 l 1,2,-1
 300.634 1063 l 1,3,-1
 358.36 1393 l 1,4,-1
 676.96 1393 l 1,5,-1
 619.234 1063 l 1,6,-1
 884.734 1063 l 1,7,-1
 863.566 942 l 1,8,-1
 598.066 942 l 1,9,-1
 484.18 291 l 2,10,11
 468.682 202.44 468.682 202.44 468.682 156.51 c 0,12,13
 468.682 130.34 468.682 130.34 473.713 118 c 0,14,15
 487.564 84 487.564 84 539.764 84 c 0,16,17
 597.364 84 597.364 84 632.788 127 c 128,-1,18
 668.212 170 668.212 170 685.753 260 c 1,19,-1
 819.853 260 l 1,20,21
 783.763 100 783.763 100 701.827 35.5 c 0,22,23
 619.9 -29 619.9 -29 447.1 -29 c 0,24,25
 250 -29 250 -29 191.779 39.5 c 0,26,27
 154.222 83.7002 154.222 83.7002 154.222 175.55 c 0,28,29
 154.222 226.07 154.222 226.07 165.58 291 c 2,30,-1
 279.466 942 l 1,0,-1
EndSplineSet
EndChar
StartChar: u
Encoding: 117 117 117
Width: 1415
Flags: W
Fore
1311.9 1063 m 1,0,-1
 1147.11 121 l 1,1,-1
 1283.01 121 l 1,2,-1
 1261.85 0 l 1,3,-1
 806.446 0 l 1,4,-1
 832.681 150 l 1,5,6
 759.367 55 759.367 55 678.214 13 c 0,7,8
 597.07 -29 597.07 -29 484.57 -29 c 0,9,10
 323.47 -29 323.47 -29 259.579 76.5 c 0,11,12
 218.647 144.07 218.647 144.07 218.647 252.46 c 0,13,14
 218.647 313.3 218.647 313.3 231.544 387 c 2,15,-1
 328.636 942 l 1,16,-1
 191.836 942 l 1,17,-1
 213.004 1063 l 1,18,-1
 668.404 1063 l 1,19,-1
 559.765 442 l 2,20,21
 537.94 317.25 537.94 317.25 537.94 249.86 c 0,22,23
 537.94 210.29 537.94 210.29 545.464 190.5 c 0,24,25
 565.813 137 565.813 137 645.013 137 c 0,26,27
 741.313 137 741.313 137 799.678 216 c 0,28,29
 858.052 295 858.052 295 888.139 467 c 2,30,-1
 992.404 1063 l 1,31,-1
 1311.9 1063 l 1,0,-1
EndSplineSet
EndChar
StartChar: v
Encoding: 118 118 118
Width: 1140
Flags: W
Fore
381.526 0 m 1,0,-1
 207.016 942 l 1,1,-1
 101.716 942 l 1,2,-1
 122.884 1063 l 1,3,-1
 512.584 1063 l 1,4,-1
 659.158 270 l 1,5,-1
 1017.92 942 l 1,6,-1
 1039.08 1063 l 1,7,-1
 1162.38 1063 l 1,8,-1
 1141.22 942 l 1,9,-1
 637.126 0 l 1,10,-1
 381.526 0 l 1,0,-1
EndSplineSet
KernsSLIFO: 8217 75 0 0 8216 75 0 0 8221 75 0 0 8220 75 0 0 46 -206 0 0 44 -167 0 0
EndChar
StartChar: w
Encoding: 119 119 119
Width: 1685
Flags: W
Fore
1178.78 1063 m 1,0,-1
 1272.55 354 l 1,1,-1
 1555.42 942 l 1,2,-1
 1430.32 942 l 1,3,-1
 1451.48 1063 l 1,4,-1
 1696.28 1063 l 1,5,-1
 1675.12 942 l 1,6,-1
 1221.43 0 l 1,7,-1
 1001.83 0 l 1,8,-1
 915.84 666 l 1,9,-1
 595.026 0 l 1,10,-1
 377.226 0 l 1,11,-1
 252.216 942 l 1,12,-1
 147.816 942 l 1,13,-1
 168.984 1063 l 1,14,-1
 561.384 1063 l 1,15,-1
 652.923 367 l 1,16,-1
 988.884 1063 l 1,17,-1
 1178.78 1063 l 1,0,-1
EndSplineSet
KernsSLIFO: 8217 75 0 0 8216 75 0 0 8221 75 0 0 8220 75 0 0 46 -206 0 0 44 -167 0 0
EndChar
StartChar: x
Encoding: 120 120 120
Width: 1158
Flags: W
Fore
732.832 678 m 1,0,-1
 1046.78 1063 l 1,1,-1
 1175.48 1063 l 1,2,-1
 765.808 563 l 1,3,-1
 972.889 121 l 1,4,-1
 1099.79 121 l 1,5,-1
 1078.62 0 l 1,6,-1
 670.921 0 l 1,7,-1
 483.667 401 l 1,8,-1
 154.321 0 l 1,9,-1
 26.5215 0 l 1,10,-1
 448.342 518 l 1,11,-1
 248.011 942 l 1,12,-1
 140.911 942 l 1,13,-1
 162.079 1063 l 1,14,-1
 551.779 1063 l 1,15,-1
 732.832 678 l 1,0,-1
EndSplineSet
KernsSLIFO: 45 -36 0 0
EndChar
StartChar: y
Encoding: 121 121 121
Width: 1138
Flags: W
Fore
543.252 -240 m 2,0,1
 481.593 -355.59 481.593 -355.59 409.809 -406 c 0,2,3
 340.04 -455 340.04 -455 236.54 -455 c 0,4,5
 192.44 -455 192.44 -455 140.357 -444 c 0,6,7
 88.2832 -433 88.2832 -433 28.0557 -412 c 1,8,-1
 66.8994 -190 l 1,9,-1
 168.42 -191 l 1,10,11
 165.054 -215.08 165.054 -215.08 165.054 -235.24 c 0,12,13
 165.054 -279.57 165.054 -279.57 181.325 -305 c 0,14,15
 205.005 -342 205.005 -342 265.305 -342 c 0,16,17
 323.805 -342 323.805 -342 366.015 -306.5 c 0,18,19
 408.225 -271 408.225 -271 461.55 -172 c 1,20,-1
 482.421 -135 l 1,21,-1
 254.127 942 l 1,22,-1
 150.627 942 l 1,23,-1
 171.795 1063 l 1,24,-1
 562.395 1063 l 1,25,-1
 720.992 313 l 1,26,-1
 1122.19 1063 l 1,27,-1
 1238.29 1063 l 1,28,-1
 543.252 -240 l 2,0,1
EndSplineSet
KernsSLIFO: 8217 75 0 0 8216 75 0 0 8221 75 0 0 8220 75 0 0 46 -235 0 0 44 -196 0 0
EndChar
StartChar: z
Encoding: 122 122 122
Width: 1104
Flags: W
Fore
30.1211 0 m 1,0,-1
 51.2891 121 l 1,1,-1
 744.613 946 l 1,2,-1
 331.513 946 l 1,3,-1
 299.671 764 l 1,4,-1
 192.571 764 l 1,5,-1
 244.879 1063 l 1,6,-1
 1135.88 1063 l 1,7,-1
 1115.06 944 l 1,8,-1
 420.838 119 l 1,9,-1
 970.738 119 l 1,10,-1
 949.921 0 l 1,11,-1
 30.1211 0 l 1,0,-1
EndSplineSet
EndChar
StartChar: braceleft
Encoding: 123 123 123
Width: 1259
Flags: W
Fore
949.399 -213 m 1,0,-1
 928.231 -334 l 1,1,-1
 795.031 -334 l 2,2,3
 582.631 -334 582.631 -334 513.117 -309.5 c 128,-1,4
 443.603 -285 443.603 -285 409.449 -223 c 0,5,6
 389.647 -187 389.647 -187 388.019 -132 c 128,-1,7
 386.392 -77 386.392 -77 405.984 35 c 2,8,-1
 449.72 285 l 2,9,10
 476.136 436 476.136 436 438.045 493.5 c 128,-1,11
 399.955 551 399.955 551 273.055 551 c 2,12,-1
 218.154 551 l 1,13,-1
 239.322 672 l 1,14,-1
 294.223 672 l 2,15,16
 421.123 672 421.123 672 479.332 729.5 c 128,-1,17
 537.541 787 537.541 787 563.957 938 c 2,18,-1
 607.692 1188 l 2,19,20
 627.286 1300 627.286 1300 648.07 1354.5 c 128,-1,21
 668.854 1409 668.854 1409 701.429 1446 c 0,22,23
 757.1 1507 757.1 1507 835.186 1531.5 c 128,-1,24
 913.271 1556 913.271 1556 1125.67 1556 c 2,25,-1
 1258.87 1556 l 1,26,-1
 1237.88 1436 l 1,27,-1
 1145.18 1436 l 2,28,29
 1044.38 1436 1044.38 1436 999.259 1389 c 128,-1,30
 954.134 1342 954.134 1342 930.342 1206 c 2,31,-1
 883.108 936 l 2,32,33
 855.293 777 855.293 777 798.933 709.5 c 128,-1,34
 742.574 642 742.574 642 621.226 612 c 1,35,36
 733.178 578 733.178 578 765.281 512 c 128,-1,37
 797.387 446 797.387 446 769.57 287 c 2,38,-1
 722.161 16 l 2,39,40
 698.544 -119 698.544 -119 727.222 -166 c 128,-1,41
 755.899 -213 755.899 -213 856.699 -213 c 2,42,-1
 949.399 -213 l 1,0,-1
EndSplineSet
EndChar
StartChar: bar
Encoding: 124 124 124
Width: 707
Flags: W
Fore
468.25 1565 m 1,0,-1
 468.25 -483 l 1,1,-1
 274.75 -483 l 1,2,-1
 274.75 1565 l 1,3,-1
 468.25 1565 l 1,0,-1
EndSplineSet
EndChar
StartChar: braceright
Encoding: 125 125 125
Width: 1243
Flags: W
Fore
81.2061 -213 m 1,0,-1
 172.106 -213 l 2,1,2
 272.007 -213 272.007 -213 317.579 -166 c 128,-1,3
 363.151 -119 363.151 -119 386.769 16 c 2,4,-1
 434.178 287 l 2,5,6
 461.643 444 461.643 444 517.464 511 c 128,-1,7
 573.285 578 573.285 578 698.033 612 c 1,8,9
 586.281 642 586.281 642 553.177 710 c 128,-1,10
 520.074 778 520.074 778 547.715 936 c 2,11,-1
 594.949 1206 l 2,12,13
 618.741 1342 618.741 1342 589.613 1389 c 128,-1,14
 560.485 1436 560.485 1436 460.585 1436 c 2,15,-1
 369.686 1436 l 1,16,-1
 390.679 1556 l 1,17,-1
 522.079 1556 l 2,18,19
 734.479 1556 734.479 1556 803.993 1531.5 c 128,-1,20
 873.507 1507 873.507 1507 907.836 1446 c 0,21,22
 927.462 1409 927.462 1409 929.178 1354.5 c 128,-1,23
 930.894 1300 930.894 1300 911.3 1188 c 2,24,-1
 867.564 938 l 2,25,26
 841.148 787 841.148 787 879.239 729.5 c 128,-1,27
 917.33 672 917.33 672 1043.33 672 c 2,28,-1
 1099.13 672 l 1,29,-1
 1077.96 551 l 1,30,-1
 1022.16 551 l 2,31,32
 896.162 551 896.162 551 837.952 493.5 c 128,-1,33
 779.743 436 779.743 436 753.327 285 c 2,34,-1
 709.592 35 l 2,35,36
 689.999 -77 689.999 -77 669.126 -132 c 128,-1,37
 648.255 -187 648.255 -187 615.856 -223 c 0,38,39
 560.01 -285 560.01 -285 481.924 -309.5 c 128,-1,40
 403.839 -334 403.839 -334 191.438 -334 c 2,41,-1
 60.0381 -334 l 1,42,-1
 81.2061 -213 l 1,0,-1
EndSplineSet
EndChar
StartChar: asciitilde
Encoding: 126 126 126
Width: 1630
Flags: W
Fore
1434.9 831 m 1,0,-1
 1434.9 625 l 1,1,2
 1351.2 539 1351.2 539 1267.05 498 c 128,-1,3
 1182.9 457 1182.9 457 1092 457 c 0,4,5
 1006.5 457 1006.5 457 869.7 515 c 0,6,7
 854.4 521 854.4 521 847.2 524 c 0,8,9
 840.9 527 840.9 527 829.2 532 c 0,10,11
 674.4 598 674.4 598 587.1 598 c 0,12,13
 517.8 598 517.8 598 442.65 562 c 128,-1,14
 367.5 526 367.5 526 281.1 453 c 1,15,-1
 281.1 659 l 1,16,17
 367.5 746 367.5 746 450.75 786.5 c 128,-1,18
 534 827 534 827 624 827 c 0,19,20
 709.5 827 709.5 827 845.4 770 c 0,21,22
 861.6 763 861.6 763 868.8 760 c 2,23,-1
 882.3 754 l 2,24,25
 1038 686 1038 686 1128.9 686 c 0,26,27
 1198.2 686 1198.2 686 1273.35 722 c 128,-1,28
 1348.5 758 1348.5 758 1434.9 831 c 1,0,-1
EndSplineSet
EndChar
StartChar: exclamdown
Encoding: 161 161 161
Width: 852
Flags: W
Fore
718.027 1329 m 0,0,1
 704.381 1251 704.381 1251 644.359 1196 c 128,-1,2
 584.338 1141 584.338 1141 514.138 1141 c 0,3,4
 443.038 1141 443.038 1141 403.16 1196 c 128,-1,5
 363.28 1251 363.28 1251 376.928 1329 c 0,6,7
 390.747 1408 390.747 1408 450.494 1464 c 128,-1,8
 510.241 1520 510.241 1520 580.44 1520 c 0,9,10
 650.641 1520 650.641 1520 691.156 1463.5 c 128,-1,11
 731.672 1407 731.672 1407 718.027 1329 c 0,0,1
483.729 0 m 1,12,-1
 146.229 0 l 1,13,-1
 398.83 842 l 1,14,-1
 432.068 1032 l 1,15,-1
 557.169 1032 l 1,16,-1
 523.93 842 l 1,17,-1
 483.729 0 l 1,12,-1
EndSplineSet
EndChar
StartChar: cent
Encoding: 162 162 162
Width: 1354
Flags: W
Fore
660.935 94 m 1,0,-1
 814.01 969 l 1,1,2
 720.535 944 720.535 944 663.803 843.5 c 128,-1,3
 607.071 743 607.071 743 570.16 532 c 0,4,5
 533.246 321 533.246 321 554.453 221 c 128,-1,6
 575.658 121 575.658 121 660.935 94 c 1,0,-1
1147.17 332 m 1,7,8
 1090.91 175 1090.91 175 990.198 85.5 c 128,-1,9
 889.489 -4 889.489 -4 749.366 -23 c 1,10,-1
 701.082 -299 l 1,11,-1
 592.182 -299 l 1,12,-1
 639.417 -29 l 1,13,14
 391.166 -23 391.166 -23 280.896 123.5 c 128,-1,15
 170.625 270 170.625 270 216.46 532 c 0,16,17
 262.294 794 262.294 794 423.648 939.5 c 128,-1,18
 585.003 1085 585.003 1085 835.526 1092 c 1,19,-1
 881.712 1356 l 1,20,-1
 990.612 1356 l 1,21,-1
 943.553 1087 l 1,22,23
 995.949 1083 995.949 1083 1065.08 1064 c 128,-1,24
 1134.21 1045 1134.21 1045 1233.94 1008 c 1,25,-1
 1182.32 713 l 1,26,-1
 1080.62 713 l 1,27,28
 1089.17 839 1089.17 839 1050.95 903.5 c 128,-1,29
 1012.73 968 1012.73 968 924.658 979 c 1,30,-1
 768.784 88 l 1,31,32
 853.483 104 853.483 104 910.956 165 c 128,-1,33
 968.427 226 968.427 226 997.767 332 c 1,34,-1
 1147.17 332 l 1,7,8
EndSplineSet
EndChar
StartChar: sterling
Encoding: 163 163 163
Width: 1351
Flags: W
Fore
1268.99 1202 m 1,0,-1
 1160.99 1202 l 1,1,2
 1172.55 1299 1172.55 1299 1137.45 1353 c 128,-1,3
 1102.34 1407 1102.34 1407 1026.74 1407 c 0,4,5
 921.447 1407 921.447 1407 862.515 1332.5 c 128,-1,6
 803.582 1258 803.582 1258 772.967 1083 c 2,7,-1
 726.082 815 l 1,8,-1
 1042.88 815 l 1,9,-1
 1021.71 694 l 1,10,-1
 704.914 694 l 1,11,-1
 607.471 137 l 1,12,-1
 985.47 137 l 1,13,-1
 1025.36 365 l 1,14,-1
 1148.66 365 l 1,15,-1
 1084.8 0 l 1,16,-1
 68.7031 0 l 1,17,-1
 89.8721 121 l 1,18,-1
 263.572 121 l 1,19,-1
 363.813 694 l 1,20,-1
 190.114 694 l 1,21,-1
 211.282 815 l 1,22,-1
 384.982 815 l 1,23,-1
 433.44 1092 l 2,24,25
 471.229 1308 471.229 1308 609.923 1414 c 128,-1,26
 748.616 1520 748.616 1520 995.217 1520 c 0,27,28
 1053.72 1520 1053.72 1520 1133.59 1511 c 128,-1,29
 1213.47 1502 1213.47 1502 1318.5 1485 c 1,30,-1
 1268.99 1202 l 1,0,-1
EndSplineSet
EndChar
StartChar: currency
Encoding: 164 164 164
Width: 1238
Flags: W
Fore
653.05 422 m 0,0,1
 734.95 422 734.95 422 792.55 485.5 c 128,-1,2
 850.15 549 850.15 549 850.15 641 c 0,3,4
 850.15 733 850.15 733 793 796.5 c 128,-1,5
 735.85 860 735.85 860 653.05 860 c 0,6,7
 571.15 860 571.15 860 513.55 796.5 c 128,-1,8
 455.95 733 455.95 733 455.95 641 c 0,9,10
 455.95 548 455.95 548 512.65 485 c 128,-1,11
 569.35 422 569.35 422 653.05 422 c 0,0,1
457.75 268 m 1,12,-1
 269.65 61 l 1,13,-1
 133.75 215 l 1,14,-1
 321.85 424 l 1,15,16
 293.95 470 293.95 470 280.9 523.5 c 128,-1,17
 267.85 577 267.85 577 267.85 641 c 0,18,19
 267.85 704 267.85 704 281.35 758 c 128,-1,20
 294.85 812 294.85 812 321.85 858 c 1,21,-1
 133.75 1063 l 1,22,-1
 271.45 1221 l 1,23,-1
 457.75 1010 l 1,24,25
 500.95 1040 500.95 1040 549.55 1054.5 c 128,-1,26
 598.15 1069 598.15 1069 653.05 1069 c 0,27,28
 702.55 1069 702.55 1069 751.6 1054.5 c 128,-1,29
 800.65 1040 800.65 1040 851.95 1010 c 1,30,-1
 1036.45 1221 l 1,31,-1
 1173.25 1067 l 1,32,-1
 985.15 862 l 1,33,34
 1012.15 806 1012.15 806 1025.2 750.5 c 128,-1,35
 1038.25 695 1038.25 695 1038.25 641 c 0,36,37
 1038.25 578 1038.25 578 1025.2 525.5 c 128,-1,38
 1012.15 473 1012.15 473 985.15 426 c 1,39,-1
 1173.25 215 l 1,40,-1
 1032.85 61 l 1,41,-1
 846.55 272 l 1,42,43
 805.15 242 805.15 242 757.45 227.5 c 128,-1,44
 709.75 213 709.75 213 653.05 213 c 0,45,46
 600.85 213 600.85 213 552.25 227 c 128,-1,47
 503.65 241 503.65 241 457.75 268 c 1,12,-1
EndSplineSet
EndChar
StartChar: yen
Encoding: 165 165 165
Width: 1360
Flags: W
Fore
241.095 0 m 1,0,-1
 262.262 121 l 1,1,-1
 433.262 121 l 1,2,-1
 493.792 467 l 1,3,-1
 131.093 467 l 1,4,-1
 151.561 584 l 1,5,-1
 514.26 584 l 1,6,-1
 524.582 643 l 1,7,-1
 493.299 778 l 1,8,-1
 185.499 778 l 1,9,-1
 205.967 895 l 1,10,-1
 463.367 895 l 1,11,-1
 346.115 1372 l 1,12,-1
 222.815 1372 l 1,13,-1
 243.982 1493 l 1,14,-1
 868.582 1493 l 1,15,-1
 847.415 1372 l 1,16,-1
 694.415 1372 l 1,17,-1
 830.222 821 l 1,18,-1
 1157.01 1372 l 1,19,-1
 1021.11 1372 l 1,20,-1
 1042.28 1493 l 1,21,-1
 1434.68 1493 l 1,22,-1
 1413.51 1372 l 1,23,-1
 1292.01 1372 l 1,24,-1
 1009.67 895 l 1,25,-1
 1272.47 895 l 1,26,-1
 1252 778 l 1,27,-1
 936.999 778 l 1,28,-1
 869.006 662 l 1,29,-1
 855.36 584 l 1,30,-1
 1218.06 584 l 1,31,-1
 1197.59 467 l 1,32,-1
 834.893 467 l 1,33,-1
 774.362 121 l 1,34,-1
 945.362 121 l 1,35,-1
 924.195 0 l 1,36,-1
 241.095 0 l 1,0,-1
EndSplineSet
EndChar
StartChar: brokenbar
Encoding: 166 166 166
Width: 707
Flags: W
Fore
468.25 1432 m 1,0,-1
 468.25 674 l 1,1,-1
 274.75 674 l 1,2,-1
 274.75 1432 l 1,3,-1
 468.25 1432 l 1,0,-1
468.25 408 m 1,4,-1
 468.25 -350 l 1,5,-1
 274.75 -350 l 1,6,-1
 274.75 408 l 1,7,-1
 468.25 408 l 1,4,-1
EndSplineSet
EndChar
StartChar: section
Encoding: 167 167 167
Width: 1016
Flags: W
Fore
1002.09 1475 m 1,0,-1
 960.102 1235 l 1,1,-1
 853.005 1235 l 1,2,3
 862.649 1321 862.649 1321 823.371 1364 c 128,-1,4
 784.094 1407 784.094 1407 696.794 1407 c 0,5,6
 623.895 1407 623.895 1407 576.472 1370 c 128,-1,7
 529.049 1333 529.049 1333 517.328 1266 c 0,8,9
 509.105 1219 509.105 1219 527.632 1186 c 128,-1,10
 546.159 1153 546.159 1153 618.938 1106 c 2,11,-1
 727.841 1034 l 1,12,13
 880.797 936 880.797 936 929.552 852 c 128,-1,14
 978.309 768 978.309 768 958.185 653 c 0,15,16
 939.994 549 939.994 549 875.748 475 c 128,-1,17
 811.503 401 811.503 401 701.381 358 c 1,18,19
 767.858 311 767.858 311 791.398 247.5 c 128,-1,20
 814.939 184 814.939 184 799.195 94 c 0,21,22
 775.228 -43 775.228 -43 663.833 -119 c 128,-1,23
 552.437 -195 552.437 -195 372.437 -195 c 0,24,25
 297.737 -195 297.737 -195 218.3 -183.5 c 128,-1,26
 138.861 -172 138.861 -172 50.9092 -150 c 1,27,-1
 92.8945 90 l 1,28,-1
 199.095 90 l 1,29,30
 190.551 0 190.551 0 230.179 -41 c 128,-1,31
 269.806 -82 269.806 -82 365.205 -82 c 0,32,33
 443.506 -82 443.506 -82 491.828 -45 c 128,-1,34
 540.151 -8 540.151 -8 552.222 61 c 0,35,36
 560.444 108 560.444 108 542.368 141 c 128,-1,37
 524.29 174 524.29 174 450.612 221 c 2,38,-1
 341.709 293 l 2,39,40
 189.828 392 189.828 392 140.623 476 c 128,-1,41
 91.418 560 91.418 560 111.361 674 c 0,42,43
 129.381 777 129.381 777 193.901 850 c 128,-1,44
 258.422 923 258.422 923 369.619 967 c 1,45,46
 302.967 1013 302.967 1013 278.701 1077.5 c 128,-1,47
 254.435 1142 254.435 1142 270.004 1231 c 0,48,49
 293.797 1367 293.797 1367 405.279 1443.5 c 128,-1,50
 516.763 1520 516.763 1520 693.163 1520 c 0,51,52
 759.763 1520 759.763 1520 836.051 1508.5 c 128,-1,53
 912.339 1497 912.339 1497 1002.09 1475 c 1,0,-1
449.873 901 m 1,54,55
 404.5 868 404.5 868 376.978 829 c 128,-1,56
 349.454 790 349.454 790 341.582 745 c 0,57,58
 330.911 684 330.911 684 362.939 633 c 128,-1,59
 394.968 582 394.968 582 483.82 524 c 2,60,-1
 619.626 436 l 1,61,62
 666.248 471 666.248 471 694.309 510.5 c 128,-1,63
 722.369 550 722.369 550 729.716 592 c 0,64,65
 740.213 652 740.213 652 707.284 703 c 128,-1,66
 674.357 754 674.357 754 583.879 813 c 2,67,-1
 449.873 901 l 1,54,55
EndSplineSet
EndChar
StartChar: dieresis
Encoding: 168 168 168
Width: 992
Flags: W
Fore
372.118 1468 m 0,0,1
 382.919 1528 382.919 1528 429.719 1571 c 128,-1,2
 476.519 1614 476.519 1614 530.519 1614 c 128,-1,3
 584.519 1614 584.519 1614 616.019 1571 c 0,4,5
 646.618 1528 646.618 1528 635.818 1468 c 128,-1,6
 625.019 1408 625.019 1408 579.118 1364 c 0,7,8
 533.219 1321 533.219 1321 480.118 1321 c 0,9,10
 426.118 1321 426.118 1321 393.719 1365 c 0,11,12
 362.219 1409 362.219 1409 372.118 1468 c 0,0,1
774.419 1468 m 0,13,14
 785.219 1528 785.219 1528 832.019 1571 c 0,15,16
 877.918 1614 877.918 1614 931.919 1614 c 128,-1,17
 985.918 1614 985.918 1614 1018.32 1571 c 128,-1,18
 1050.72 1528 1050.72 1528 1039.92 1468 c 0,19,20
 1030.02 1409 1030.02 1409 982.318 1365 c 0,21,22
 935.519 1321 935.519 1321 881.519 1321 c 128,-1,23
 827.519 1321 827.519 1321 796.019 1365 c 128,-1,24
 764.519 1409 764.519 1409 774.419 1468 c 0,13,14
EndSplineSet
LCarets: 0 65535 '    ' 1 0 
Ligature: 0 1 'liga' space uni0308
EndChar
StartChar: copyright
Encoding: 169 169 169
Width: 1945
Flags: W
Fore
1024 1485 m 0,0,1
 1160.8 1485 1160.8 1485 1279.15 1430 c 128,-1,2
 1397.5 1375 1397.5 1375 1495.6 1266 c 0,3,4
 1593.7 1157 1593.7 1157 1642.3 1026 c 128,-1,5
 1690.9 895 1690.9 895 1690.9 741 c 0,6,7
 1690.9 589 1690.9 589 1642.3 458.5 c 128,-1,8
 1593.7 328 1593.7 328 1495.6 219 c 0,9,10
 1397.5 110 1397.5 110 1279.15 55 c 128,-1,11
 1160.8 0 1160.8 0 1024 0 c 0,12,13
 887.2 0 887.2 0 768.85 55 c 128,-1,14
 650.5 110 650.5 110 552.4 219 c 0,15,16
 454.3 328 454.3 328 405.7 458.5 c 128,-1,17
 357.1 589 357.1 589 357.1 741 c 0,18,19
 357.1 895 357.1 895 405.7 1026 c 128,-1,20
 454.3 1157 454.3 1157 552.4 1266 c 0,21,22
 650.5 1375 650.5 1375 768.85 1430 c 128,-1,23
 887.2 1485 887.2 1485 1024 1485 c 0,0,1
1024 1331 m 0,24,25
 915.1 1331 915.1 1331 821.5 1287.5 c 128,-1,26
 727.9 1244 727.9 1244 649.6 1157 c 0,27,28
 572.2 1071 572.2 1071 533.5 967.5 c 128,-1,29
 494.8 864 494.8 864 494.8 741 c 0,30,31
 494.8 619 494.8 619 533.5 515.5 c 128,-1,32
 572.2 412 572.2 412 649.6 326 c 0,33,34
 727 240 727 240 821.05 197 c 128,-1,35
 915.1 154 915.1 154 1024 154 c 0,36,37
 1134.7 154 1134.7 154 1227.4 196.5 c 128,-1,38
 1320.1 239 1320.1 239 1398.4 326 c 0,39,40
 1475.8 412 1475.8 412 1514.5 515.5 c 128,-1,41
 1553.2 619 1553.2 619 1553.2 741 c 0,42,43
 1553.2 864 1553.2 864 1514.5 967.5 c 128,-1,44
 1475.8 1071 1475.8 1071 1398.4 1157 c 0,45,46
 1319.2 1245 1319.2 1245 1226.05 1288 c 128,-1,47
 1132.9 1331 1132.9 1331 1024 1331 c 0,24,25
1354.3 580 m 1,48,49
 1330 441 1330 441 1247.65 371 c 128,-1,50
 1165.3 301 1165.3 301 1025.8 301 c 0,51,52
 856.6 301 856.6 301 752.2 422 c 128,-1,53
 647.8 543 647.8 543 647.8 741 c 0,54,55
 647.8 943 647.8 943 753.1 1063.5 c 128,-1,56
 858.4 1184 858.4 1184 1034.8 1184 c 0,57,58
 1105.9 1184 1105.9 1184 1177.9 1165.5 c 128,-1,59
 1249.9 1147 1249.9 1147 1328.2 1108 c 1,60,-1
 1328.2 885 l 1,61,-1
 1233.7 885 l 1,62,63
 1222.9 979 1222.9 979 1175.65 1032 c 128,-1,64
 1128.4 1085 1128.4 1085 1055.5 1085 c 0,65,66
 961.9 1085 961.9 1085 908.35 993.5 c 128,-1,67
 854.8 902 854.8 902 854.8 741 c 0,68,69
 854.8 580 854.8 580 907.9 489.5 c 128,-1,70
 961 399 961 399 1055.5 399 c 0,71,72
 1121.2 399 1121.2 399 1165.3 445 c 128,-1,73
 1209.4 491 1209.4 491 1230.1 580 c 1,74,-1
 1354.3 580 l 1,48,49
EndSplineSet
EndChar
StartChar: ordfeminine
Encoding: 170 170 170
Width: 944
Flags: W
Fore
641.05 1136 m 2,0,-1
 652.597 1202 l 2,1,2
 660.201 1245.5 660.201 1245.5 660.201 1280.98 c 0,3,4
 660.201 1336.85 660.201 1336.85 641.338 1372.82 c 0,5,6
 616.633 1420.31 616.633 1420.31 566.943 1420.31 c 0,7,8
 554.794 1420.31 554.794 1420.31 541.149 1417.47 c 0,9,10
 473.073 1403.3 473.073 1403.3 418.21 1318.88 c 0,11,12
 363.354 1234.45 363.354 1234.45 340.936 1106.3 c 0,13,14
 331.018 1049.62 331.018 1049.62 331.018 1004.79 c 0,15,16
 331.018 948.27 331.018 948.27 346.785 910.6 c 0,17,18
 370.158 854.77 370.158 854.77 420.729 854.77 c 0,19,20
 431.331 854.77 431.331 854.77 443.14 857.23 c 0,21,22
 512.583 871.68 512.583 871.68 566.962 947.66 c 0,23,24
 621.456 1024 621.456 1024 641.05 1136 c 2,0,-1
578.599 779 m 17,25,-1
 601.161 908 l 1,26,27
 560.293 839 560.293 839 504.951 795.83 c 0,28,29
 450.024 752.7 450.024 752.7 388.141 739.82 c 0,30,31
 357.1 733.35 357.1 733.35 330.217 733.35 c 0,32,33
 243.385 733.35 243.385 733.35 200.031 800.79 c 0,34,35
 163.707 857.29 163.707 857.29 163.707 952.43 c 0,36,37
 163.707 1006 163.707 1006 175.219 1071.81 c 0,38,39
 207.178 1254.52 207.178 1254.52 300.237 1373.59 c 0,40,41
 393.288 1492.67 393.288 1492.67 524.625 1520 c 0,42,43
 547.054 1524.67 547.054 1524.67 567.043 1524.67 c 0,44,45
 602.241 1524.67 602.241 1524.67 629.926 1510.21 c 0,46,47
 673.827 1488 673.827 1488 692.836 1432 c 1,48,-1
 708.405 1521 l 1,49,-1
 853.306 1521 l 1,50,-1
 749.733 929 l 1,51,-1
 853.233 929 l 25,52,-1
 826.998 779 l 25,53,-1
 578.599 779 l 17,25,-1
81.6006 639 m 1,54,-1
 799.801 639 l 1,55,-1
 776.185 504 l 1,56,-1
 57.9844 504 l 1,57,-1
 81.6006 639 l 1,54,-1
EndSplineSet
EndChar
StartChar: guillemotleft
Encoding: 171 171 171
Width: 1217
Flags: W
Fore
1126.34 1069 m 1,0,-1
 1100.62 922 l 1,1,-1
 829.191 600 l 1,2,-1
 988.132 279 l 1,3,-1
 962.244 131 l 1,4,-1
 607.496 516 l 1,5,-1
 636.887 684 l 1,6,-1
 1126.34 1069 l 1,0,-1
712.339 1069 m 1,7,-1
 686.623 922 l 1,8,-1
 414.292 600 l 1,9,-1
 574.135 279 l 1,10,-1
 548.244 131 l 1,11,-1
 193.496 516 l 1,12,-1
 222.887 684 l 1,13,-1
 712.339 1069 l 1,7,-1
EndSplineSet
KernsSLIFO: 356 -149 0 0 84 -149 0 0 74 -73 0 0
EndChar
StartChar: logicalnot
Encoding: 172 172 172
Width: 1633
Flags: W
Fore
281.1 903 m 1,0,-1
 1434.9 903 l 1,1,-1
 1434.9 287 l 1,2,-1
 1228.8 287 l 1,3,-1
 1228.8 676 l 1,4,-1
 281.1 676 l 1,5,-1
 281.1 903 l 1,0,-1
EndSplineSet
EndChar
StartChar: sfthyphen
Encoding: 173 173 173
Width: 807
Flags: W
Fore
166.017 684 m 1,0,-1
 731.217 684 l 1,1,-1
 683.983 414 l 1,2,-1
 118.783 414 l 1,3,-1
 166.017 684 l 1,0,-1
EndSplineSet
EndChar
StartChar: registered
Encoding: 174 174 174
Width: 1945
Flags: W
Fore
1151.8 754 m 1,0,1
 1186.9 743 1186.9 743 1213.9 716.5 c 128,-1,2
 1240.9 690 1240.9 690 1258 649 c 2,3,-1
 1348 434 l 1,4,-1
 1402 434 l 1,5,-1
 1402 352 l 1,6,-1
 1201.3 352 l 1,7,-1
 1096 606 l 1,8,9
 1067.2 674 1067.2 674 1040.65 695.5 c 128,-1,10
 1014.1 717 1014.1 717 964.6 717 c 2,11,-1
 941.2 717 l 1,12,-1
 941.2 434 l 1,13,-1
 1018.6 434 l 1,14,-1
 1018.6 352 l 1,15,-1
 686.5 352 l 1,16,-1
 686.5 434 l 1,17,-1
 763.9 434 l 1,18,-1
 763.9 1077 l 1,19,-1
 686.5 1077 l 1,20,-1
 686.5 1159 l 1,21,-1
 1094.2 1159 l 2,22,23
 1202.2 1159 1202.2 1159 1264.3 1104 c 128,-1,24
 1326.4 1049 1326.4 1049 1326.4 954 c 0,25,26
 1326.4 865 1326.4 865 1281.85 814 c 128,-1,27
 1237.3 763 1237.3 763 1151.8 754 c 1,0,1
941.2 799 m 1,28,-1
 1001.5 799 l 2,29,30
 1072.6 799 1072.6 799 1110.85 835 c 128,-1,31
 1149.1 871 1149.1 871 1149.1 938 c 0,32,33
 1149.1 1005 1149.1 1005 1110.85 1041 c 128,-1,34
 1072.6 1077 1072.6 1077 1001.5 1077 c 2,35,-1
 941.2 1077 l 1,36,-1
 941.2 799 l 1,28,-1
1024 1485 m 0,37,38
 1160.8 1485 1160.8 1485 1279.15 1430 c 128,-1,39
 1397.5 1375 1397.5 1375 1495.6 1266 c 0,40,41
 1593.7 1157 1593.7 1157 1642.3 1026 c 128,-1,42
 1690.9 895 1690.9 895 1690.9 741 c 0,43,44
 1690.9 589 1690.9 589 1642.3 458.5 c 128,-1,45
 1593.7 328 1593.7 328 1495.6 219 c 0,46,47
 1397.5 110 1397.5 110 1279.15 55 c 128,-1,48
 1160.8 0 1160.8 0 1024 0 c 0,49,50
 887.2 0 887.2 0 768.85 55 c 128,-1,51
 650.5 110 650.5 110 552.4 219 c 0,52,53
 454.3 328 454.3 328 405.7 458.5 c 128,-1,54
 357.1 589 357.1 589 357.1 741 c 0,55,56
 357.1 895 357.1 895 405.7 1026 c 128,-1,57
 454.3 1157 454.3 1157 552.4 1266 c 0,58,59
 650.5 1375 650.5 1375 768.85 1430 c 128,-1,60
 887.2 1485 887.2 1485 1024 1485 c 0,37,38
1024 1331 m 0,61,62
 915.1 1331 915.1 1331 821.5 1287.5 c 128,-1,63
 727.9 1244 727.9 1244 649.6 1157 c 0,64,65
 572.2 1071 572.2 1071 533.5 967.5 c 128,-1,66
 494.8 864 494.8 864 494.8 741 c 0,67,68
 494.8 619 494.8 619 533.5 515.5 c 128,-1,69
 572.2 412 572.2 412 649.6 326 c 0,70,71
 727 240 727 240 821.05 197 c 128,-1,72
 915.1 154 915.1 154 1024 154 c 0,73,74
 1134.7 154 1134.7 154 1227.4 196.5 c 128,-1,75
 1320.1 239 1320.1 239 1398.4 326 c 0,76,77
 1475.8 412 1475.8 412 1514.5 515.5 c 128,-1,78
 1553.2 619 1553.2 619 1553.2 741 c 0,79,80
 1553.2 864 1553.2 864 1514.5 967.5 c 128,-1,81
 1475.8 1071 1475.8 1071 1398.4 1157 c 0,82,83
 1319.2 1245 1319.2 1245 1226.05 1288 c 128,-1,84
 1132.9 1331 1132.9 1331 1024 1331 c 0,61,62
EndSplineSet
EndChar
StartChar: macron
Encoding: 175 175 175
Width: 986
Flags: W
Fore
384.7 1548 m 1,0,-1
 951.7 1548 l 1,1,-1
 919.3 1360 l 1,2,-1
 352.3 1360 l 1,3,-1
 384.7 1548 l 1,0,-1
EndSplineSet
LCarets: 0 65535 '    ' 1 0 
Ligature: 0 1 'liga' space uni0304
EndChar
StartChar: degree
Encoding: 176 176 176
Width: 972
Flags: W
Fore
511.9 1534 m 0,0,1
 571.3 1534 571.3 1534 626.2 1508.5 c 128,-1,2
 681.1 1483 681.1 1483 724.3 1436 c 1,3,4
 766.6 1388 766.6 1388 788.65 1328 c 128,-1,5
 810.7 1268 810.7 1268 810.7 1200 c 0,6,7
 810.7 1133 810.7 1133 788.65 1072.5 c 128,-1,8
 766.6 1012 766.6 1012 726.1 967 c 0,9,10
 682.9 919 682.9 919 627.1 893.5 c 128,-1,11
 571.3 868 571.3 868 510.1 868 c 0,12,13
 383.2 868 383.2 868 297.25 963.5 c 128,-1,14
 211.3 1059 211.3 1059 211.3 1200 c 0,15,16
 211.3 1341 211.3 1341 298.15 1437.5 c 128,-1,17
 385 1534 385 1534 511.9 1534 c 0,0,1
511.9 1372 m 0,18,19
 447.1 1372 447.1 1372 402.1 1322 c 128,-1,20
 357.1 1272 357.1 1272 357.1 1200 c 0,21,22
 357.1 1128 357.1 1128 401.65 1079 c 128,-1,23
 446.2 1030 446.2 1030 511.9 1030 c 0,24,25
 576.7 1030 576.7 1030 621.7 1079.5 c 128,-1,26
 666.7 1129 666.7 1129 666.7 1200 c 0,27,28
 666.7 1272 666.7 1272 621.25 1322 c 128,-1,29
 575.8 1372 575.8 1372 511.9 1372 c 0,18,19
EndSplineSet
EndChar
StartChar: plusminus
Encoding: 177 177 177
Width: 1626
Flags: W
Fore
281.1 227 m 1,0,-1
 1434.9 227 l 1,1,-1
 1434.9 0 l 1,2,-1
 281.1 0 l 1,3,-1
 281.1 227 l 1,0,-1
961.5 1284 m 1,4,-1
 961.5 926 l 1,5,-1
 1434.9 926 l 1,6,-1
 1434.9 698 l 1,7,-1
 961.5 698 l 1,8,-1
 961.5 340 l 1,9,-1
 754.5 340 l 1,10,-1
 754.5 698 l 1,11,-1
 281.1 698 l 1,12,-1
 281.1 926 l 1,13,-1
 754.5 926 l 1,14,-1
 754.5 1284 l 1,15,-1
 961.5 1284 l 1,4,-1
EndSplineSet
EndChar
StartChar: twosuperior
Encoding: 178 178 178
Width: 848
Flags: W
Fore
242.111 1284 m 1,0,-1
 157.511 1284 l 1,1,-1
 191.625 1479 l 1,2,3
 259.924 1499 259.924 1499 329.711 1509.5 c 128,-1,4
 399.498 1520 399.498 1520 471.498 1520 c 0,5,6
 634.397 1520 634.397 1520 713.201 1456 c 128,-1,7
 792.005 1392 792.005 1392 772.062 1278 c 0,8,9
 757.716 1196 757.716 1196 697.383 1131.5 c 128,-1,10
 637.048 1067 637.048 1067 480.004 977 c 2,11,-1
 236.087 838 l 1,12,-1
 608.688 838 l 1,13,-1
 625.481 934 l 1,14,-1
 715.481 934 l 1,15,-1
 671.746 684 l 1,16,-1
 45.3457 684 l 1,17,-1
 68.6133 817 l 1,18,-1
 199.409 901 l 2,19,20
 389.226 1024 389.226 1024 446.473 1094 c 128,-1,21
 503.719 1164 503.719 1164 519.988 1257 c 0,22,23
 534.683 1341 534.683 1341 505.643 1388.5 c 128,-1,24
 476.603 1436 476.603 1436 410.902 1436 c 0,25,26
 354.202 1436 354.202 1436 307.792 1394.5 c 128,-1,27
 261.382 1353 261.382 1353 242.111 1284 c 1,0,-1
EndSplineSet
EndChar
StartChar: threesuperior
Encoding: 179 179 179
Width: 849
Flags: W
Fore
209.613 1481 m 1,0,1
 292.137 1500 292.137 1500 360.937 1510 c 128,-1,2
 429.735 1520 429.735 1520 487.336 1520 c 0,3,4
 649.336 1520 649.336 1520 723.852 1467.5 c 128,-1,5
 798.367 1415 798.367 1415 780.872 1315 c 0,6,7
 768.277 1243 768.277 1243 712.805 1196 c 128,-1,8
 657.332 1149 657.332 1149 562.733 1133 c 1,9,10
 667.935 1117 667.935 1117 714.025 1061.5 c 128,-1,11
 760.116 1006 760.116 1006 743.846 913 c 0,12,13
 722.503 791 722.503 791 619.943 729.5 c 128,-1,14
 517.385 668 517.385 668 336.485 668 c 0,15,16
 264.485 668 264.485 668 194.322 678.5 c 128,-1,17
 124.159 689 124.159 689 56.0078 711 c 1,18,-1
 90.9961 911 l 1,19,-1
 177.396 911 l 1,20,21
 169.7 831 169.7 831 201.49 791.5 c 128,-1,22
 233.279 752 233.279 752 304.379 752 c 0,23,24
 383.579 752 383.579 752 432.952 795 c 128,-1,25
 482.324 838 482.324 838 496.671 920 c 0,26,27
 510.666 1000 510.666 1000 474.176 1043.5 c 128,-1,28
 437.687 1087 437.687 1087 355.786 1087 c 2,29,-1
 318.887 1087 l 1,30,-1
 333.581 1171 l 1,31,-1
 361.48 1171 l 2,32,33
 434.381 1171 434.381 1171 479.479 1205 c 128,-1,34
 524.578 1239 524.578 1239 535.772 1303 c 0,35,36
 546.794 1366 546.794 1366 517.817 1401 c 128,-1,37
 488.842 1436 488.842 1436 424.041 1436 c 0,38,39
 364.642 1436 364.642 1436 322.255 1399.5 c 128,-1,40
 279.869 1363 279.869 1363 264.174 1299 c 1,41,-1
 177.598 1298 l 1,42,-1
 209.613 1481 l 1,0,1
EndSplineSet
EndChar
StartChar: acute
Encoding: 180 180 180
Width: 998
Flags: W
Fore
794.35 1638 m 1,0,-1
 1045.45 1638 l 1,1,-1
 643.15 1262 l 1,2,-1
 495.55 1262 l 1,3,-1
 794.35 1638 l 1,0,-1
EndSplineSet
LCarets: 0 65535 '    ' 1 0 
Ligature: 0 1 'liga' space acutecomb
EndChar
StartChar: mu
Encoding: 181 181 181
Width: 1415
Flags: W
Fore
1354.8 1063 m 1,0,-1
 1190 121 l 1,1,-1
 1326.8 121 l 1,2,-1
 1305.63 0 l 1,3,-1
 850.231 0 l 1,4,-1
 872.101 125 l 1,5,6
 808.075 42 808.075 42 752.815 6.5 c 0,7,8
 697.555 -29 697.555 -29 630.955 -29 c 0,9,10
 603.055 -29 603.055 -29 578.26 -19 c 0,11,12
 553.456 -9 553.456 -9 527.428 12 c 1,13,-1
 450.802 -426 l 1,14,-1
 132.202 -426 l 1,15,-1
 371.53 942 l 1,16,-1
 234.73 942 l 1,17,-1
 255.898 1063 l 1,18,-1
 711.298 1063 l 1,19,-1
 607.033 467 l 2,20,21
 582.121 324.61 582.121 324.61 582.121 251.34 c 0,22,23
 582.121 211.4 582.121 211.4 589.519 192 c 0,24,25
 610.498 137 610.498 137 689.698 137 c 0,26,27
 785.098 137 785.098 137 843.553 216.5 c 0,28,29
 902.017 296 902.017 296 931.933 467 c 2,30,-1
 1036.2 1063 l 1,31,-1
 1354.8 1063 l 1,0,-1
EndSplineSet
EndChar
StartChar: paragraph
Encoding: 182 182 182
Width: 1250
Flags: W
Fore
786.616 1493 m 2,0,-1
 1286.12 1493 l 1,1,-1
 1264.25 1368 l 1,2,-1
 1162.54 1368 l 1,3,-1
 888.765 -197 l 1,4,-1
 751.964 -197 l 1,5,-1
 1025.75 1368 l 1,6,-1
 879.049 1368 l 1,7,-1
 605.265 -197 l 1,8,-1
 468.464 -197 l 1,9,-1
 616.465 649 l 1,10,11
 425.939 666 425.939 666 339.07 776.5 c 128,-1,12
 252.201 887 252.201 887 284.391 1071 c 0,13,14
 317.63 1261 317.63 1261 454.923 1377 c 128,-1,15
 592.216 1493 592.216 1493 786.616 1493 c 2,0,-1
EndSplineSet
EndChar
StartChar: periodcentered
Encoding: 183 183 183
Width: 677
Flags: W
Fore
184.952 711 m 0,0,1
 198.598 789 198.598 789 258.796 845 c 128,-1,2
 318.992 901 318.992 901 389.192 901 c 0,3,4
 460.292 901 460.292 901 500.896 845 c 128,-1,5
 541.498 789 541.498 789 527.853 711 c 0,6,7
 514.207 633 514.207 633 454.099 577.5 c 128,-1,8
 393.989 522 393.989 522 322.889 522 c 0,9,10
 252.689 522 252.689 522 211.998 577.5 c 128,-1,11
 171.308 633 171.308 633 184.952 711 c 0,0,1
EndSplineSet
EndChar
StartChar: cedilla
Encoding: 184 184 184
Width: 968
Flags: W
Fore
616.818 0 m 1,0,1
 661.422 -64 661.422 -64 678.438 -118.5 c 128,-1,2
 695.453 -173 695.453 -173 686.355 -225 c 0,3,4
 671.311 -311 671.311 -311 605.388 -356 c 128,-1,5
 539.466 -401 539.466 -401 430.565 -401 c 0,6,7
 387.365 -401 387.365 -401 342.603 -394.5 c 128,-1,8
 297.841 -388 297.841 -388 253.314 -375 c 1,9,-1
 279.706 -219 l 1,10,11
 317.232 -236 317.232 -236 353.907 -245 c 128,-1,12
 390.583 -254 390.583 -254 422.982 -254 c 0,13,14
 476.982 -254 476.982 -254 509.444 -230.5 c 128,-1,15
 541.904 -207 541.904 -207 549.776 -162 c 0,16,17
 554.676 -134 554.676 -134 545.599 -101 c 128,-1,18
 536.522 -68 536.522 -68 502.519 0 c 1,19,-1
 616.818 0 l 1,0,1
EndSplineSet
Ligature: 0 1 'liga' space uni0327
EndChar
StartChar: onesuperior
Encoding: 185 185 185
Width: 845
Flags: W
Fore
111.362 684 m 1,0,-1
 127.807 778 l 1,1,-1
 275.407 778 l 1,2,-1
 382.646 1391 l 1,3,-1
 200.278 1290 l 1,4,-1
 218.646 1395 l 1,5,-1
 440.314 1520 l 1,6,-1
 644.614 1520 l 1,7,-1
 514.808 778 l 1,8,-1
 662.407 778 l 1,9,-1
 645.963 684 l 1,10,-1
 111.362 684 l 1,0,-1
EndSplineSet
EndChar
StartChar: ordmasculine
Encoding: 186 186 186
Width: 972
Flags: W
Fore
86.9062 639 m 1,0,-1
 805.106 639 l 1,1,-1
 781.489 504 l 1,2,-1
 63.2891 504 l 1,3,-1
 86.9062 639 l 1,0,-1
478.195 823 m 0,4,5
 546.596 823 546.596 823 589.166 894 c 128,-1,6
 631.737 965 631.737 965 660.253 1128 c 0,7,8
 688.944 1292 688.944 1292 671.215 1363 c 128,-1,9
 653.484 1434 653.484 1434 585.085 1434 c 0,10,11
 515.785 1434 515.785 1434 473.84 1364 c 128,-1,12
 431.894 1294 431.894 1294 402.853 1128 c 0,13,14
 373.988 963 373.988 963 391.441 893 c 128,-1,15
 408.896 823 408.896 823 478.195 823 c 0,4,5
463.151 737 m 0,16,17
 272.351 737 272.351 737 182.994 841 c 128,-1,18
 93.6387 945 93.6387 945 125.652 1128 c 0,19,20
 157.668 1311 157.668 1311 283.499 1415.5 c 128,-1,21
 409.33 1520 409.33 1520 600.13 1520 c 0,22,23
 790.93 1520 790.93 1520 880.199 1415.5 c 128,-1,24
 969.468 1311 969.468 1311 937.453 1128 c 0,25,26
 905.438 945 905.438 945 779.694 841 c 128,-1,27
 653.95 737 653.95 737 463.151 737 c 0,16,17
EndSplineSet
EndChar
StartChar: guillemotright
Encoding: 187 187 187
Width: 1214
Flags: W
Fore
317.756 1069 m 1,0,-1
 672.504 684 l 1,1,-1
 643.113 516 l 1,2,-1
 153.661 131 l 1,3,-1
 179.552 279 l 1,4,-1
 450.809 600 l 1,5,-1
 292.04 922 l 1,6,-1
 317.756 1069 l 1,0,-1
731.756 1069 m 1,7,-1
 1086.5 684 l 1,8,-1
 1057.11 516 l 1,9,-1
 567.661 131 l 1,10,-1
 593.552 279 l 1,11,-1
 865.708 600 l 1,12,-1
 706.04 922 l 1,13,-1
 731.756 1069 l 1,7,-1
EndSplineSet
KernsSLIFO: 356 -149 0 0 84 -149 0 0 74 -73 0 0
EndChar
StartChar: questiondown
Encoding: 191 191 191
Width: 1130
Flags: W
Fore
924.441 1329 m 0,0,1
 910.796 1251 910.796 1251 850.773 1196 c 128,-1,2
 790.752 1141 790.752 1141 720.552 1141 c 0,3,4
 649.452 1141 649.452 1141 609.573 1196 c 128,-1,5
 569.695 1251 569.695 1251 583.342 1329 c 0,6,7
 597.162 1408 597.162 1408 656.908 1464 c 128,-1,8
 716.655 1520 716.655 1520 786.855 1520 c 0,9,10
 857.056 1520 857.056 1520 897.571 1463.5 c 128,-1,11
 938.087 1407 938.087 1407 924.441 1329 c 0,0,1
886.865 39 m 1,12,13
 769.318 5 769.318 5 665.544 -12 c 128,-1,14
 561.77 -29 561.77 -29 467.27 -29 c 0,15,16
 240.47 -29 240.47 -29 138.301 81.5 c 128,-1,17
 36.1318 192 36.1318 192 71.9951 397 c 0,18,19
 107.334 599 107.334 599 245.165 715.5 c 128,-1,20
 382.994 832 382.994 832 606.644 850 c 1,21,-1
 642.508 1055 l 1,22,-1
 767.607 1055 l 1,23,-1
 715.3 756 l 1,24,25
 582.677 713 582.677 713 507.544 620.5 c 128,-1,26
 432.413 528 432.413 528 405.646 375 c 0,27,28
 380.28 230 380.28 230 422.409 157 c 128,-1,29
 464.538 84 464.538 84 572.538 84 c 0,30,31
 670.638 84 670.638 84 735.733 150 c 128,-1,32
 800.83 216 800.83 216 832.573 346 c 1,33,-1
 940.573 346 l 1,34,-1
 886.865 39 l 1,12,13
EndSplineSet
EndChar
StartChar: Aring
Encoding: 197 197 197
Width: 1492
Flags: W
Fore
770.224 1616 m 0,0,1
 760.776 1562 760.776 1562 789.142 1523.5 c 128,-1,2
 817.507 1485 817.507 1485 865.206 1485 c 0,3,4
 914.706 1485 914.706 1485 956.092 1523.5 c 128,-1,5
 997.474 1562 997.474 1562 1006.92 1616 c 0,6,7
 1016.37 1670 1016.37 1670 988.006 1708.5 c 128,-1,8
 959.642 1747 959.642 1747 911.042 1747 c 0,9,10
 863.342 1747 863.342 1747 821.506 1708.5 c 128,-1,11
 779.671 1670 779.671 1670 770.224 1616 c 0,0,1
-118.183 0 m 1,12,-1
 -97.0137 121 l 1,13,-1
 12.7852 121 l 1,14,-1
 700.838 1384 l 1,15,16
 655.11 1421 655.11 1421 637.345 1481.5 c 128,-1,17
 619.578 1542 619.578 1542 632.524 1616 c 0,18,19
 652.993 1733 652.993 1733 742.838 1817 c 128,-1,20
 832.684 1901 832.684 1901 937.983 1901 c 0,21,22
 1044.18 1901 1044.18 1901 1104.64 1817 c 128,-1,23
 1165.09 1733 1165.09 1733 1144.62 1616 c 0,24,25
 1131.68 1542 1131.68 1542 1093.91 1483 c 128,-1,26
 1056.14 1424 1056.14 1424 995.134 1384 c 1,27,-1
 1240.38 121 l 1,28,-1
 1368.18 121 l 1,29,-1
 1347.02 0 l 1,30,-1
 717.917 0 l 1,31,-1
 739.086 121 l 1,32,-1
 870.486 121 l 1,33,-1
 813.144 426 l 1,34,-1
 308.243 426 l 1,35,-1
 142.386 121 l 1,36,-1
 302.586 121 l 1,37,-1
 281.417 0 l 1,38,-1
 -118.183 0 l 1,12,-1
373.511 547 m 1,39,-1
 790.21 547 l 1,40,-1
 684.903 1118 l 1,41,-1
 373.511 547 l 1,39,-1
EndSplineSet
Ligature: 0 0 'liga' A uni030A
EndChar
StartChar: AE
Encoding: 198 198 198
Width: 2002
Flags: W
Fore
422.148 545 m 1,0,-1
 840.648 545 l 1,1,-1
 985.326 1372 l 1,2,-1
 917.826 1372 l 1,3,-1
 422.148 545 l 1,0,-1
574.307 0 m 1,4,-1
 595.474 121 l 1,5,-1
 766.474 121 l 1,6,-1
 819.48 424 l 1,7,-1
 349.681 424 l 1,8,-1
 167.974 121 l 1,9,-1
 315.573 121 l 1,10,-1
 294.406 0 l 1,11,-1
 -90.7939 0 l 1,12,-1
 -69.627 121 l 1,13,-1
 32.9736 121 l 1,14,-1
 784.626 1372 l 1,15,-1
 603.727 1372 l 1,16,-1
 624.894 1493 l 1,17,-1
 2020.79 1493 l 1,18,-1
 1959.21 1141 l 1,19,-1
 1835.01 1141 l 1,20,-1
 1872.62 1356 l 1,21,-1
 1330.82 1356 l 1,22,-1
 1247.03 877 l 1,23,-1
 1577.33 877 l 1,24,-1
 1610.57 1067 l 1,25,-1
 1732.07 1067 l 1,26,-1
 1641.8 551 l 1,27,-1
 1520.3 551 l 1,28,-1
 1553.54 741 l 1,29,-1
 1223.24 741 l 1,30,-1
 1117.58 137 l 1,31,-1
 1678.28 137 l 1,32,-1
 1715.89 352 l 1,33,-1
 1837.39 352 l 1,34,-1
 1775.81 0 l 1,35,-1
 574.307 0 l 1,4,-1
EndSplineSet
KernsSLIFO: 45 38 0 0
EndChar
StartChar: Eth
Encoding: 208 208 208
Width: 1695
Flags: W
Fore
592.291 121 m 1,0,-1
 717.391 121 l 2,1,2
 927.99 121 927.99 121 1050.89 270.5 c 128,-1,3
 1173.8 420 1173.8 420 1231.18 748 c 0,4,5
 1288.21 1074 1288.21 1074 1217.53 1223 c 128,-1,6
 1146.84 1372 1146.84 1372 936.244 1372 c 2,7,-1
 811.144 1372 l 1,8,-1
 719.823 850 l 1,9,-1
 1018.62 850 l 1,10,-1
 994.658 713 l 1,11,-1
 695.856 713 l 1,12,-1
 592.291 121 l 1,0,-1
51.8232 0 m 1,13,-1
 72.9912 121 l 1,14,-1
 245.791 121 l 1,15,-1
 349.356 713 l 1,16,-1
 157.656 713 l 1,17,-1
 181.623 850 l 1,18,-1
 373.323 850 l 1,19,-1
 464.644 1372 l 1,20,-1
 291.844 1372 l 1,21,-1
 313.011 1493 l 1,22,-1
 1004.21 1493 l 2,23,24
 1364.21 1493 1364.21 1493 1521.96 1301.5 c 128,-1,25
 1679.71 1110 1679.71 1110 1616.38 748 c 0,26,27
 1552.87 385 1552.87 385 1327.95 192.5 c 128,-1,28
 1103.03 0 1103.03 0 743.023 0 c 2,29,-1
 51.8232 0 l 1,13,-1
EndSplineSet
KernsSLIFO: 221 -36 0 0 193 -36 0 0 194 -36 0 0 376 -36 0 0 195 -36 0 0 192 -36 0 0 196 -36 0 0 89 -36 0 0 86 -36 0 0 65 -36 0 0 46 -73 0 0 45 75 0 0 44 -73 0 0
EndChar
StartChar: multiply
Encoding: 215 215 215
Width: 1630
Flags: W
Fore
1392.6 1081 m 1,0,-1
 996.6 641 l 1,1,-1
 1392.6 201 l 1,2,-1
 1254 47 l 1,3,-1
 858 487 l 1,4,-1
 462 47 l 1,5,-1
 323.4 201 l 1,6,-1
 720.3 641 l 1,7,-1
 323.4 1081 l 1,8,-1
 462 1237 l 1,9,-1
 858 797 l 1,10,-1
 1254 1237 l 1,11,-1
 1392.6 1081 l 1,0,-1
EndSplineSet
EndChar
StartChar: Oslash
Encoding: 216 216 216
Width: 1694
Flags: W
Fore
523.978 479 m 1,0,-1
 1251.89 1157 l 1,1,2
 1234.91 1276 1234.91 1276 1172.31 1337.5 c 128,-1,3
 1109.73 1399 1109.73 1399 1005.33 1399 c 0,4,5
 834.324 1399 834.324 1399 721.746 1236.5 c 128,-1,6
 609.169 1074 609.169 1074 551.612 745 c 0,7,8
 538.317 669 538.317 669 531.271 603 c 128,-1,9
 524.225 537 524.225 537 523.978 479 c 1,0,-1
531.012 334 m 1,10,11
 550.168 212 550.168 212 611.223 152 c 128,-1,12
 672.275 92 672.275 92 776.676 92 c 0,13,14
 952.176 92 952.176 92 1064.19 259 c 128,-1,15
 1176.21 426 1176.21 426 1238.83 784 c 0,16,17
 1250.21 849 1250.21 849 1253.64 899.5 c 128,-1,18
 1257.08 950 1257.08 950 1252.9 993 c 1,19,-1
 531.012 334 l 1,10,11
1547.01 1280 m 1,20,21
 1609.81 1176 1609.81 1176 1626.96 1042.5 c 128,-1,22
 1644.1 909 1644.1 909 1615.41 745 c 0,23,24
 1552.09 383 1552.09 383 1323 177 c 128,-1,25
 1093.91 -29 1093.91 -29 755.507 -29 c 0,26,27
 613.307 -29 613.307 -29 500.88 10 c 128,-1,28
 388.453 49 388.453 49 306.697 127 c 1,29,-1
 87.2354 -78 l 1,30,-1
 21.9795 12 l 1,31,-1
 237.143 213 l 1,32,33
 173.088 315 173.088 315 155.492 448.5 c 128,-1,34
 137.897 582 137.897 582 166.412 745 c 0,35,36
 229.742 1107 229.742 1107 458.917 1313.5 c 128,-1,37
 688.094 1520 688.094 1520 1026.5 1520 c 0,38,39
 1170.5 1520 1170.5 1520 1283.45 1481.5 c 128,-1,40
 1396.42 1443 1396.42 1443 1476.55 1366 c 1,41,-1
 1694.76 1569 l 1,42,-1
 1760.02 1479 l 1,43,-1
 1547.01 1280 l 1,20,21
EndSplineSet
KernsSLIFO: 88 -36 0 0 86 -36 0 0 46 -120 0 0 45 75 0 0 44 -120 0 0
EndChar
StartChar: Thorn
Encoding: 222 222 222
Width: 1467
Flags: W
Fore
28.4502 0 m 1,0,-1
 49.6182 121 l 1,1,-1
 221.518 121 l 1,2,-1
 440.371 1372 l 1,3,-1
 268.471 1372 l 1,4,-1
 289.638 1493 l 1,5,-1
 1023.13 1493 l 1,6,-1
 1001.97 1372 l 1,7,-1
 786.871 1372 l 1,8,-1
 757.13 1202 l 1,9,-1
 1003.73 1202 l 2,10,11
 1227.83 1202 1227.83 1202 1339.4 1083.5 c 128,-1,12
 1450.97 965 1450.97 965 1416.16 766 c 0,13,14
 1381.34 567 1381.34 567 1227.69 447.5 c 128,-1,15
 1074.03 328 1074.03 328 850.83 328 c 2,16,-1
 604.23 328 l 1,17,-1
 568.018 121 l 1,18,-1
 784.918 121 l 1,19,-1
 763.751 0 l 1,20,-1
 28.4502 0 l 1,0,-1
625.399 449 m 1,21,-1
 726.199 449 l 2,22,23
 843.199 449 843.199 449 927.994 535 c 128,-1,24
 1012.79 621 1012.79 621 1038.16 766 c 0,25,26
 1063.35 910 1063.35 910 1009 995.5 c 128,-1,27
 954.663 1081 954.663 1081 836.763 1081 c 2,28,-1
 735.963 1081 l 1,29,-1
 625.399 449 l 1,21,-1
EndSplineSet
KernsSLIFO: 46 -301 0 0 45 38 0 0 44 -264 0 0
EndChar
StartChar: germandbls
Encoding: 223 223 223
Width: 1466
Flags: W
Fore
1043.67 1221 m 1,0,1
 1059.06 1345 1059.06 1345 1024.52 1394.5 c 128,-1,2
 989.987 1444 989.987 1444 889.183 1444 c 0,3,4
 791.083 1444 791.083 1444 736.574 1384.5 c 128,-1,5
 682.065 1325 682.065 1325 658.447 1190 c 2,6,-1
 450.267 0 l 1,7,-1
 -4.2334 0 l 1,8,-1
 16.9346 121 l 1,9,-1
 152.834 121 l 1,10,-1
 332.325 1147 l 2,11,12
 367.488 1348 367.488 1348 511.683 1452 c 128,-1,13
 655.877 1556 655.877 1556 897.978 1556 c 0,14,15
 1134.68 1556 1134.68 1556 1237.27 1450.5 c 128,-1,16
 1339.86 1345 1339.86 1345 1324.1 1116 c 1,17,-1
 1304.3 1116 l 2,18,19
 1164.8 1116 1164.8 1116 1085.29 1070.5 c 128,-1,20
 1005.78 1025 1005.78 1025 990.212 936 c 0,21,22
 983.219 896 983.219 896 998.051 862.5 c 128,-1,23
 1012.89 829 1012.89 829 1076.93 768 c 2,24,-1
 1145.1 705 l 2,25,26
 1282.01 577 1282.01 577 1312.29 498 c 128,-1,27
 1342.57 419 1342.57 419 1323.67 311 c 0,28,29
 1295.68 151 1295.68 151 1167.89 61 c 128,-1,30
 1040.09 -29 1040.09 -29 838.493 -29 c 0,31,32
 766.493 -29 766.493 -29 690.367 -14 c 128,-1,33
 614.241 1 614.241 1 529.489 31 c 1,34,-1
 574.625 289 l 1,35,-1
 683.525 289 l 1,36,37
 676.506 182 676.506 182 712.034 133 c 128,-1,38
 747.562 84 747.562 84 832.162 84 c 0,39,40
 900.562 84 900.562 84 950.56 128 c 128,-1,41
 1000.55 172 1000.55 172 1013.15 244 c 0,42,43
 1031.52 349 1031.52 349 904.39 466 c 0,44,45
 888.114 481 888.114 481 879.613 489 c 2,46,-1
 810.71 553 l 2,47,48
 731.855 627 731.855 627 705.089 705.5 c 128,-1,49
 678.32 784 678.32 784 696.69 889 c 0,50,51
 720.132 1023 720.132 1023 806.566 1105.5 c 128,-1,52
 892.998 1188 892.998 1188 1043.67 1221 c 1,0,1
EndSplineSet
EndChar
StartChar: ae
Encoding: 230 230 230
Width: 1894
Flags: W
Fore
1470.68 600 m 1,0,1
 1507.41 810 1507.41 810 1487.09 894.5 c 128,-1,2
 1466.78 979 1466.78 979 1382.18 979 c 0,3,4
 1300.28 979 1300.28 979 1250.21 896 c 128,-1,5
 1200.14 813 1200.14 813 1166.02 618 c 2,6,-1
 1162.88 600 l 1,7,-1
 1470.68 600 l 1,0,1
1045.26 936 m 1,8,9
 1128.2 1014 1128.2 1014 1218.27 1053 c 128,-1,10
 1308.34 1092 1308.34 1092 1408.25 1092 c 0,11,12
 1644.95 1092 1644.95 1092 1744.73 937 c 128,-1,13
 1844.51 782 1844.51 782 1799.95 481 c 1,14,-1
 1142.05 481 l 1,15,-1
 1140.66 473 l 2,16,17
 1104.62 267 1104.62 267 1144.41 175.5 c 128,-1,18
 1184.2 84 1184.2 84 1309.3 84 c 0,19,20
 1411.9 84 1411.9 84 1485.48 144.5 c 128,-1,21
 1559.08 205 1559.08 205 1597.54 322 c 1,22,-1
 1748.74 322 l 1,23,24
 1678.37 141 1678.37 141 1548.75 56 c 128,-1,25
 1419.13 -29 1419.13 -29 1212.13 -29 c 0,26,27
 1091.54 -29 1091.54 -29 1004.67 9.5 c 128,-1,28
 917.807 48 917.807 48 861.426 127 c 1,29,30
 767.681 49 767.681 49 665.908 10 c 128,-1,31
 564.135 -29 564.135 -29 452.535 -29 c 0,32,33
 267.135 -29 267.135 -29 185.967 57.5 c 128,-1,34
 104.8 144 104.8 144 133.665 309 c 0,35,36
 165.155 489 165.155 489 295.387 577.5 c 128,-1,37
 425.62 666 425.62 666 658.721 666 c 2,38,-1
 826.12 666 l 1,39,-1
 837.141 729 l 2,40,41
 857.435 845 857.435 845 805.706 912 c 128,-1,42
 753.977 979 753.977 979 643.276 979 c 0,43,44
 550.576 979 550.576 979 491.666 935.5 c 128,-1,45
 432.757 892 432.757 892 394.188 795 c 1,46,-1
 292.487 795 l 1,47,-1
 332.549 1024 l 1,48,49
 423.997 1058 423.997 1058 518.771 1075 c 128,-1,50
 613.545 1092 613.545 1092 715.245 1092 c 0,51,52
 838.545 1092 838.545 1092 920.011 1053.5 c 128,-1,53
 1001.47 1015 1001.47 1015 1045.26 936 c 1,8,9
767.339 330 m 2,54,-1
 805.302 547 l 1,55,-1
 685.602 547 l 2,56,57
 587.502 547 587.502 547 530.18 492 c 128,-1,58
 472.858 437 472.858 437 453.09 324 c 0,59,60
 433.321 211 433.321 211 460.474 163 c 128,-1,61
 487.627 115 487.627 115 567.727 115 c 0,62,63
 645.127 115 645.127 115 697.224 171 c 128,-1,64
 749.321 227 749.321 227 767.339 330 c 2,54,-1
EndSplineSet
EndChar
StartChar: eth
Encoding: 240 240 240
Width: 1295
Flags: W
Fore
970.888 1337 m 1,0,1
 1114.02 1188 1114.02 1188 1169.22 986.5 c 128,-1,2
 1224.42 785 1224.42 785 1184.54 557 c 0,3,4
 1136.42 282 1136.42 282 966.118 126.5 c 128,-1,5
 795.819 -29 795.819 -29 542.02 -29 c 0,6,7
 294.52 -29 294.52 -29 173.898 117.5 c 128,-1,8
 53.2773 264 53.2773 264 95.9629 508 c 0,9,10
 136.2 738 136.2 738 306.166 889 c 128,-1,11
 476.132 1040 476.132 1040 695.732 1040 c 0,12,13
 733.532 1040 733.532 1040 771.183 1034 c 128,-1,14
 808.833 1028 808.833 1028 846.334 1016 c 1,15,16
 838.455 1079 838.455 1079 818.828 1134 c 128,-1,17
 799.199 1189 799.199 1189 765.995 1241 c 1,18,-1
 452.829 1092 l 1,19,-1
 425.323 1192 l 1,20,-1
 699.341 1323 l 1,21,22
 659.189 1361 659.189 1361 595.762 1392 c 128,-1,23
 532.335 1423 532.335 1423 446.359 1446 c 1,24,-1
 490.803 1556 l 1,25,26
 613.828 1539 613.828 1539 712.743 1502.5 c 128,-1,27
 811.658 1466 811.658 1466 883.936 1411 c 1,28,-1
 1207.88 1565 l 1,29,-1
 1232.16 1462 l 1,30,-1
 970.888 1337 l 1,0,1
841.566 891 m 1,31,32
 802.59 910 802.59 910 770.415 919 c 128,-1,33
 738.239 928 738.239 928 709.439 928 c 0,34,35
 609.539 928 609.539 928 550.531 832.5 c 128,-1,36
 491.525 737 491.525 737 451.463 508 c 0,37,38
 410.527 274 410.527 274 436.207 179 c 128,-1,39
 461.888 84 461.888 84 561.788 84 c 0,40,41
 661.688 84 661.688 84 719.531 178 c 128,-1,42
 777.376 272 777.376 272 818.663 508 c 0,43,44
 837.382 615 837.382 615 842.839 710.5 c 128,-1,45
 848.297 806 848.297 806 841.566 891 c 1,31,32
EndSplineSet
KernsSLIFO: 46 -36 0 0
EndChar
StartChar: divide
Encoding: 247 247 247
Width: 1630
Flags: W
CounterMasks: 1 00
Fore
723.9 1012 m 0,0,1
 723.9 1073 723.9 1073 763.5 1117 c 128,-1,2
 803.1 1161 803.1 1161 858 1161 c 0,3,4
 913.8 1161 913.8 1161 953.4 1117 c 128,-1,5
 993 1073 993 1073 993 1012 c 0,6,7
 993 950 993 950 953.4 906 c 128,-1,8
 913.8 862 913.8 862 858 862 c 0,9,10
 803.1 862 803.1 862 763.5 906 c 128,-1,11
 723.9 950 723.9 950 723.9 1012 c 0,0,1
723.9 272 m 0,12,13
 723.9 334 723.9 334 763.5 378 c 128,-1,14
 803.1 422 803.1 422 858 422 c 0,15,16
 913.8 422 913.8 422 953.4 378 c 128,-1,17
 993 334 993 334 993 272 c 0,18,19
 993 211 993 211 953.4 167 c 128,-1,20
 913.8 123 913.8 123 858 123 c 0,21,22
 803.1 123 803.1 123 763.5 167 c 128,-1,23
 723.9 211 723.9 211 723.9 272 c 0,12,13
281.1 756 m 1,24,-1
 1434.9 756 l 1,25,-1
 1434.9 528 l 1,26,-1
 281.1 528 l 1,27,-1
 281.1 756 l 1,24,-1
EndSplineSet
EndChar
StartChar: oslash
Encoding: 248 248 248
Width: 1297
Flags: W
Fore
481.344 416 m 1,0,-1
 896.996 801 l 1,1,2
 897.441 891 897.441 891 864.639 935 c 128,-1,3
 831.836 979 831.836 979 762.536 979 c 0,4,5
 663.536 979 663.536 979 604.979 883.5 c 128,-1,6
 546.422 788 546.422 788 505.311 553 c 2,7,-1
 481.344 416 l 1,0,-1
471.503 262 m 1,8,9
 469.433 173 469.433 173 503.049 128.5 c 128,-1,10
 536.662 84 536.662 84 605.963 84 c 0,11,12
 704.062 84 704.062 84 761.908 178 c 128,-1,13
 819.752 272 819.752 272 861.039 508 c 2,14,-1
 885.706 649 l 1,15,-1
 471.503 262 l 1,8,9
1171.29 913 m 1,16,17
 1218.09 841 1218.09 841 1231.54 745.5 c 128,-1,18
 1244.98 650 1244.98 650 1224.34 532 c 0,19,20
 1178.5 270 1178.5 270 1008.8 120.5 c 128,-1,21
 839.094 -29 839.094 -29 586.194 -29 c 0,22,23
 486.294 -29 486.294 -29 406.881 -4.5 c 128,-1,24
 327.467 20 327.467 20 264.215 70 c 1,25,-1
 79.3242 -102 l 1,26,-1
 18.7686 -16 l 1,27,-1
 194.884 147 l 1,28,29
 149.506 222 149.506 222 136.687 318.5 c 128,-1,30
 123.869 415 123.869 415 144.338 532 c 0,31,32
 190.347 795 190.347 795 359.876 943.5 c 128,-1,33
 529.405 1092 529.405 1092 782.305 1092 c 0,34,35
 886.705 1092 886.705 1092 967.381 1067 c 128,-1,36
 1048.06 1042 1048.06 1042 1104.29 993 c 1,37,-1
 1284.88 1161 l 1,38,-1
 1347.23 1075 l 1,39,-1
 1171.29 913 l 1,16,17
EndSplineSet
KernsSLIFO: 46 -36 0 0
EndChar
StartChar: thorn
Encoding: 254 254 254
Width: 1349
Flags: W
Fore
569.364 584 m 2,0,-1
 550.995 479 l 2,1,2
 533.571 379.4 533.571 379.4 533.571 309.34 c 0,3,4
 533.571 248.56 533.571 248.56 546.685 210 c 0,5,6
 574.918 127 574.918 127 670.317 127 c 0,7,8
 768.418 127 768.418 127 823.866 215 c 0,9,10
 879.307 303 879.307 303 919.375 532 c 0,11,12
 944.134 673.56 944.134 673.56 944.134 761.05 c 0,13,14
 944.134 815.09 944.134 815.09 934.692 848.5 c 0,15,16
 909.942 936 909.942 936 811.843 936 c 0,17,18
 716.442 936 716.442 936 659.176 853 c 128,-1,19
 601.908 770 601.908 770 569.364 584 c 2,0,-1
399.822 1436 m 1,20,-1
 263.022 1436 l 1,21,-1
 284.011 1556 l 1,22,-1
 739.41 1556 l 1,23,-1
 629.548 928 l 1,24,25
 684.564 1011 684.564 1011 760.057 1051.5 c 0,26,27
 835.539 1092 835.539 1092 936.34 1092 c 0,28,29
 1140.64 1092 1140.64 1092 1231.94 942.5 c 0,30,31
 1292.79 842.84 1292.79 842.84 1292.79 693.63 c 0,32,33
 1292.79 619.01 1292.79 619.01 1277.57 532 c 0,34,35
 1231.91 271 1231.91 271 1088.22 121 c 0,36,37
 944.529 -29 944.529 -29 740.229 -29 c 0,38,39
 639.43 -29 639.43 -29 578.112 11.5 c 0,40,41
 516.796 52 516.796 52 490.821 135 c 1,42,-1
 392.677 -426 l 1,43,-1
 74.0762 -426 l 1,44,-1
 399.822 1436 l 1,20,-1
EndSplineSet
KernsSLIFO: 46 -102 0 0 44 -36 0 0
EndChar
StartChar: Dcroat
Encoding: 272 272 272
Width: 1695
Flags: W
Fore
592.291 121 m 1,0,-1
 717.391 121 l 2,1,2
 927.99 121 927.99 121 1050.89 270.5 c 128,-1,3
 1173.8 420 1173.8 420 1231.18 748 c 0,4,5
 1288.21 1074 1288.21 1074 1217.53 1223 c 128,-1,6
 1146.84 1372 1146.84 1372 936.244 1372 c 2,7,-1
 811.144 1372 l 1,8,-1
 719.823 850 l 1,9,-1
 1018.62 850 l 1,10,-1
 994.658 713 l 1,11,-1
 695.856 713 l 1,12,-1
 592.291 121 l 1,0,-1
51.8232 0 m 1,13,-1
 72.9912 121 l 1,14,-1
 245.791 121 l 1,15,-1
 349.356 713 l 1,16,-1
 157.656 713 l 1,17,-1
 181.623 850 l 1,18,-1
 373.323 850 l 1,19,-1
 464.644 1372 l 1,20,-1
 291.844 1372 l 1,21,-1
 313.011 1493 l 1,22,-1
 1004.21 1493 l 2,23,24
 1364.21 1493 1364.21 1493 1521.96 1301.5 c 128,-1,25
 1679.71 1110 1679.71 1110 1616.38 748 c 0,26,27
 1552.87 385 1552.87 385 1327.95 192.5 c 128,-1,28
 1103.03 0 1103.03 0 743.023 0 c 2,29,-1
 51.8232 0 l 1,13,-1
EndSplineSet
EndChar
StartChar: dcroat
Encoding: 273 273 273
Width: 1365
Flags: W
Fore
818.31 479 m 2,0,-1
 836.679 584 l 2,1,2
 853.977 682.86 853.977 682.86 853.977 752.63 c 0,3,4
 853.977 814.12 853.977 814.12 840.54 853 c 0,5,6
 811.857 936 811.857 936 717.357 936 c 0,7,8
 618.357 936 618.357 936 562.998 848.5 c 128,-1,9
 507.639 761 507.639 761 467.58 532 c 0,10,11
 442.956 391.22 442.956 391.22 442.956 303.73 c 0,12,13
 442.956 248.9 442.956 248.9 452.622 215 c 0,14,15
 477.732 127 477.732 127 575.832 127 c 0,16,17
 670.332 127 670.332 127 728.049 210 c 0,18,19
 785.766 293 785.766 293 818.31 479 c 2,0,-1
1267.07 1223 m 1,20,-1
 1053.11 0 l 1,21,-1
 734.511 0 l 1,22,-1
 758.127 135 l 1,23,24
 703.11 52 703.11 52 627.177 11.5 c 0,25,26
 551.235 -29 551.235 -29 450.435 -29 c 0,27,28
 247.035 -29 247.035 -29 156.729 121 c 0,29,30
 96.7441 220.63 96.7441 220.63 96.7441 369.22 c 0,31,32
 96.7441 444.35 96.7441 444.35 112.08 532 c 0,33,34
 157.917 794 157.917 794 300.531 943 c 0,35,36
 443.145 1092 443.145 1092 646.545 1092 c 0,37,38
 747.345 1092 747.345 1092 809.112 1051.5 c 128,-1,39
 870.879 1011 870.879 1011 896.862 928 c 1,40,-1
 948.468 1223 l 1,41,-1
 656.868 1223 l 1,42,-1
 677.856 1343 l 1,43,-1
 969.456 1343 l 1,44,-1
 985.728 1436 l 1,45,-1
 848.928 1436 l 1,46,-1
 869.925 1556 l 1,47,-1
 1325.33 1556 l 1,48,-1
 1288.06 1343 l 1,49,-1
 1442.86 1343 l 1,50,-1
 1421.87 1223 l 1,51,-1
 1267.07 1223 l 1,20,-1
EndSplineSet
EndChar
StartChar: Hbar
Encoding: 294 294 294
Width: 1838
Flags: W
Fore
52.8496 0 m 1,0,-1
 73.5498 121 l 1,1,-1
 245.45 121 l 1,2,-1
 409.25 1053 l 1,0,0
 237.35 1053 l 1,0,0
 260.75 1190 l 1,0,0
 432.65 1190 l 1,0,0
 465.05 1372 l 1,3,-1
 293.15 1372 l 1,4,-1
 313.85 1493 l 1,5,-1
 1005.05 1493 l 1,6,-1
 984.35 1372 l 1,7,-1
 811.55 1372 l 1,8,-1
 779.15 1190 l 1,0,0
 1313.75 1190 l 1,0,0
 1346.15 1372 l 1,11,-1
 1174.25 1372 l 1,12,-1
 1194.95 1493 l 1,13,-1
 1886.15 1493 l 1,14,-1
 1865.45 1372 l 1,15,-1
 1692.65 1372 l 1,16,-1
 1660.25 1190 l 1,0,0
 1833.05 1190 l 1,0,0
 1809.65 1053 l 1,0,0
 1636.85 1053 l 1,0,0
 1473.05 121 l 1,17,-1
 1645.85 121 l 1,18,-1
 1625.15 0 l 1,19,-1
 933.95 0 l 1,20,-1
 954.65 121 l 1,21,-1
 1126.55 121 l 1,22,-1
 1233.65 733 l 1,23,-1
 699.05 733 l 1,24,-1
 591.95 121 l 1,25,-1
 764.75 121 l 1,26,-1
 744.05 0 l 1,27,-1
 52.8496 0 l 1,0,-1
723.35 870 m 1,9,-1
 1257.95 870 l 1,10,-1
 1290.35 1053 l 1,0,0
 755.75 1053 l 1,0,0
 723.35 870 l 1,9,-1
EndSplineSet
EndChar
StartChar: hbar
Encoding: 295 295 295
Width: 1401
Flags: W
Fore
131.996 0 m 1,0,-1
 341.228 1196 l 1,1,-1
 199.028 1196 l 1,2,-1
 222.995 1333 l 1,3,-1
 365.195 1333 l 1,4,-1
 383.213 1436 l 1,5,-1
 241.013 1436 l 1,6,-1
 262.01 1556 l 1,7,-1
 722.81 1556 l 1,8,-1
 683.795 1333 l 1,9,-1
 1006.89 1333 l 1,10,-1
 982.928 1196 l 1,11,-1
 659.828 1196 l 1,12,-1
 610.319 913 l 1,13,14
 684.542 1008 684.542 1008 765.686 1050 c 0,15,16
 846.83 1092 846.83 1092 959.33 1092 c 0,17,18
 1120.44 1092 1120.44 1092 1184.33 986.5 c 0,19,20
 1225.25 918.93 1225.25 918.93 1225.25 810.54 c 0,21,22
 1225.25 749.7 1225.25 749.7 1212.36 676 c 2,23,-1
 1115.26 121 l 1,24,-1
 1252.06 121 l 1,25,-1
 1230.9 0 l 1,26,-1
 775.496 0 l 1,27,-1
 895.511 686 l 2,28,29
 907.769 756.1 907.769 756.1 907.769 803.95 c 0,30,31
 907.769 848.26 907.769 848.26 897.257 873.5 c 0,32,33
 875.396 926 875.396 926 798.896 926 c 0,34,35
 702.596 926 702.596 926 643.862 847.5 c 128,-1,36
 585.128 769 585.128 769 555.212 598 c 2,37,-1
 450.596 0 l 1,38,-1
 131.996 0 l 1,0,-1
EndSplineSet
EndChar
StartChar: dotlessi
Encoding: 305 305 305
Width: 732
Flags: W
Fore
485.489 121 m 1,0,-1
 622.289 121 l 1,1,-1
 601.121 0 l 1,2,-1
 145.721 0 l 1,3,-1
 310.511 942 l 1,4,-1
 174.611 942 l 1,5,-1
 195.779 1063 l 1,6,-1
 650.279 1063 l 1,7,-1
 485.489 121 l 1,0,-1
EndSplineSet
EndChar
StartChar: kgreenlandic
Encoding: 312 312 312
Width: 1348
Flags: W
Fore
499.406 0 m 1,0,-1
 180.806 0 l 1,1,-1
 345.074 939 l 1,2,-1
 209.174 939 l 1,3,-1
 230.342 1060 l 1,4,-1
 684.842 1060 l 1,5,-1
 596.669 556 l 1,6,-1
 1049.77 939 l 1,7,-1
 935.474 939 l 1,8,-1
 956.642 1060 l 1,9,-1
 1215.84 1060 l 1,10,-1
 1194.67 939 l 1,11,-1
 905.387 695 l 1,12,-1
 1208.17 121 l 1,13,-1
 1311.67 121 l 1,14,-1
 1290.51 0 l 1,15,-1
 938.606 0 l 1,16,-1
 675.797 499 l 1,17,-1
 571.307 411 l 1,18,-1
 499.406 0 l 1,0,-1
EndSplineSet
EndChar
StartChar: Lslash
Encoding: 321 321 321
Width: 1373
Flags: W
Fore
32.5205 0 m 1,0,-1
 53.6885 121 l 1,1,-1
 226.488 121 l 1,2,-1
 301.364 549 l 1,3,-1
 85.6465 422 l 1,4,-1
 43.1143 539 l 1,5,-1
 329.005 707 l 1,6,-1
 445.341 1372 l 1,7,-1
 272.541 1372 l 1,8,-1
 293.708 1493 l 1,9,-1
 984.904 1493 l 1,10,-1
 963.741 1372 l 1,11,-1
 791.841 1372 l 1,12,-1
 715.916 938 l 1,13,-1
 1057.08 1139 l 1,14,-1
 1099.61 1022 l 1,15,-1
 687.926 778 l 1,16,-1
 575.787 137 l 1,17,-1
 1104.99 137 l 1,18,-1
 1146.27 373 l 1,19,-1
 1267.77 373 l 1,20,-1
 1202.52 0 l 1,21,-1
 32.5205 0 l 1,0,-1
EndSplineSet
KernsSLIFO: 366 -112 0 0 356 -167 0 0 253 -73 0 0 221 -131 0 0 217 -112 0 0 219 -112 0 0 218 -112 0 0 376 -131 0 0 255 -73 0 0 8217 -311 0 0 8221 -301 0 0 220 -112 0 0 121 -73 0 0 89 -131 0 0 87 -139 0 0 86 -243 0 0 85 -112 0 0 84 -167 0 0
EndChar
StartChar: lslash
Encoding: 322 322 322
Width: 747
Flags: W
Fore
448.354 121 m 1,0,-1
 584.254 121 l 1,1,-1
 563.086 0 l 1,2,-1
 107.686 0 l 1,3,-1
 221.923 653 l 1,4,-1
 65.6289 557 l 1,5,-1
 28.1973 662 l 1,6,-1
 246.763 795 l 1,7,-1
 358.902 1436 l 1,8,-1
 223.003 1436 l 1,9,-1
 243.999 1556 l 1,10,-1
 699.399 1556 l 1,11,-1
 601.956 999 l 1,12,-1
 758.422 1096 l 1,13,-1
 797.652 991 l 1,14,-1
 577.287 858 l 1,15,-1
 448.354 121 l 1,0,-1
EndSplineSet
EndChar
StartChar: Eng
Encoding: 330 330 330
Width: 1778
Flags: W
Fore
44.5254 0 m 1,0,-1
 66.125 121 l 1,1,-1
 238.025 121 l 1,2,-1
 456.725 1372 l 1,3,-1
 284.825 1372 l 1,4,-1
 305.525 1493 l 1,5,-1
 725.825 1493 l 1,6,-1
 1351.78 436 l 1,7,-1
 1516.03 1372 l 1,8,-1
 1345.03 1372 l 1,9,-1
 1365.72 1493 l 1,10,-1
 1835.97 1493 l 1,11,-1
 1814.38 1372 l 1,12,-1
 1642.92 1372 l 1,13,-1
 1402.62 0 l 2,16,17
 1352.22 -290 1352.22 -290 1261.78 -367.5 c 128,-1,18
 1158.72 -455 1158.72 -455 962.075 -455 c 0,19,20
 908.075 -455 908.075 -455 848.675 -445 c 128,-1,21
 789.725 -435 789.725 -435 726.725 -416 c 1,22,-1
 766.325 -191 l 1,23,-1
 868.025 -191 l 1,24,25
 863.525 -221 863.525 -221 863.525 -244.5 c 0,0,0
 863.525 -284.5 863.525 -284.5 876.125 -306.5 c 128,-1,26
 896.375 -342 896.375 -342 955.775 -342 c 0,27,28
 1045.33 -342 1045.33 -342 1088.53 -289 c 128,-1,29
 1125.42 -243 1125.42 -243 1166.83 0 c 1,15,-1
 532.325 1079 l 1,16,-1
 364.925 121 l 1,17,-1
 535.925 121 l 1,18,-1
 514.325 0 l 1,19,-1
 44.5254 0 l 1,0,-1
EndSplineSet
EndChar
StartChar: eng
Encoding: 331 331 331
Width: 1409
Flags: W
Fore
841.456 -125 m 2,0,-1
 983.332 686 l 2,1,2
 995.6 756.1 995.6 756.1 995.6 803.96 c 0,3,4
 995.6 848.26 995.6 848.26 985.088 873.5 c 0,5,6
 963.227 926 963.227 926 886.727 926 c 0,7,8
 790.427 926 790.427 926 731.692 847.5 c 128,-1,9
 672.959 769 672.959 769 643.043 598 c 2,10,-1
 538.427 0 l 1,11,-1
 219.826 0 l 1,12,-1
 384.626 942 l 1,13,-1
 248.726 942 l 1,14,-1
 269.894 1063 l 1,15,-1
 724.394 1063 l 1,16,-1
 698.149 913 l 1,17,18
 772.372 1008 772.372 1008 853.517 1050 c 128,-1,19
 934.66 1092 934.66 1092 1047.16 1092 c 0,20,21
 1208.26 1092 1208.26 1092 1272.16 986.5 c 0,22,23
 1313.08 918.93 1313.08 918.93 1313.08 810.54 c 0,24,25
 1313.08 749.7 1313.08 749.7 1300.19 676 c 2,26,-1
 1160.06 -125 l 2,27,28
 1131.54 -288 1131.54 -288 1012.99 -371.5 c 128,-1,29
 894.431 -455 894.431 -455 691.931 -455 c 0,30,31
 637.931 -455 637.931 -455 578.477 -445 c 0,32,33
 519.022 -435 519.022 -435 456.652 -416 c 1,34,-1
 496.189 -190 l 1,35,-1
 597.71 -191 l 1,36,37
 593.138 -220.99 593.138 -220.99 593.138 -244.72 c 0,38,39
 593.138 -284.31 593.138 -284.31 605.854 -306.5 c 0,40,41
 626.194 -342 626.194 -342 685.595 -342 c 0,42,43
 751.295 -342 751.295 -342 785.62 -295 c 0,44,45
 819.938 -248 819.938 -248 841.456 -125 c 2,0,-1
EndSplineSet
EndChar
StartChar: OE
Encoding: 338 338 338
Width: 2300
Flags: W
Fore
1064.38 121 m 1,0,-1
 1283.22 1372 l 1,1,-1
 1168.92 1372 l 2,2,3
 931.327 1372 931.327 1372 783.261 1215 c 128,-1,4
 635.195 1058 635.195 1058 580.963 748 c 0,5,6
 526.03 434 526.03 434 618.353 277.5 c 128,-1,7
 710.674 121 710.674 121 950.074 121 c 2,8,-1
 1064.38 121 l 1,0,-1
2075.51 0 m 1,9,-1
 886.606 0 l 2,10,11
 700.307 0 700.307 0 582.904 26 c 128,-1,12
 465.503 52 465.503 52 384.575 109 c 1,13,14
 258.319 195 258.319 195 211.311 361 c 128,-1,15
 164.301 527 164.301 527 202.963 748 c 0,16,17
 241.451 968 241.451 968 346.278 1132.5 c 128,-1,18
 451.105 1297 451.105 1297 607.626 1384 c 1,19,20
 707.772 1442 707.772 1442 832.834 1467.5 c 128,-1,21
 957.894 1493 957.894 1493 1147.79 1493 c 2,22,-1
 2320.49 1493 l 1,23,-1
 2258.91 1141 l 1,24,-1
 2135.61 1141 l 1,25,-1
 2173.22 1356 l 1,26,-1
 1628.72 1356 l 1,27,-1
 1544.93 877 l 1,28,-1
 1875.23 877 l 1,29,-1
 1908.47 1067 l 1,30,-1
 2031.77 1067 l 1,31,-1
 1941.5 551 l 1,32,-1
 1818.2 551 l 1,33,-1
 1851.44 741 l 1,34,-1
 1521.14 741 l 1,35,-1
 1415.48 137 l 1,36,-1
 1976.18 137 l 1,37,-1
 2013.79 352 l 1,38,-1
 2137.09 352 l 1,39,-1
 2075.51 0 l 1,9,-1
EndSplineSet
KernsSLIFO: 45 38 0 0
EndChar
StartChar: oe
Encoding: 339 339 339
Width: 1999
Flags: W
Fore
641.816 84 m 0,0,1
 742.616 84 742.616 84 800.361 180 c 128,-1,2
 858.105 276 858.105 276 902.891 532 c 0,3,4
 947.675 788 947.675 788 923.883 883.5 c 128,-1,5
 900.089 979 900.089 979 798.39 979 c 0,6,7
 696.689 979 696.689 979 638.408 882.5 c 128,-1,8
 580.126 786 580.126 786 535.69 532 c 0,9,10
 491.255 278 491.255 278 515.686 181 c 128,-1,11
 540.116 84 540.116 84 641.816 84 c 0,0,1
1578.09 600 m 1,12,13
 1614.82 810 1614.82 810 1594.06 894.5 c 128,-1,14
 1573.29 979 1573.29 979 1489.59 979 c 0,15,16
 1408.59 979 1408.59 979 1359.15 897 c 128,-1,17
 1309.7 815 1309.7 815 1275.23 618 c 2,18,-1
 1272.09 600 l 1,19,-1
 1578.09 600 l 1,12,13
1151.77 936 m 1,20,21
 1233.26 1016 1233.26 1016 1323.61 1054 c 128,-1,22
 1413.96 1092 1413.96 1092 1520.16 1092 c 0,23,24
 1754.16 1092 1754.16 1092 1853.59 935 c 128,-1,25
 1953.03 778 1953.03 778 1909.34 482 c 1,26,-1
 1251.26 481 l 1,27,-1
 1249.87 473 l 2,28,29
 1213.65 266 1213.65 266 1252.63 175 c 128,-1,30
 1291.61 84 1291.61 84 1415.81 84 c 0,31,32
 1519.31 84 1519.31 84 1593.89 145 c 128,-1,33
 1668.46 206 1668.46 206 1706.75 322 c 1,34,-1
 1856.15 322 l 1,35,36
 1790.62 148 1790.62 148 1661.73 59.5 c 128,-1,37
 1532.85 -29 1532.85 -29 1344.75 -29 c 0,38,39
 1225.95 -29 1225.95 -29 1143.58 9.5 c 128,-1,40
 1061.22 48 1061.22 48 1010.24 127 c 1,41,42
 933.768 50 933.768 50 831.458 10.5 c 128,-1,43
 729.147 -29 729.147 -29 607.647 -29 c 0,44,45
 364.647 -29 364.647 -29 249.764 122 c 128,-1,46
 134.88 273 134.88 273 180.19 532 c 0,47,48
 226.2 795 226.2 795 395.729 943.5 c 128,-1,49
 565.258 1092 565.258 1092 818.157 1092 c 0,50,51
 932.458 1092 932.458 1092 1015.28 1053.5 c 128,-1,52
 1098.08 1015 1098.08 1015 1151.77 936 c 1,20,21
EndSplineSet
EndChar
StartChar: Tbar
Encoding: 358 358 358
Width: 1458
Flags: W
TeX: 0 0 0 0
Fore
290.6 0 m 1,0,-1
 311.3 121 l 1,1,-1
 489.5 121 l 1,2,-1
 584 659 l 1,0,0
 361.7 659 l 1,0,0
 395 851 l 1,0,0
 617.3 851 l 1,0,0
 705.5 1356 l 1,3,-1
 337.4 1356 l 1,4,-1
 296.9 1120 l 1,5,-1
 173.6 1120 l 1,6,-1
 238.4 1493 l 1,7,-1
 1570.4 1493 l 1,8,-1
 1505.6 1120 l 1,9,-1
 1384.1 1120 l 1,10,-1
 1424.6 1356 l 1,11,-1
 1053.8 1356 l 1,12,-1
 965.6 851 l 1,0,0
 1187.9 851 l 1,0,0
 1154.6 659 l 1,0,0
 932.3 659 l 1,0,0
 837.8 121 l 1,13,-1
 1016.9 121 l 1,14,-1
 996.2 0 l 1,15,-1
 290.6 0 l 1,0,-1
EndSplineSet
EndChar
StartChar: tbar
Encoding: 359 359 359
Width: 898
Flags: W
TeX: 0 0 0 0
Fore
275.6 942 m 1,0,-1
 137 942 l 1,1,-1
 157.7 1063 l 1,2,-1
 296.3 1063 l 1,3,-1
 353.9 1393 l 1,4,-1
 672.5 1393 l 1,5,-1
 614.9 1063 l 1,6,-1
 880.4 1063 l 1,7,-1
 859.7 942 l 1,8,-1
 594.2 942 l 1,9,-1
 545.6 665 l 1,0,0
 711.2 665 l 1,0,0
 677 473 l 1,0,0
 511.4 473 l 1,0,0
 479.9 291 l 2,10,11
 464.6 202 464.6 202 464.6 157 c 0,0,0
 464.6 130 464.6 130 469.1 118 c 128,-1,12
 483.5 84 483.5 84 535.7 84 c 0,13,14
 593.3 84 593.3 84 628.4 127 c 128,-1,15
 663.5 170 663.5 170 681.5 260 c 1,16,-1
 815.6 260 l 1,17,18
 779.6 100 779.6 100 696.8 36 c 128,-1,19
 615.8 -29 615.8 -29 443 -29 c 0,20,21
 245.9 -29 245.9 -29 187.4 40 c 128,-1,22
 149.6 84 149.6 84 149.6 176 c 0,0,0
 149.6 226 149.6 226 161.3 291 c 2,23,-1
 192.8 473 l 1,0,0
 59.5996 473 l 1,0,0
 93.7998 665 l 1,0,0
 227 665 l 1,0,0
 275.6 942 l 1,0,-1
EndSplineSet
EndChar
StartChar: longs
Encoding: 383 383 383
Width: 845
Flags: W
TeX: 0 0 0 0
Fore
1055.3 1290 m 1,0,-1
 954.497 1290 l 1,1,2
 955.739 1304.99 955.739 1304.99 955.739 1318.49 c 0,0,0
 955.739 1375.3 955.739 1375.3 933.84 1406 c 128,-1,3
 906.738 1444 906.738 1444 844.639 1444 c 0,4,5
 772.639 1444 772.639 1444 730.18 1386.5 c 128,-1,6
 687.719 1329 687.719 1329 665.152 1200 c 2,7,-1
 450.147 -29 l 2,22,23
 419.184 -206 419.184 -206 301.476 -297.5 c 128,-1,24
 183.769 -389 183.769 -389 -13.332 -389 c 0,25,26
 -89.8311 -389 -89.8311 -389 -161.069 -379.5 c 128,-1,27
 -232.308 -370 -232.308 -370 -299.183 -351 c 1,28,-1
 -259.297 -123 l 1,0,-1
 -158.497 -123 l 1,1,2
 -159.735 -137.985 -159.735 -137.985 -159.735 -151.494 c 0,0,0
 -159.735 -208.301 -159.735 -208.301 -137.84 -239 c 128,-1,3
 -110.738 -277 -110.738 -277 -48.6377 -277 c 0,4,5
 23.3623 -277 23.3623 -277 65.8223 -219.5 c 128,-1,6
 108.281 -162 108.281 -162 130.849 -33 c 2,7,-1
 301.418 942 l 1,18,-1
 159.218 942 l 1,19,-1
 180.385 1063 l 1,20,-1
 322.585 1063 l 1,21,-1
 345.853 1196 l 2,22,23
 376.816 1373 376.816 1373 494.524 1464.5 c 128,-1,24
 612.231 1556 612.231 1556 809.332 1556 c 0,25,26
 885.832 1556 885.832 1556 957.071 1546.5 c 128,-1,27
 1028.31 1537 1028.31 1537 1095.19 1518 c 1,28,-1
 1055.3 1290 l 1,0,-1
EndSplineSet
EndChar
StartChar: uni0181
Encoding: 385 385 385
Width: 1628
Flags: W
TeX: 117 0 0 0
Fore
459.591 1493 m 9,0,0
 1084.19 1493 l 18,6,7
 1333.49 1493 1333.49 1493 1437.1 1401 c 128,-1,8
 1543.78 1306 1543.78 1306 1511.94 1124 c 0,9,10
 1488.67 991 1488.67 991 1390.42 913 c 128,-1,11
 1291.28 835 1291.28 835 1120.39 815 c 1,12,13
 1322.89 815 1322.89 815 1409.89 695 c 128,-1,14
 1500.57 596 1500.57 596 1471.88 432 c 0,15,16
 1433.04 210 1433.04 210 1263.47 105 c 128,-1,17
 1094.81 0 1094.81 0 773.504 0 c 2,18,-1
 26.5039 0 l 1,0,-1
 47.6709 121 l 1,1,-1
 219.571 121 l 1,2,-1
 438.424 1372 l 0,20,21
 262.024 1372 262.024 1372 184.354 1283 c 0,22,23
 105.435 1192 105.435 1192 72.8945 1006 c 1,24,-1
 -105.306 1006 l 1,25,-1
 -42.6758 1364 l 1,26,27
 44.0957 1433 44.0957 1433 264.919 1476 c 0,28,29
 353.392 1493 353.392 1493 459.591 1493 c 9,0,0
697.104 870 m 1,19,-1
 815.003 870 l 2,20,21
 969.803 870 969.803 870 1055.35 932 c 128,-1,22
 1141.07 995 1141.07 995 1163.64 1124 c 0,23,24
 1186.38 1254 1186.38 1254 1123.81 1313 c 128,-1,25
 1062.12 1372 1062.12 1372 902.824 1372 c 2,26,-1
 784.924 1372 l 1,27,-1
 697.104 870 l 1,19,-1
566.071 121 m 1,28,-1
 694.771 121 l 2,29,30
 866.671 121 866.671 121 962.767 197 c 128,-1,31
 1058.86 273 1058.86 273 1086.68 432 c 0,32,33
 1114.67 592 1114.67 592 1044.79 671 c 128,-1,34
 974.909 750 974.909 750 804.811 750 c 2,35,-1
 676.11 750 l 1,36,-1
 566.071 121 l 1,28,-1
EndSplineSet
EndChar
StartChar: uni0183
Encoding: 387 387 387
Width: 1349
Flags: W
TeX: 117 0 0 0
Fore
508.957 479 m 2,0,1
 476.417 293 476.417 293 504.196 210 c 0,2,3
 532.877 127 532.877 127 628.276 127 c 0,4,5
 726.377 127 726.377 127 782.272 215 c 0,6,7
 837.267 303 837.267 303 877.328 532 c 0,8,9
 917.39 761 917.39 761 893.01 848 c 0,10,11
 867.904 936 867.904 936 769.805 936 c 0,12,13
 674.404 936 674.404 936 616.685 853 c 0,14,15
 559.865 770 559.865 770 527.324 584 c 2,16,-1
 508.957 479 l 2,0,1
1236.47 1556 m 1,19,-1
 1186.08 1268 l 1,20,-1
 1077.18 1268 l 1,21,-1
 1106.58 1436 l 1,22,-1
 676.376 1436 l 1,23,-1
 587.506 928 l 1,24,25
 642.525 1011 642.525 1011 718.099 1052 c 0,26,27
 793.496 1092 793.496 1092 894.296 1092 c 0,28,29
 1098.59 1092 1098.59 1092 1190.26 942 c 0,30,31
 1281.18 793 1281.18 793 1235.53 532 c 0,32,33
 1189.87 271 1189.87 271 1046.63 121 c 0,34,35
 902.485 -29 902.485 -29 698.186 -29 c 0,36,37
 597.385 -29 597.385 -29 536.158 12 c 0,38,39
 474.756 52 474.756 52 448.776 135 c 1,40,-1
 425.159 0 l 1,41,-1
 -30.2402 0 l 1,42,-1
 -9.07324 121 l 1,43,-1
 127.727 121 l 1,44,-1
 357.776 1436 l 1,45,-1
 220.977 1436 l 1,47,-1
 241.97 1556 l 1,48,-1
 1236.47 1556 l 1,19,-1
EndSplineSet
EndChar
StartChar: uni0184
Encoding: 388 388 388
Width: 1651
Flags: W
TeX: 117 0 0 0
Fore
703.127 870 m 1,1,-1
 821.927 870 l 2,2,3
 1005.83 870 1005.83 870 1129.15 852.375 c 0,4,5
 1140.88 850.698 1140.88 850.698 1149.45 849 c 0,6,7
 1321.05 814.987 1321.05 814.987 1430.37 697.868 c 0,8,9
 1431.69 696.44 1431.69 696.44 1433.01 695 c 0,10,11
 1523.7 596 1523.7 596 1495 432 c 0,12,13
 1456.16 209.997 1456.16 209.997 1287.04 105 c 0,14,15
 1117.91 0 1117.91 0 780.428 0 c 2,16,-1
 32.5273 0 l 1,17,-1
 53.6953 121 l 1,18,-1
 225.595 121 l 1,19,-1
 350.328 834 l 1,20,-1
 92.0283 834 l 1,21,-1
 113.197 955 l 1,22,-1
 812.115 1493 l 1,23,-1
 703.127 870 l 1,1,-1
572.095 121 m 1,27,-1
 701.695 121 l 2,28,29
 883.253 121 883.253 121 980.033 192.523 c 0,30,31
 983.03 194.733 983.03 194.733 985.893 197 c 0,32,33
 1081.99 273.005 1081.99 273.005 1109.8 432 c 0,34,35
 1137.79 592 1137.79 592 1067.91 671 c 0,36,37
 1001.33 746.282 1001.33 746.282 826.375 749.852 c 0,38,39
 819.107 750 819.107 750 811.734 750 c 2,40,-1
 682.135 750 l 1,41,-1
 572.095 121 l 1,27,-1
EndSplineSet
EndChar
StartChar: uni0185
Encoding: 389 389 389
Width: 1349
Flags: W
TeX: 117 0 0 0
Fore
508.857 479 m 2,0,1
 476.317 293 476.317 293 504.547 210 c 0,2,3
 532.777 127 532.777 127 628.178 127 c 0,4,5
 726.277 127 726.277 127 781.722 215 c 0,6,7
 837.167 303 837.167 303 877.229 532 c 0,8,9
 917.291 761 917.291 761 892.548 848.5 c 0,10,11
 867.806 936 867.806 936 769.706 936 c 0,12,13
 674.307 936 674.307 936 617.035 853 c 0,14,15
 559.765 770 559.765 770 527.227 584 c 2,16,-1
 508.857 479 l 2,0,1
103.701 1008 m 1,17,-1
 124.695 1128 l 1,0,0
 697.445 1557 l 1,19,-1
 587.405 928 l 1,24,25
 642.427 1011 642.427 1011 717.912 1051.5 c 0,26,27
 793.396 1092 793.396 1092 894.197 1092 c 0,28,29
 1098.5 1092 1098.5 1092 1189.8 942.5 c 0,30,31
 1281.09 793 1281.09 793 1235.43 532 c 0,32,33
 1189.77 271 1189.77 271 1046.07 121 c 0,34,35
 902.386 -29 902.386 -29 698.086 -29 c 0,36,37
 597.286 -29 597.286 -29 535.972 11.5 c 0,38,39
 474.657 52 474.657 52 448.676 135 c 1,40,-1
 425.06 0 l 1,41,-1
 -30.3408 0 l 1,42,-1
 -9.17188 121 l 1,43,-1
 127.628 121 l 1,44,-1
 281.901 1008 l 1,47,-1
 103.701 1008 l 1,17,-1
EndSplineSet
EndChar
StartChar: uni0186
Encoding: 390 390 390
Width: 1545
Flags: W
TeX: 117 0 0 0
Fore
99.9697 426 m 1,0,1
 279.07 426 l 1,26,-1
 288.379 258 288.379 258 358.909 175 c 128,-1,25
 429.439 92 429.439 92 563.54 92 c 0,23,24
 761.54 92 761.54 92 884.93 252 c 128,-1,22
 1008.32 412 1008.32 412 1066.57 745 c 0,20,21
 1124.83 1078 1124.83 1078 1057.51 1238.5 c 128,-1,19
 990.191 1399 990.191 1399 793.988 1399 c 0,17,18
 641.889 1399 641.889 1399 532.832 1305.5 c 128,-1,16
 423.775 1212 423.775 1212 355.785 1024 c 1,14,15
 241.485 1024 l 1,13,-1
 305.689 1391 l 1,12,-1
 461.96 1456 461.96 1456 597.158 1488 c 128,-1,11
 732.357 1520 732.357 1520 852.057 1520 c 0,9,10
 1192.26 1520 1192.26 1520 1353.33 1311.5 c 128,-1,8
 1514.41 1103 1514.41 1103 1451.77 745 c 0,6,7
 1389.32 388 1389.32 388 1155.3 179.5 c 128,-1,5
 921.271 -29 921.271 -29 581.07 -29 c 0,3,4
 348.871 -29 348.871 -29 230.765 83 c 128,-1,2
 112.658 195 112.658 195 99.9697 426 c 1,0,1
EndSplineSet
EndChar
StartChar: uni0187
Encoding: 391 391 391
Width: 1570
Flags: W
TeX: 117 0 0 0
Fore
1403.2 426 m 1,0,1
 1309.69 195 1309.69 195 1152.4 83 c 0,2,3
 995.102 -29 995.102 -29 762.901 -29 c 0,4,5
 422.701 -29 422.701 -29 262.165 180 c 0,6,7
 100.553 388 100.553 388 163.007 745 c 0,8,9
 225.637 1103 225.637 1103 460.199 1312 c 0,10,11
 693.688 1520 693.688 1520 1033.89 1520 c 0,12,13
 1153.58 1520 1153.58 1520 1277.59 1488 c 0,14,15
 1327.52 1475 1327.52 1475 1379.27 1457 c 1,16,17
 1416.61 1583 1416.61 1583 1504.28 1652 c 0,18,19
 1592.85 1721 1592.85 1721 1684.65 1721 c 0,20,21
 1738.65 1721 1738.65 1721 1798.1 1711 c 0,22,23
 1857.56 1701 1857.56 1701 1919.93 1682 c 1,24,-1
 1880.57 1457 l 1,25,-1
 1778.87 1457 l 1,26,27
 1792.86 1537 1792.86 1537 1771.08 1572 c 0,28,29
 1750.38 1608 1750.38 1608 1690.98 1608 c 0,30,31
 1625.28 1608 1625.28 1608 1590.96 1561 c 0,32,33
 1556.64 1514 1556.64 1514 1535.12 1391 c 2,34,-1
 1470.92 1024 l 1,35,-1
 1356.62 1024 l 1,36,37
 1354.4 1212 1354.4 1212 1278.15 1306 c 0,38,39
 1201.72 1399 1201.72 1399 1049.62 1399 c 0,40,41
 853.419 1399 853.419 1399 729.854 1238 c 0,42,43
 606.464 1078 606.464 1078 548.207 745 c 0,44,45
 489.951 412 489.951 412 557.36 252 c 0,46,47
 624.771 92 624.771 92 822.771 92 c 0,48,49
 956.87 92 956.87 92 1056.89 175 c 0,50,51
 1156.01 258 1156.01 258 1224.1 426 c 1,52,-1
 1403.2 426 l 1,0,1
EndSplineSet
EndChar
StartChar: uni0188
Encoding: 392 392 392
Width: 1205
Flags: W
TeX: 117 0 0 0
Fore
1056.1 332 m 1,0,1
 990.057 150 990.057 150 869.01 60 c 0,2,3
 747.24 -29 747.24 -29 565.44 -29 c 0,4,5
 309.84 -29 309.84 -29 195.157 118 c 0,6,7
 80.4736 265 80.4736 265 127.184 532 c 0,8,9
 173.368 796 173.368 796 337.859 944 c 0,10,11
 502.351 1092 502.351 1092 748.95 1092 c 0,12,13
 847.95 1092 847.95 1092 945.076 1071 c 1,14,-1
 954.175 1123 l 2,15,16
 982.689 1286 982.689 1286 1101.78 1370 c 0,17,18
 1219.81 1453 1219.81 1453 1312.51 1453 c 0,19,20
 1366.51 1453 1366.51 1453 1425.95 1443 c 0,21,22
 1485.41 1433 1485.41 1433 1547.79 1414 c 1,23,-1
 1508.42 1189 l 1,24,-1
 1406.72 1189 l 1,25,26
 1420.72 1269 1420.72 1269 1398.04 1304 c 0,27,28
 1378.24 1340 1378.24 1340 1318.84 1340 c 0,29,30
 1253.14 1340 1253.14 1340 1218.81 1293 c 0,31,32
 1184.49 1246 1184.49 1246 1162.97 1123 c 2,33,-1
 1142.86 1008 l 1,34,-1
 1091.24 713 l 1,35,-1
 990.443 713 l 1,36,37
 999.669 848 999.669 848 954.511 914 c 0,38,39
 909.182 979 909.182 979 806.582 979 c 0,40,41
 673.382 979 673.382 979 600.088 879 c 0,42,43
 525.894 779 525.894 779 482.684 532 c 0,44,45
 440.521 291 440.521 291 477.403 188 c 0,46,47
 514.108 84 514.108 84 638.309 84 c 0,48,49
 734.608 84 734.608 84 803.404 148 c 0,50,51
 873.102 212 873.102 212 906.695 332 c 1,52,-1
 1056.1 332 l 1,0,1
EndSplineSet
EndChar
StartChar: uni018A
Encoding: 394 394 394
Width: 1674
Flags: W
TeX: 117 0 0 0
Fore
464.632 1493 m 2,0,0
 982.128 1493 l 2,15,16
 1343.93 1493 1343.93 1493 1502.04 1301 c 128,-1,17
 1660.15 1109 1660.15 1109 1597 748 c 0,18,19
 1533.5 385 1533.5 385 1307.14 192 c 128,-1,20
 1081.85 0 1081.85 0 720.944 0 c 2,21,-1
 31.5439 0 l 1,9,-1
 52.7119 121 l 1,10,-1
 224.611 121 l 1,11,-1
 443.465 1372 l 17,20,21
 267.064 1372 267.064 1372 189.395 1283 c 0,22,23
 110.475 1192 110.475 1192 77.9355 1006 c 1,24,-1
 -100.266 1006 l 1,25,-1
 -37.6348 1364 l 1,26,27
 49.1357 1433 49.1357 1433 269.959 1476 c 0,28,29
 358.432 1493 358.432 1493 464.632 1493 c 2,0,0
571.111 121 m 1,0,-1
 696.211 121 l 2,1,2
 906.812 121 906.812 121 1031.15 271 c 128,-1,3
 1154.59 421 1154.59 421 1211.8 748 c 0,4,5
 1268.65 1073 1268.65 1073 1197.53 1222 c 128,-1,6
 1126.56 1372 1126.56 1372 915.064 1372 c 2,7,-1
 789.965 1372 l 1,8,-1
 571.111 121 l 1,0,-1
EndSplineSet
EndChar
StartChar: uni018B
Encoding: 395 395 395
Width: 1665
Flags: W
TeX: 117 0 0 0
Fore
1151.88 1356 m 1,0,-1
 486.788 1356 l 1,26,-1
 445.501 1120 l 1,25,-1
 324.001 1120 l 1,24,-1
 389.254 1493 l 1,23,-1
 1694.25 1493 l 1,22,-1
 1673.08 1372 l 1,21,-1
 1501.18 1372 l 1,20,-1
 1282.34 121 l 1,19,-1
 1454.24 121 l 1,18,-1
 1433.07 0 l 1,17,-1
 685.167 0 l 2,16,-1
 347.667 0 347.667 0 215.734 105 c 0,14,15
 82.9033 210 82.9033 210 121.741 432 c 0,12,13
 150.432 596 150.432 596 275.75 695 c 0,10,11
 277.726 696 277.726 696 279.875 698 c 0,8,9
 429.943 815 429.943 815 613.191 849 c 0,6,7
 622.541 851 622.541 851 634.417 852 c 0,4,5
 764.466 870 764.466 870 948.065 870 c 2,2,3
 1066.87 870 l 1,1,-1
 1151.88 1356 l 1,0,-1
935.834 121 m 1,27,-1
 1045.87 750 l 1,41,-1
 916.273 750 l 2,40,-1
 901.873 750 l 0,38,39
 726.373 750 726.373 750 632.452 671 c 0,36,37
 534.932 592 534.932 592 506.94 432 c 0,34,35
 479.125 273 479.125 273 548.63 197 c 0,32,33
 553.329 193 l 0,30,31
 624.434 121 624.434 121 806.233 121 c 2,28,29
 935.834 121 l 1,27,-1
EndSplineSet
EndChar
StartChar: uni018C
Encoding: 396 396 396
Width: 1363
Flags: W
TeX: 117 0 0 0
Fore
784.238 479 m 2,0,-1
 802.606 584 l 2,1,2
 835.146 770 835.146 770 806.467 853 c 0,3,4
 778.687 936 778.687 936 683.286 936 c 0,5,6
 585.187 936 585.187 936 530.191 848 c 0,7,8
 474.472 761 474.472 761 434.41 532 c 0,9,10
 394.349 303 394.349 303 419.454 215 c 0,11,12
 443.658 127 443.658 127 541.759 127 c 0,13,14
 637.158 127 637.158 127 693.979 210 c 0,15,16
 751.698 293 751.698 293 784.238 479 c 2,0,-1
1406.16 1436 m 1,20,-1
 1270.26 1436 l 1,21,-1
 1040.21 121 l 1,22,-1
 1177.01 121 l 1,23,-1
 1155.84 0 l 1,24,-1
 700.441 0 l 1,25,-1
 724.058 135 l 1,26,27
 669.037 52 669.037 52 593.64 12 c 0,28,29
 518.066 -29 518.066 -29 417.267 -29 c 0,30,31
 212.967 -29 212.967 -29 122.208 121 c 0,32,33
 30.5498 271 30.5498 271 76.21 532 c 0,34,35
 121.87 793 121.87 793 265.836 942 c 0,36,37
 409.078 1092 409.078 1092 613.378 1092 c 0,38,39
 714.178 1092 714.178 1092 775.58 1052 c 0,40,41
 836.808 1011 836.808 1011 862.787 928 c 1,42,-1
 951.658 1436 l 1,43,-1
 521.458 1436 l 1,44,-1
 492.066 1268 l 1,45,-1
 383.167 1268 l 1,46,-1
 433.552 1556 l 1,47,-1
 1427.15 1556 l 1,48,-1
 1406.16 1436 l 1,20,-1
EndSplineSet
EndChar
StartChar: uni018D
Encoding: 397 397 397
Width: 1300
Flags: W
TeX: 117 0 0 0
Fore
937.736 41 m 8,0,1
 1067.99 -53 1067.99 -53 1042.8 -197 c 0,2,3
 1013.24 -366 1013.24 -366 881.464 -435 c 0,4,5
 869.614 -441 l 0,6,7
 742.493 -504 742.493 -504 547.193 -504 c 0,8,9
 457.193 -504 457.193 -504 348.767 -491 c 0,10,11
 243.041 -478 243.041 -478 142.84 -454 c 1,12,-1
 180.103 -241 l 1,13,-1
 280.902 -241 l 1,14,15
 279.104 -277 279.104 -277 289.831 -298 c 0,16,17
 296.381 -312 296.381 -312 331.108 -345 c 1,18,19
 382.461 -391 382.461 -391 478.762 -391 c 0,20,21
 586.762 -391 586.762 -391 652.759 -343 c 1,22,-1
 687.182 -316 l 1,23,24
 728.404 -281 728.404 -281 736.6 -193 c 0,25,26
 765.29 -29 765.29 -29 630.29 -29 c 1,27,28
 375.59 -29 375.59 -29 259.457 120 c 0,29,30
 142.423 269 142.423 269 188.258 531 c 0,31,32
 234.093 793 234.093 793 404.158 942 c 128,-1,33
 573.5 1092 573.5 1092 826.399 1092 c 128,-1,34
 1079.3 1092 1079.3 1092 1196.16 942 c 128,-1,35
 1314.1 793 1314.1 793 1268.26 531 c 0,36,37
 1222.25 268 1222.25 268 1052.36 120 c 0,38,39
 951.286 31 951.286 31 937.736 41 c 8,0,1
806.632 979 m 0,40,41
 705.831 979 705.831 979 647.638 883 c 128,-1,42
 590.343 787 590.343 787 545.558 531 c 128,-1,43
 500.772 275 500.772 275 524.653 180 c 128,-1,44
 548.358 84 548.358 84 650.059 84 c 128,-1,45
 751.759 84 751.759 84 809.953 180 c 128,-1,46
 868.322 277 868.322 277 912.758 531 c 128,-1,47
 957.192 785 957.192 785 932.763 882 c 128,-1,48
 908.331 979 908.331 979 806.632 979 c 0,40,41
EndSplineSet
EndChar
StartChar: uni018E
Encoding: 398 398 398
Width: 1482
Flags: W
TeX: 117 0 0 0
Fore
1257.41 0 m 1,0,-1
 33.4053 0 l 1,23,-1
 94.9854 352 l 1,22,-1
 218.285 352 l 1,21,-1
 180.672 137 l 1,20,-1
 762.973 137 l 1,19,-1
 868.638 741 l 1,18,-1
 516.737 741 l 1,17,-1
 483.499 551 l 1,16,-1
 360.199 551 l 1,15,-1
 450.469 1067 l 1,14,-1
 573.769 1067 l 1,13,-1
 540.529 877 l 1,12,-1
 892.429 877 l 1,11,-1
 976.228 1356 l 1,10,-1
 411.027 1356 l 1,9,-1
 373.414 1141 l 1,8,-1
 249.215 1141 l 1,7,-1
 310.793 1493 l 1,6,-1
 1518.59 1493 l 1,5,-1
 1497.42 1372 l 1,4,-1
 1325.52 1372 l 1,3,-1
 1106.68 121 l 1,2,-1
 1278.58 121 l 1,1,-1
 1257.41 0 l 1,0,-1
EndSplineSet
EndChar
StartChar: uni018F
Encoding: 399 399 399
Width: 1694
Flags: W
TeX: 117 0 0 0
Fore
1243.32 830 m 1,0,1
 1290.38 1099 1290.38 1099 1221.1 1238 c 0,2,3
 1153.69 1398 1153.69 1398 955.691 1398 c 0,4,5
 821.592 1398 821.592 1398 721.571 1315 c 0,6,7
 622.45 1232 622.45 1232 554.185 1063 c 1,8,-1
 375.085 1063 l 1,9,10
 468.598 1294 468.598 1294 626.065 1407 c 0,11,12
 783.358 1519 783.358 1519 1015.56 1519 c 0,13,14
 1355.76 1519 1355.76 1519 1516.3 1310 c 0,15,16
 1677.9 1102 1677.9 1102 1615.45 745 c 0,17,18
 1552.12 383 1552.12 383 1323.48 177 c 0,19,20
 1093.95 -29 1093.95 -29 755.549 -29 c 0,21,22
 416.249 -29 416.249 -29 259.687 177 c 0,23,24
 103.125 383 103.125 383 166.454 745 c 2,25,-1
 181.323 830 l 1,26,-1
 1243.32 830 l 1,0,1
1216.06 669 m 1,27,-1
 539.259 669 l 1,28,29
 490.1 388 490.1 388 550.357 254 c 0,30,31
 612.016 92 612.016 92 776.716 92 c 0,32,33
 948.616 92 948.616 92 1060.49 253 c 0,34,35
 1168.13 395 1168.13 395 1216.06 669 c 1,27,-1
EndSplineSet
EndChar
StartChar: uni0190
Encoding: 400 400 400
Width: 1355
Flags: W
TeX: 117 0 0 0
Fore
1331.42 1450 m 1,0,1
 1279.11 1151 l 1,42,-1
 1170.21 1151 l 1,41,-1
 1179.13 1274 1179.13 1274 1128.31 1338.5 c 128,-1,40
 1077.49 1403 1077.49 1403 971.295 1403 c 0,38,39
 854.295 1403 854.295 1403 779.938 1335.5 c 128,-1,37
 705.577 1268 705.577 1268 683.36 1141 c 0,35,36
 659.743 1006 659.743 1006 714.447 938 c 128,-1,34
 769.15 870 769.15 870 901.451 870 c 2,32,33
 948.251 870 l 1,31,-1
 927.259 750 l 1,30,-1
 867.858 750 l 2,29,-1
 724.759 750 724.759 750 631.514 662 c 128,-1,28
 538.269 574 538.269 574 509.928 412 c 0,26,27
 482.812 257 482.812 257 542.729 172.5 c 128,-1,25
 602.646 88 602.646 88 739.446 88 c 0,23,24
 863.646 88 863.646 88 946.88 162.5 c 128,-1,22
 1030.12 237 1030.12 237 1064.85 379 c 1,20,21
 1173.75 379 l 1,19,-1
 1116.37 51 l 1,18,-1
 986.078 11 986.078 11 869.627 -9 c 128,-1,17
 753.178 -29 753.178 -29 646.978 -29 c 0,15,16
 364.378 -29 364.378 -29 234.935 82.5 c 128,-1,14
 105.49 194 105.49 194 142.053 403 c 0,12,13
 173.018 580 173.018 580 277.262 682 c 128,-1,11
 381.506 784 381.506 784 562.43 815 c 1,9,10
 423.502 844 423.502 844 363.498 928 c 128,-1,8
 303.493 1012 303.493 1012 327.11 1147 c 0,6,7
 358.6 1327 358.6 1327 505.532 1423.5 c 128,-1,5
 652.464 1520 652.464 1520 895.464 1520 c 0,3,4
 1001.67 1520 1001.67 1520 1110.21 1502.5 c 128,-1,2
 1218.74 1485 1218.74 1485 1331.42 1450 c 1,0,1
EndSplineSet
EndChar
StartChar: uni0191
Encoding: 401 401 401
Width: 1371
Flags: W
TeX: 117 0 0 0
Fore
41.1543 -426 m 0,0,1
 -106.446 -426 -106.446 -426 -251.15 -358 c 1,2,-1
 -210.038 -123 l 1,3,-1
 -93.0381 -123 l 1,4,5
 -118.056 -266 -118.056 -266 -33.3027 -296 c 0,6,7
 -11.4785 -305 -11.4785 -305 18.2217 -305 c 0,8,9
 105.521 -305 105.521 -305 152.843 -230 c 0,10,11
 201.963 -155 201.963 -155 236.751 49 c 1,12,-1
 468.2 1372 l 1,13,-1
 296.3 1372 l 1,14,-1
 317.468 1493 l 1,15,-1
 1515.37 1493 l 1,16,-1
 1453.79 1141 l 1,17,-1
 1330.49 1141 l 1,18,-1
 1368.1 1356 l 1,19,-1
 813.701 1356 l 1,20,-1
 729.904 877 l 1,21,-1
 1071 877 l 1,22,-1
 1104.24 1067 l 1,23,-1
 1227.54 1067 l 1,24,-1
 1137.27 551 l 1,25,-1
 1013.97 551 l 1,26,-1
 1047.21 741 l 1,27,-1
 706.111 741 l 1,28,-1
 583.652 41 l 2,29,30
 537.643 -222 537.643 -222 387.898 -332 c 0,31,32
 259.854 -426 259.854 -426 41.1543 -426 c 0,0,1
EndSplineSet
EndChar
StartChar: florin
Encoding: 402 402 402
Width: 1349
Flags: W
Fore
675.541 1135 m 1,0,1
 729.13 1323 729.13 1323 850.762 1421.5 c 128,-1,2
 972.389 1520 972.389 1520 1152.39 1520 c 0,3,4
 1212.69 1520 1212.69 1520 1279.44 1508 c 128,-1,5
 1346.2 1496 1346.2 1496 1422.27 1473 c 1,6,-1
 1381.33 1239 l 1,7,-1
 1272.43 1239 l 1,8,9
 1288.18 1329 1288.18 1329 1271.6 1368 c 128,-1,10
 1255.03 1407 1255.03 1407 1201.03 1407 c 0,11,12
 1133.53 1407 1133.53 1407 1092.05 1350 c 128,-1,13
 1050.58 1293 1050.58 1293 1000.02 1112 c 1,14,-1
 917.609 821 l 1,15,-1
 1153.41 821 l 1,16,-1
 1132.24 700 l 1,17,-1
 883.841 700 l 1,18,-1
 671.259 -47 l 1,19,20
 619.645 -234 619.645 -234 496.575 -333 c 128,-1,21
 373.507 -432 373.507 -432 193.507 -432 c 0,22,23
 131.407 -432 131.407 -432 64.5684 -420.5 c 128,-1,24
 -2.26953 -409 -2.26953 -409 -77.2715 -385 c 1,25,-1
 -36.5098 -152 l 1,26,-1
 72.3896 -152 l 1,27,28
 56.8203 -241 56.8203 -241 74.2979 -280 c 128,-1,29
 91.7754 -319 91.7754 -319 144.875 -319 c 0,30,31
 213.275 -319 213.275 -319 254.659 -262.5 c 128,-1,32
 296.044 -206 296.044 -206 347.508 -25 c 2,33,-1
 553.541 700 l 1,34,-1
 335.741 700 l 1,35,-1
 356.909 821 l 1,36,-1
 587.31 821 l 1,37,-1
 675.541 1135 l 1,0,1
EndSplineSet
EndChar
StartChar: uni0193
Encoding: 403 403 403
Width: 1679
Flags: W
TeX: 117 0 0 0
Fore
1423.85 1435 m 1,29,-1
 1472.57 1590 1472.57 1590 1552.72 1652 c 0,30,31
 1641.29 1721 1641.29 1721 1733.08 1721 c 0,32,33
 1787.08 1721 1787.08 1721 1846.54 1711 c 0,34,35
 1905.99 1701 1905.99 1701 1968.36 1682 c 1,36,-1
 1929.01 1457 l 1,37,-1
 1827.31 1457 l 1,38,39
 1841.3 1537 1841.3 1537 1818.62 1572 c 0,40,41
 1798.82 1608 1798.82 1608 1739.42 1608 c 0,42,43
 1673.72 1608 1673.72 1608 1639.39 1561 c 0,44,45
 1605.08 1514 1605.08 1514 1583.56 1391 c 2,46,-1
 1519.35 1024 l 1,47,-1
 1405.05 1024 l 1,48,49
 1399.19 1222 1399.19 1222 1320.08 1310 c 128,-1,2
 1241.15 1399 1241.15 1399 1069.25 1399 c 0,3,4
 860.456 1399 860.456 1399 734.891 1242 c 128,-1,5
 610.05 1084 610.05 1084 550.743 745 c 0,6,7
 491.964 409 491.964 409 557.747 250 c 128,-1,8
 623.707 92 623.707 92 821.707 92 c 0,9,10
 897.308 92 897.308 92 965.431 111 c 128,-1,11
 1033.55 130 1033.55 130 1093.3 168 c 1,12,-1
 1165.03 578 l 1,13,-1
 1003.03 578 l 1,14,-1
 1024.02 698 l 1,15,-1
 1508.22 698 l 1,16,-1
 1407.98 125 l 1,17,18
 1243.13 47 1243.13 47 1086.18 9 c 128,-1,19
 928.338 -29 928.338 -29 770.838 -29 c 0,20,21
 425.238 -29 425.238 -29 264.352 178 c 128,-1,22
 102.564 385 102.564 385 165.544 745 c 0,23,24
 228.698 1106 228.698 1106 462.91 1313 c 128,-1,25
 696.225 1520 696.225 1520 1041.82 1520 c 0,26,27
 1254.22 1520 1254.22 1520 1319.72 1488 c 128,-1,28
 1423.85 1435 l 1,29,-1
EndSplineSet
EndChar
StartChar: uni0194
Encoding: 404 404 404
Width: 1514
Flags: W
TeX: 0 0 0 0
Fore
711.542 710 m 0,0,0
 397.533 1386 l 1,8,-1
 231.934 1386 l 1,9,-1
 250.652 1493 l 1,10,-1
 863.372 1493 l 1,11,-1
 844.653 1386 l 1,12,-1
 794.434 1386 l 1,13,-1
 961.527 966 l 1,14,-1
 1314.68 1386 l 1,15,-1
 1135.49 1386 l 1,16,-1
 1154.21 1493 l 1,17,-1
 1660.33 1493 l 1,18,-1
 1641.6 1386 l 1,19,-1
 1467.72 1386 l 1,20,-1
 1011.41 855 l 0,0,0
 1386.08 90 1386.08 90 1192.71 -44 c 0,0,0
 985.939 -188 985.939 -188 641.743 -188 c 16,0,0
 275.354 -188 275.354 -188 246.171 12 c 0,0,0
 219.582 193 219.582 193 711.542 710 c 0,0,0
767.924 595 m 1,0,0
 415.331 212.406 415.331 212.406 394.329 80 c 24,0,0
 370.582 -69.7031 370.582 -69.7031 662.911 -67 c 16,0,0
 922.929 -64.5957 922.929 -64.5957 935.203 85 c 16,0,0
 944.82 202.221 944.82 202.221 767.924 595 c 1,0,0
EndSplineSet
EndChar
StartChar: uni0195
Encoding: 405 405 405
Width: 2018
Flags: W
TeX: 117 0 0 0
Fore
1182.2 346 m 18,0,0
 1142.66 120 1142.66 120 1279.63 121 c 24,9,10
 1370.53 121 1370.53 121 1446.83 233 c 0,11,12
 1522.22 345 1522.22 345 1554.58 530 c 0,13,14
 1582.75 691 1582.75 691 1561.75 787 c 0,15,16
 1535.21 908 1535.21 908 1512.94 935 c 1,17,-1
 1520.63 979 l 1,18,-1
 1636.73 979 l 1,19,20
 1783.94 915 1783.94 915 1854.08 786 c 0,21,22
 1924.93 656 1924.93 656 1900.09 514 c 0,23,24
 1881.19 406 1881.19 406 1818.88 307 c 0,25,26
 1757.46 208 1757.46 208 1661.88 135 c 0,27,28
 1575.46 68 1575.46 68 1472.14 33 c 0,29,30
 1367.74 -3 1367.74 -3 1257.94 -3 c 8,0,1
 802.542 -3 802.542 -3 863.947 348 c 10,2,-1
 923.077 686 l 18,0,0
 946.695 821 946.695 821 925.367 874 c 128,-1,22
 902.965 926 902.965 926 826.465 926 c 0,23,24
 730.164 926 730.164 926 671.519 848 c 128,-1,25
 612.698 769 612.698 769 582.783 598 c 2,26,-1
 499.336 121 l 1,27,-1
 616.336 121 l 1,28,-1
 595.167 0 l 1,29,-1
 23.668 0 l 1,0,-1
 44.8359 121 l 1,1,-1
 180.736 121 l 1,2,-1
 410.784 1436 l 1,3,-1
 268.584 1436 l 1,4,-1
 289.578 1556 l 1,5,-1
 750.378 1556 l 1,6,-1
 637.89 913 l 1,7,8
 712.109 1008 712.109 1008 793.257 1050 c 128,-1,9
 874.404 1092 874.404 1092 986.904 1092 c 0,10,11
 1148.01 1092 1148.01 1092 1211.36 986 c 128,-1,12
 1275.79 881 1275.79 881 1239.92 676 c 10,13,-1
 1182.2 346 l 18,0,0
EndSplineSet
EndChar
StartChar: uni0196
Encoding: 406 406 406
Width: 922
Flags: W
TeX: 117 0 0 0
Fore
246.798 337 m 2,2,-1
 427.863 1372 l 1,3,-1
 255.963 1372 l 1,4,-1
 277.13 1493 l 1,5,-1
 968.326 1493 l 1,6,-1
 947.163 1372 l 1,7,-1
 774.363 1372 l 1,8,-1
 595.747 351 l 2,9,-1
 572.83 220 572.83 220 597.433 160 c 0,7,8
 622.762 99 622.762 99 708.262 99 c 1,9,-1
 690.943 0 l 1,10,-1
 510.943 0 l 2,11,12
 330.043 0 330.043 0 300.941 24 c 0,13,14
 205.687 102 205.687 102 246.798 337 c 2,2,-1
EndSplineSet
EndChar
StartChar: uni0197
Encoding: 407 407 407
Width: 910
Flags: W
TeX: 117 0 0 0
Fore
671.081 851 m 1,0,-1
 894.28 851 l 1,1,-1
 860.692 659 l 1,2,-1
 637.492 659 l 1,3,-1
 543.373 121 l 1,4,-1
 716.173 121 l 1,5,-1
 695.006 0 l 1,6,-1
 3.80566 0 l 1,7,-1
 24.9736 121 l 1,8,-1
 196.873 121 l 1,9,-1
 290.992 659 l 1,10,-1
 66.8926 659 l 1,11,-1
 100.481 851 l 1,12,-1
 324.581 851 l 1,13,-1
 415.727 1372 l 1,14,-1
 243.826 1372 l 1,15,-1
 264.993 1493 l 1,16,-1
 956.189 1493 l 1,17,-1
 935.026 1372 l 1,18,-1
 762.227 1372 l 1,19,-1
 671.081 851 l 1,0,-1
EndSplineSet
EndChar
StartChar: uni0198
Encoding: 408 408 408
Width: 1699
Flags: W
TeX: 117 0 0 0
Fore
1511.71 1332 m 2,15,-1
 996.159 911 l 1,16,-1
 1514.06 121 l 1,17,-1
 1646.36 121 l 1,18,-1
 1625.19 0 l 1,19,-1
 1169.79 0 l 1,20,-1
 698.12 725 l 1,21,-1
 592.454 121 l 1,22,-1
 765.254 121 l 1,23,-1
 744.087 0 l 1,24,-1
 52.8867 0 l 1,0,-1
 74.0547 121 l 1,1,-1
 245.954 121 l 1,2,-1
 464.808 1372 l 1,3,-1
 292.907 1372 l 1,4,-1
 314.074 1493 l 1,5,-1
 1005.27 1493 l 1,6,-1
 984.107 1372 l 1,7,-1
 811.308 1372 l 1,8,-1
 715.963 827 l 1,9,-1
 1381 1372 l 2,17,18
 1526.03 1491 1526.03 1491 1653.27 1493 c 0,19,20
 1700.07 1493 1700.07 1493 1766.9 1484 c 0,21,22
 1826.35 1474 1826.35 1474 1888.73 1455 c 1,23,-1
 1849.36 1230 l 1,24,-1
 1747.66 1230 l 1,25,26
 1761.66 1310 1761.66 1310 1739.16 1346 c 0,27,28
 1717.91 1384 1717.91 1384 1659.78 1381 c 0,29,30
 1565.48 1377 1565.48 1377 1511.71 1332 c 2,15,-1
EndSplineSet
EndChar
StartChar: uni0199
Encoding: 409 409 409
Width: 1343
Flags: W
TeX: 117 0 0 0
Fore
344.082 1226 m 2,4,-1
 372.599 1389 372.599 1389 490.618 1472 c 0,8,9
 609.714 1556 609.714 1556 812.214 1556 c 0,10,11
 866.214 1556 866.214 1556 925.664 1546 c 128,-1,12
 985.114 1536 985.114 1536 1047.49 1517 c 1,13,-1
 1008.13 1292 l 1,14,-1
 906.429 1292 l 1,15,16
 920.425 1372 920.425 1372 898.822 1408 c 128,-1,17
 877.945 1443 877.945 1443 818.545 1443 c 0,18,19
 752.846 1443 752.846 1443 718.522 1396 c 0,20,21
 683.852 1347 683.852 1347 662.683 1226 c 2,7,-1
 545.646 557 l 1,8,-1
 999.101 942 l 1,9,-1
 884.799 942 l 1,10,-1
 905.967 1063 l 1,11,-1
 1342.47 1063 l 1,12,-1
 1321.3 942 l 1,13,-1
 1144 942 l 1,14,-1
 854.363 696 l 1,15,-1
 1156.97 121 l 1,16,-1
 1260.47 121 l 1,17,-1
 1239.3 0 l 1,18,-1
 690.304 0 l 1,19,-1
 711.472 121 l 1,20,-1
 823.972 121 l 1,21,-1
 624.774 500 l 1,22,-1
 520.279 412 l 1,23,-1
 469.371 121 l 1,24,-1
 589.972 121 l 1,25,-1
 568.804 0 l 1,0,-1
 -6.2959 0 l 1,1,-1
 14.8711 121 l 1,2,-1
 150.771 121 l 1,3,-1
 344.082 1226 l 2,4,-1
EndSplineSet
EndChar
StartChar: uni019A
Encoding: 410 410 410
Width: 732
Flags: W
TeX: 117 0 0 0
Fore
434.812 121 m 1,0,-1
 571.613 121 l 1,1,-1
 550.444 0 l 1,2,-1
 -40.8545 0 l 1,3,-1
 -19.6875 121 l 1,4,-1
 116.213 121 l 1,5,-1
 178.842 479 l 1,6,-1
 42.9424 479 l 1,7,-1
 64.1104 600 l 1,8,-1
 200.01 600 l 1,9,-1
 346.262 1436 l 1,10,-1
 210.362 1436 l 1,11,-1
 231.355 1556 l 1,12,-1
 685.855 1556 l 1,13,-1
 518.61 600 l 1,14,-1
 655.41 600 l 1,15,-1
 634.242 479 l 1,16,-1
 497.442 479 l 1,17,-1
 434.812 121 l 1,0,-1
EndSplineSet
EndChar
StartChar: uni019B
Encoding: 411 411 411
Width: 1350
Flags: W
TeX: 117 0 0 0
Fore
1051.68 121 m 1,0,-1
 1162.38 121 l 1,1,-1
 1141.22 0 l 1,2,-1
 782.119 0 l 1,3,-1
 803.288 121 l 1,4,-1
 928.388 121 l 1,5,-1
 821.779 700 l 1,6,-1
 445.088 121 l 1,7,-1
 561.188 121 l 1,8,-1
 540.019 0 l 1,9,-1
 -8.98047 0 l 1,10,-1
 12.1875 121 l 1,11,-1
 117.487 121 l 1,12,-1
 743.031 1109 l 1,13,-1
 743.205 1110 l 1,14,-1
 320.396 859 l 1,15,-1
 282.964 964 l 1,16,-1
 712.949 1220 l 1,17,18
 671.817 1345 671.817 1345 617.84 1376 c 0,19,20
 582.09 1398 582.09 1398 503.238 1400 c 0,21,22
 444.738 1400 444.738 1400 406.766 1363 c 0,23,24
 369.693 1326 369.693 1326 353.522 1249 c 1,25,-1
 251.822 1249 l 1,26,-1
 290.485 1470 l 1,27,28
 360.934 1492 360.934 1492 413.982 1502 c 0,29,30
 478.182 1514 478.182 1514 514.007 1513 c 0,31,32
 717.407 1513 717.407 1513 800.346 1272 c 1,33,-1
 1013.19 1398 l 1,34,-1
 1052.42 1293 l 1,35,-1
 831.502 1162 l 1,36,-1
 832.053 1160 l 1,37,-1
 1051.68 121 l 1,0,-1
EndSplineSet
EndChar
StartChar: uni019C
Encoding: 412 412 412
Width: 2070
Flags: W
TeX: 117 0 0 0
Fore
875.082 174 m 1,0,1
 789.938 68 789.938 68 704.053 19.5 c 128,-1,2
 618.168 -29 618.168 -29 514.668 -29 c 0,3,4
 349.968 -29 349.968 -29 286.625 74.5 c 128,-1,5
 223.281 178 223.281 178 259.844 387 c 2,6,-1
 432.162 1372 l 1,7,-1
 295.362 1372 l 1,8,-1
 316.531 1493 l 1,9,-1
 886.231 1493 l 1,10,-1
 865.062 1372 l 1,11,-1
 750.763 1372 l 1,12,-1
 587.717 440 l 2,13,14
 552.903 241 552.903 241 571.256 189 c 128,-1,15
 589.609 137 589.609 137 664.31 137 c 0,16,17
 748.909 137 748.909 137 808.393 209.5 c 128,-1,18
 867.876 282 867.876 282 891.318 416 c 2,19,-1
 1058.56 1372 l 1,20,-1
 944.263 1372 l 1,21,-1
 965.431 1493 l 1,22,-1
 1512.63 1493 l 1,23,-1
 1491.46 1372 l 1,24,-1
 1377.16 1372 l 1,25,-1
 1214.12 440 l 2,26,27
 1179.3 241 1179.3 241 1198.1 189 c 128,-1,28
 1216.91 137 1216.91 137 1290.71 137 c 0,29,30
 1376.21 137 1376.21 137 1435.7 209.5 c 128,-1,31
 1495.18 282 1495.18 282 1518.62 416 c 2,32,-1
 1685.86 1372 l 1,33,-1
 1571.56 1372 l 1,34,-1
 1592.73 1493 l 1,35,-1
 2161.53 1493 l 1,36,-1
 2140.36 1372 l 1,37,-1
 2004.46 1372 l 1,38,-1
 1785.61 121 l 1,39,-1
 1921.51 121 l 1,40,-1
 1900.34 0 l 1,41,-1
 1445.84 0 l 1,42,-1
 1472.08 150 l 1,43,44
 1400.01 57 1400.01 57 1320.49 14 c 128,-1,45
 1240.97 -29 1240.97 -29 1141.97 -29 c 0,46,47
 1024.97 -29 1024.97 -29 960.728 20.5 c 128,-1,48
 896.487 70 896.487 70 875.082 174 c 1,0,1
EndSplineSet
EndChar
StartChar: uni019D
Encoding: 413 413 413
Width: 1765
Flags: W
TeX: 117 0 0 0
Fore
-238.7 -358 m 1,0,-1
 -197.588 -123 l 1,1,-1
 -80.5879 -123 l 1,2,3
 -105.605 -266 -105.605 -266 -20.8535 -296 c 0,4,5
 0.97168 -305 0.97168 -305 30.6719 -305 c 0,6,7
 117.972 -305 117.972 -305 165.293 -230 c 0,8,9
 213.339 -156 213.339 -156 249.201 49 c 2,10,-1
 480.65 1372 l 1,11,-1
 308.75 1372 l 1,12,-1
 329.918 1493 l 1,13,-1
 750.218 1493 l 1,14,-1
 1376.21 436 l 1,15,-1
 1539.95 1372 l 1,16,-1
 1368.95 1372 l 1,17,-1
 1390.12 1493 l 1,18,-1
 1859.92 1493 l 1,19,-1
 1838.75 1372 l 1,20,-1
 1666.85 1372 l 1,21,-1
 1426.83 0 l 1,22,-1
 1191.03 0 l 1,23,-1
 556.292 1079 l 1,24,-1
 374.702 41 l 2,25,26
 324.843 -244 324.843 -244 207.648 -348 c 0,27,28
 121.104 -426 121.104 -426 -5.7959 -426 c 0,29,30
 -21.0957 -426 -21.0957 -426 -93.7217 -409 c 0,31,32
 -166.348 -392 -166.348 -392 -238.7 -358 c 1,0,-1
EndSplineSet
EndChar
StartChar: uni019E
Encoding: 414 414 414
Width: 1408
Flags: W
TeX: 117 0 0 0
Fore
73.5498 0 m 1,0,-1
 94.7168 121 l 1,1,-1
 230.617 121 l 1,2,-1
 374.245 942 l 1,3,-1
 238.346 942 l 1,4,-1
 259.513 1063 l 1,5,-1
 714.013 1063 l 1,6,-1
 687.771 913 l 1,7,8
 761.991 1008 761.991 1008 843.139 1050 c 128,-1,9
 924.287 1092 924.287 1092 1036.78 1092 c 0,10,11
 1197.88 1092 1197.88 1092 1261.24 986 c 128,-1,12
 1325.5 880 1325.5 880 1289.81 676 c 2,13,-1
 1118.2 -305 l 1,14,-1
 1254.1 -305 l 1,15,-1
 1232.93 -426 l 1,16,-1
 661.425 -426 l 1,17,-1
 682.592 -305 l 1,18,-1
 799.592 -305 l 1,19,-1
 972.963 686 l 2,20,21
 996.579 821 996.579 821 975.249 874 c 128,-1,22
 952.847 926 952.847 926 876.347 926 c 0,23,24
 780.047 926 780.047 926 721.399 848 c 128,-1,25
 662.58 769 662.58 769 632.665 598 c 2,26,-1
 549.217 121 l 1,27,-1
 666.217 121 l 1,28,-1
 645.049 0 l 1,29,-1
 73.5498 0 l 1,0,-1
EndSplineSet
EndChar
StartChar: uni019F
Encoding: 415 415 415
Width: 1694
Flags: W
TeX: 117 0 0 0
Fore
755.502 -29 m 0,0,1
 416.202 -29 416.202 -29 259.641 177 c 0,2,3
 103.078 383 103.078 383 166.407 745 c 0,4,5
 229.737 1107 229.737 1107 458.912 1313.5 c 0,6,7
 688.088 1520 688.088 1520 1026.49 1520 c 0,8,9
 1365.79 1520 1365.79 1520 1522.34 1314 c 0,10,11
 1678.91 1108 1678.91 1108 1615.41 745 c 0,12,13
 1552.08 383 1552.08 383 1323 177 c 0,14,15
 1093.9 -29 1093.9 -29 755.502 -29 c 0,0,1
776.671 92 m 0,16,17
 948.57 92 948.57 92 1060.44 253 c 0,18,19
 1159.06 394.938 1159.06 394.938 1215.74 669 c 1,20,-1
 539.513 669 l 1,21,22
 500.883 397.589 500.883 397.589 549.949 254.5 c 0,23,24
 605.671 92 605.671 92 776.671 92 c 0,16,17
567.981 830 m 1,25,-1
 1243.61 830 l 1,26,27
 1280.92 1098.34 1280.92 1098.34 1232.75 1238 c 0,28,29
 1177.22 1399 1177.22 1399 1005.32 1399 c 0,30,31
 834.319 1399 834.319 1399 721.741 1236.5 c 0,32,33
 624.216 1095.73 624.216 1095.73 567.981 830 c 1,25,-1
EndSplineSet
EndChar
StartChar: uni01A2
Encoding: 418 418 418
Width: 2330
Flags: W
TeX: 117 0 0 0
Fore
812.064 -29 m 0,0,1
 472.765 -29 472.765 -29 316.202 177 c 0,2,3
 159.641 383 159.641 383 222.97 745 c 0,4,5
 286.298 1107 286.298 1107 515.475 1313.5 c 0,6,7
 744.65 1520 744.65 1520 1083.05 1520 c 0,8,9
 1311.87 1520 1311.87 1520 1457.58 1426.31 c 1,10,11
 1540.09 1459.33 1540.09 1459.33 1617.15 1476 c 0,12,13
 1695.72 1493 1695.72 1493 1770.42 1493 c 0,14,15
 2010.72 1493 2010.72 1493 2101.38 1381 c 0,16,17
 2192.04 1269 2192.04 1269 2149.53 1026 c 2,18,-1
 1929.8 -230 l 1,19,-1
 2101.7 -230 l 1,20,-1
 2080.54 -351 l 1,21,-1
 1388.44 -351 l 1,22,-1
 1409.6 -230 l 1,23,-1
 1581.5 -230 l 1,24,-1
 1799.83 1018 l 2,25,26
 1835.69 1223 1835.69 1223 1814.07 1297.5 c 0,27,28
 1792.45 1372 1792.45 1372 1705.15 1372 c 0,29,30
 1636.75 1372 1636.75 1372 1594.41 1328 c 0,31,32
 1587.25 1320.55 1587.25 1320.55 1580.67 1311.68 c 1,33,34
 1735.12 1105.96 1735.12 1105.96 1671.97 745 c 0,35,36
 1608.64 383 1608.64 383 1379.55 177 c 0,37,38
 1150.47 -29 1150.47 -29 812.064 -29 c 0,0,1
833.232 92 m 0,39,40
 1005.13 92 1005.13 92 1117 253 c 0,41,42
 1228.87 414 1228.87 414 1286.77 745 c 0,43,44
 1344.85 1077 1344.85 1077 1289.32 1238 c 0,45,46
 1233.78 1399 1233.78 1399 1061.88 1399 c 0,47,48
 890.882 1399 890.882 1399 778.304 1236.5 c 0,49,50
 665.726 1074 665.726 1074 608.17 745 c 0,51,52
 550.788 417 550.788 417 606.51 254.5 c 0,53,54
 662.232 92 662.232 92 833.232 92 c 0,39,40
EndSplineSet
EndChar
StartChar: uni01A3
Encoding: 419 419 419
Width: 1834
Flags: W
TeX: 117 0 0 0
Fore
1212.63 -305 m 1,0,-1
 1395.11 733 l 2,1,2
 1416.71 855.781 1416.71 855.781 1398.76 903 c 0,3,4
 1380.88 950 1380.88 950 1315.18 950 c 0,5,6
 1262.92 950 1262.92 950 1231.28 922.526 c 1,7,8
 1329.9 776.907 1329.9 776.907 1287.05 532 c 0,9,10
 1241.21 270 1241.21 270 1071.51 120.5 c 0,11,12
 901.811 -29 901.811 -29 648.911 -29 c 0,13,14
 396.011 -29 396.011 -29 278.614 120.5 c 0,15,16
 161.218 270 161.218 270 207.053 532 c 0,17,18
 253.062 795 253.062 795 422.592 943.5 c 0,19,20
 592.121 1092 592.121 1092 845.02 1092 c 0,21,22
 1013.45 1092 1013.45 1092 1121.69 1026.6 c 1,23,24
 1185.52 1043.69 1185.52 1043.69 1244.09 1053 c 0,25,26
 1307.05 1063 1307.05 1063 1361.05 1063 c 0,27,28
 1563.55 1063 1563.55 1063 1652.89 979.5 c 0,29,30
 1742.2 895.816 1742.2 895.816 1713.71 733 c 2,31,-1
 1532.13 -305 l 1,32,-1
 1679.73 -305 l 1,33,-1
 1658.56 -426 l 1,34,-1
 1055.56 -426 l 1,35,-1
 1076.73 -305 l 1,36,-1
 1212.63 -305 l 1,0,-1
668.68 84 m 0,37,38
 769.479 84 769.479 84 827.224 180 c 0,39,40
 884.967 276 884.967 276 929.753 532 c 0,41,42
 974.538 788 974.538 788 950.745 883.5 c 0,43,44
 926.951 979 926.951 979 825.251 979 c 0,45,46
 723.552 979 723.552 979 665.271 882.5 c 0,47,48
 606.988 786 606.988 786 562.553 532 c 0,49,50
 518.117 278 518.117 278 542.548 181 c 0,51,52
 566.979 84 566.979 84 668.68 84 c 0,37,38
EndSplineSet
EndChar
StartChar: uni01A4
Encoding: 420 420 420
Width: 1454
Flags: W
TeX: 117 0 0 0
Fore
457.043 1493 m 2,0,0
 1050.14 1493 l 2,6,7
 1274.24 1493 1274.24 1493 1385.72 1374 c 128,-1,8
 1497.39 1256 1497.39 1256 1462.57 1057 c 0,9,10
 1427.58 857 1427.58 857 1274.46 738 c 128,-1,11
 1120.27 618 1120.27 618 897.069 618 c 2,12,-1
 650.47 618 l 1,13,-1
 563.523 121 l 1,14,-1
 780.423 121 l 1,15,-1
 759.256 0 l 1,16,-1
 23.9561 0 l 1,0,-1
 45.123 121 l 1,1,-1
 217.023 121 l 1,2,-1
 435.876 1372 l 1,20,21
 259.477 1372 259.477 1372 181.807 1283 c 0,22,23
 102.887 1192 102.887 1192 70.3467 1006 c 1,24,-1
 -107.854 1006 l 1,25,-1
 -45.2236 1364 l 1,26,27
 41.5479 1433 41.5479 1433 262.37 1476 c 0,28,29
 350.844 1493 350.844 1493 457.043 1493 c 2,0,0
671.638 739 m 1,17,-1
 772.438 739 l 2,18,19
 889.438 739 889.438 739 974.854 826 c 128,-1,20
 1059.2 912 1059.2 912 1084.57 1057 c 0,21,22
 1109.76 1201 1109.76 1201 1055.33 1286 c 128,-1,23
 1001.07 1372 1001.07 1372 883.176 1372 c 2,24,-1
 782.376 1372 l 1,25,-1
 671.638 739 l 1,17,-1
EndSplineSet
EndChar
StartChar: uni01A5
Encoding: 421 421 421
Width: 1350
Flags: W
TeX: 117 0 0 0
Fore
571.78 584 m 2,0,-1
 553.411 479 l 2,1,2
 520.872 293 520.872 293 548.652 210 c 0,3,4
 577.332 127 577.332 127 672.731 127 c 0,5,6
 770.832 127 770.832 127 826.728 215 c 0,7,8
 881.722 303 881.722 303 921.783 532 c 0,9,10
 961.846 761 961.846 761 937.466 848 c 0,11,12
 912.36 936 912.36 936 814.26 936 c 0,13,14
 718.86 936 718.86 936 661.14 853 c 0,15,16
 604.319 770 604.319 770 571.78 584 c 2,0,-1
97.6562 -305 m 1,17,-1
 347.475 1123 l 2,18,19
 375.99 1286 375.99 1286 494.185 1370 c 0,20,21
 613.104 1453 613.104 1453 815.604 1453 c 0,22,23
 869.604 1453 869.604 1453 929.056 1443 c 0,24,25
 988.504 1433 988.504 1433 1050.88 1414 c 1,26,-1
 1011.52 1189 l 1,27,-1
 909.82 1189 l 1,28,29
 923.815 1269 923.815 1269 902.038 1304 c 0,30,31
 881.336 1340 881.336 1340 821.937 1340 c 0,32,33
 756.236 1340 756.236 1340 721.915 1293 c 0,34,35
 687.593 1246 687.593 1246 666.074 1123 c 2,36,-1
 631.96 928 l 1,37,38
 686.98 1011 686.98 1011 762.554 1052 c 0,39,40
 837.951 1092 837.951 1092 938.751 1092 c 0,41,42
 1143.05 1092 1143.05 1092 1234.71 942 c 0,43,44
 1325.64 793 1325.64 793 1279.99 532 c 0,45,46
 1234.32 271 1234.32 271 1091.09 121 c 0,47,48
 946.941 -29 946.941 -29 742.641 -29 c 0,49,50
 641.841 -29 641.841 -29 580.614 12 c 0,51,52
 519.212 52 519.212 52 493.231 135 c 1,53,-1
 416.256 -305 l 1,54,-1
 563.855 -305 l 1,55,-1
 542.688 -426 l 1,56,-1
 -60.3115 -426 l 1,57,-1
 -39.1436 -305 l 1,58,-1
 97.6562 -305 l 1,17,-1
EndSplineSet
EndChar
StartChar: uni01A6
Encoding: 422 422 422
Width: 1642
Flags: W
TeX: 117 0 0 0
Fore
677.819 449 m 1,0,-1
 778.619 449 l 2,1,2
 895.619 449 895.619 449 980.414 535 c 0,3,4
 1065.21 621 1065.21 621 1090.57 766 c 0,5,6
 1115.76 910 1115.76 910 1061.42 995.5 c 0,7,8
 1007.08 1081 1007.08 1081 889.183 1081 c 2,9,-1
 788.383 1081 l 1,10,-1
 677.819 449 l 1,0,-1
80.8691 0 m 1,11,-1
 102.038 121 l 1,12,-1
 273.938 121 l 1,13,-1
 492.791 1372 l 1,14,-1
 320.892 1372 l 1,15,-1
 342.059 1493 l 1,16,-1
 1075.56 1493 l 1,17,-1
 1054.39 1372 l 1,18,-1
 839.291 1372 l 1,19,-1
 809.551 1202 l 1,20,-1
 1056.15 1202 l 2,21,22
 1280.25 1202 1280.25 1202 1391.82 1083.5 c 0,23,24
 1503.39 965 1503.39 965 1468.57 766 c 0,25,26
 1433.76 567 1433.76 567 1280.1 447.5 c 0,27,28
 1227.43 406.529 1227.43 406.529 1166.56 379.605 c 1,29,30
 1191.61 345.537 1191.61 345.537 1201.33 293 c 2,31,-1
 1287.38 -172 l 2,32,33
 1305.6 -270.45 1305.6 -270.45 1335.85 -306.5 c 0,34,35
 1365.64 -342 1365.64 -342 1401.64 -342 c 0,36,37
 1433.14 -342 1433.14 -342 1469.76 -305 c 0,38,39
 1506.38 -268 1506.38 -268 1522.56 -191 c 1,40,-1
 1624.43 -190 l 1,41,-1
 1585.59 -412 l 1,42,43
 1518.02 -433 1518.02 -433 1462.09 -444 c 0,44,45
 1406.17 -455 1406.17 -455 1270.27 -455 c 0,46,47
 1150.79 -455 1150.79 -455 1075.39 -396 c 0,48,49
 996.173 -334.01 996.173 -334.01 978.484 -240 c 2,50,-1
 880.078 283 l 2,51,52
 871.612 328 871.612 328 829.311 328 c 2,53,-1
 656.65 328 l 1,54,-1
 620.438 121 l 1,55,-1
 837.338 121 l 1,56,-1
 816.169 0 l 1,57,-1
 80.8691 0 l 1,11,-1
EndSplineSet
EndChar
StartChar: uni01A7
Encoding: 423 423 423
Width: 1405
Flags: W
TeX: 117 0 0 0
Fore
1156.36 72 m 1,0,-1
 1013.34 21 1013.34 21 879.364 -4 c 128,-1,41
 745.391 -29 745.391 -29 613.99 -29 c 0,39,40
 341.291 -29 341.291 -29 221.359 88 c 128,-1,38
 101.603 206 101.603 206 141.139 432 c 0,36,37
 174.903 625 174.903 625 277.847 735 c 128,-1,35
 381.69 845 381.69 845 577.987 897 c 2,33,34
 789.21 952 l 1,32,-1
 981.009 1004 981.009 1004 1036.21 1052 c 128,-1,31
 1091.57 1101 1091.57 1101 1107.85 1194 c 0,29,30
 1125.69 1296 1125.69 1296 1067.28 1348 c 128,-1,28
 1007.81 1399 1007.81 1399 874.608 1399 c 0,26,27
 711.708 1399 711.708 1399 611.088 1328 c 128,-1,25
 510.292 1256 510.292 1256 457.251 1102 c 1,23,24
 342.951 1102 l 1,22,-1
 400.682 1432 l 1,21,-1
 545.18 1476 545.18 1476 675.928 1498 c 128,-1,20
 807.577 1520 807.577 1520 925.477 1520 c 0,18,19
 1164.88 1520 1164.88 1520 1275.48 1396 c 128,-1,17
 1387.17 1273 1387.17 1273 1348.33 1051 c 0,15,16
 1316.14 867 1316.14 867 1218.72 768 c 128,-1,14
 1121.13 668 1121.13 668 914.229 612 c 1,12,13
 703.007 557 l 2,11,-1
 540.685 514 540.685 514 482.438 464 c 128,-1,10
 424.189 414 424.189 414 408.445 324 c 0,8,9
 388.502 210 388.502 210 451.08 151 c 128,-1,7
 513.659 92 513.659 92 653.159 92 c 0,5,6
 825.06 92 825.06 92 936.779 175 c 128,-1,4
 1048.5 258 1048.5 258 1103.99 426 c 1,2,3
 1218.29 426 l 1,1,-1
 1156.36 72 l 1,0,-1
EndSplineSet
EndChar
StartChar: uni01A8
Encoding: 424 424 424
Width: 1095
Flags: W
TeX: 117 0 0 0
Fore
925.273 31 m 1,0,-1
 808.424 1 808.424 1 705.9 -14 c 128,-1,41
 603.376 -29 603.376 -29 514.276 -29 c 0,39,40
 270.376 -29 270.376 -29 169.146 56 c 128,-1,38
 68.9912 142 68.9912 142 100.48 322 c 0,36,37
 124.798 461 124.798 461 210.443 539 c 128,-1,35
 296.089 617 296.089 617 493.461 670 c 2,33,34
 630.433 707 l 2,32,-1
 708.807 728 708.807 728 743.031 759 c 128,-1,31
 777.254 790 777.254 790 786.701 844 c 0,29,30
 798.247 910 798.247 910 754.695 944 c 128,-1,28
 710.418 979 710.418 979 613.218 979 c 0,26,27
 498.018 979 498.018 979 427.196 924 c 128,-1,25
 355.475 869 355.475 869 328.306 760 c 1,23,24
 226.605 760 l 1,22,-1
 273.49 1028 l 1,21,-1
 395.364 1061 395.364 1061 493.388 1076 c 128,-1,20
 592.486 1092 592.486 1092 677.086 1092 c 0,18,19
 902.086 1092 902.086 1092 995.39 1008 c 128,-1,17
 1088.52 923 1088.52 923 1058.25 750 c 0,15,16
 1035.51 620 1035.51 620 955.618 544 c 128,-1,14
 875.548 467 875.548 467 719.875 426 c 2,12,13
 582.002 389 l 2,11,-1
 482.954 363 482.954 363 443.53 328 c 128,-1,10
 405.008 293 405.008 293 393.812 229 c 0,8,9
 381.566 159 381.566 159 427.292 122 c 128,-1,7
 471.945 84 471.945 84 569.145 84 c 0,5,6
 685.245 84 685.245 84 763.591 146 c 128,-1,4
 842.112 209 842.112 209 875.53 328 c 1,2,3
 977.228 328 l 1,1,-1
 925.273 31 l 1,0,-1
EndSplineSet
EndChar
StartChar: uni01AA
Encoding: 426 426 426
Width: 650
Flags: W
TeX: 117 0 0 0
Fore
888.697 1522.99 m 1,0,-1
 873.21 1434.46 873.21 1434.46 816.657 1352.99 c 0,39,40
 772.905 1289.96 772.905 1289.96 677.181 1234.58 c 1,37,38
 676.101 1230.8 676.101 1230.8 674.915 1226.99 c 2,35,36
 261.865 -100.012 l 2,34,-1
 225.853 -215.712 225.853 -215.712 261.639 -286.512 c 0,32,33
 290.701 -344.012 290.701 -344.012 355.98 -344.012 c 0,30,31
 418.08 -344.012 418.08 -344.012 458.478 -306.012 c 128,-1,29
 498.875 -268.012 498.875 -268.012 519.721 -190.012 c 1,27,28
 620.521 -190.012 l 1,26,-1
 580.635 -418.012 l 1,25,-1
 507.11 -437.012 507.11 -437.012 432.549 -446.512 c 128,-1,24
 357.986 -456.012 357.986 -456.012 281.486 -456.012 c 0,22,23
 95.1152 -456.012 95.1152 -456.012 -1.30566 -364.512 c 0,20,21
 -108.125 -263.143 -108.125 -263.143 -56.0342 -96.0117 c 2,18,19
 327.041 1133.07 l 1,17,-1
 293.844 1131.02 293.844 1131.02 259.06 1130.99 c 0,15,16
 202.711 1130.94 202.711 1130.94 161.853 1142.37 c 0,13,14
 31.9648 1178.69 31.9648 1178.69 58.6084 1330.99 c 0,11,12
 97.4912 1553.25 97.4912 1553.25 411.171 1555.99 c 0,9,10
 527.625 1557.01 527.625 1557.01 614.088 1473.49 c 0,7,8
 671.802 1417.74 671.802 1417.74 684.639 1349.43 c 1,5,6
 711.297 1372.06 711.297 1372.06 732.18 1399.99 c 0,3,4
 765.077 1443.99 765.077 1443.99 789.697 1522.99 c 1,1,2
 888.697 1522.99 l 1,0,-1
354.97 1222.67 m 1,41,42
 356.314 1226.99 l 2,51,-1
 394.982 1351.05 394.982 1351.05 359.954 1396.99 c 0,49,50
 338.748 1424.8 338.748 1424.8 313.003 1426.99 c 0,47,48
 195.47 1434.23 195.47 1434.23 180.033 1345.99 c 0,45,46
 157.894 1219.44 157.894 1219.44 323.404 1220.99 c 0,43,44
 338.664 1221.13 338.664 1221.13 354.97 1222.67 c 1,41,42
EndSplineSet
EndChar
StartChar: uni01AB
Encoding: 427 427 427
Width: 910
Flags: W
TeX: 117 0 0 0
Fore
406.934 942 m 1,0,-1
 268.334 942 l 1,1,-1
 289.502 1063 l 1,2,-1
 428.102 1063 l 1,3,-1
 485.832 1393 l 1,4,-1
 804.433 1393 l 1,5,-1
 746.702 1063 l 1,6,-1
 1012.21 1063 l 1,7,-1
 991.037 942 l 1,8,-1
 725.534 942 l 1,9,-1
 611.646 291 l 2,10,11
 587.33 152 587.33 152 601.182 118 c 0,12,13
 615.033 84 615.033 84 667.233 84 c 2,14,-1
 916.533 84 l 1,15,-1
 879.971 -125 l 2,16,17
 851.455 -288.003 851.455 -288.003 732.897 -371.5 c 0,18,19
 614.336 -455 614.336 -455 411.84 -455 c 0,20,21
 357.84 -455 357.84 -455 298.39 -445 c 0,22,23
 238.938 -435 238.938 -435 176.562 -416 c 1,24,-1
 215.924 -191 l 1,25,-1
 317.624 -191 l 1,26,27
 305.429 -271 305.429 -271 325.77 -306.5 c 0,28,29
 346.107 -342 346.107 -342 405.507 -342 c 0,30,31
 469.872 -342 469.872 -342 505.53 -295 c 0,32,33
 539.452 -250.289 539.452 -250.289 561.37 -125 c 2,34,-1
 578.166 -28.9932 l 1,35,36
 576.37 -29 576.37 -29 574.565 -29 c 0,37,38
 377.465 -29 377.465 -29 319.249 39.5 c 0,39,40
 261.032 108 261.032 108 293.046 291 c 2,41,-1
 406.934 942 l 1,0,-1
EndSplineSet
EndChar
StartChar: uni01AC
Encoding: 428 428 428
Width: 1458
Flags: W
TeX: 117 0 0 0
Fore
705.454 1356 m 0,20,21
 518.255 1356 518.255 1356 454.184 1283 c 0,22,23
 375.265 1192 375.265 1192 342.724 1006 c 1,24,-1
 164.524 1006 l 1,25,-1
 227.154 1364 l 1,26,27
 313.925 1433 313.925 1433 534.748 1476 c 0,28,29
 623.221 1493 623.221 1493 729.421 1493 c 1,0,0
 1570.02 1493 l 1,8,-1
 1504.77 1120 l 1,9,-1
 1383.27 1120 l 1,10,-1
 1424.55 1356 l 1,11,-1
 1053.75 1356 l 1,12,-1
 837.7 121 l 1,13,-1
 1016.8 121 l 1,14,-1
 995.637 0 l 1,15,-1
 290.033 0 l 1,0,-1
 311.2 121 l 1,1,-1
 489.4 121 l 1,2,-1
 705.454 1356 l 0,20,21
EndSplineSet
EndChar
StartChar: uni01AD
Encoding: 429 429 429
Width: 909
Flags: W
TeX: 117 0 0 0
Fore
271.836 942 m 1,0,-1
 133.236 942 l 1,1,-1
 154.403 1063 l 1,2,-1
 293.004 1063 l 1,3,-1
 321.52 1226 l 2,4,5
 350.035 1389 350.035 1389 468.056 1472 c 0,6,7
 587.15 1556 587.15 1556 789.65 1556 c 0,8,9
 843.65 1556 843.65 1556 903.102 1546 c 0,10,11
 962.553 1536 962.553 1536 1024.93 1517 c 1,12,-1
 985.565 1292 l 1,13,-1
 883.865 1292 l 1,14,15
 896.061 1372 896.061 1372 876.259 1408 c 0,16,17
 855.381 1443 855.381 1443 795.981 1443 c 0,18,19
 732.981 1443 732.981 1443 695.959 1396 c 0,20,21
 662.512 1354 662.512 1354 640.119 1226 c 2,22,-1
 611.604 1063 l 1,23,-1
 877.104 1063 l 1,24,-1
 855.936 942 l 1,25,-1
 590.436 942 l 1,26,-1
 476.548 291 l 2,27,28
 452.231 152 452.231 152 466.083 118 c 0,29,30
 479.936 84 479.936 84 532.136 84 c 0,31,32
 589.735 84 589.735 84 625.157 127 c 0,33,34
 660.581 170 660.581 170 678.125 260 c 1,35,-1
 812.226 260 l 1,36,37
 784.233 100 784.233 100 693.838 36 c 0,38,39
 612.266 -29 612.266 -29 439.466 -29 c 0,40,41
 242.366 -29 242.366 -29 184.237 40 c 0,42,43
 125.934 108 125.934 108 157.948 291 c 2,44,-1
 271.836 942 l 1,0,-1
EndSplineSet
EndChar
StartChar: uni01AE
Encoding: 430 430 430
Width: 1462
Flags: W
TeX: 117 0 0 0
Fore
517.267 41 m 2,2,-1
 747.315 1356 l 1,3,-1
 379.216 1356 l 1,4,-1
 337.93 1120 l 1,5,-1
 214.629 1120 l 1,6,-1
 279.883 1493 l 1,7,-1
 1611.88 1493 l 1,8,-1
 1546.63 1120 l 1,9,-1
 1425.13 1120 l 1,10,-1
 1466.42 1356 l 1,11,-1
 1095.62 1356 l 1,12,-1
 866.966 49 l 2,13,-1
 831.104 -156 831.104 -156 852.357 -230 c 128,-1,7
 874.337 -305 874.337 -305 961.637 -305 c 0,5,6
 1030.04 -305 1030.04 -305 1071.93 -261 c 128,-1,4
 1114.73 -217 1114.73 -217 1136.58 -123 c 1,2,3
 1253.58 -123 l 1,1,-1
 1212.46 -358 l 1,0,-1
 1128.22 -392 1128.22 -392 1049.65 -409 c 128,-1,20
 971.068 -426 971.068 -426 896.368 -426 c 0,18,19
 656.068 -426 656.068 -426 565.862 -314 c 128,-1,17
 474.756 -202 474.756 -202 517.267 41 c 2,2,-1
EndSplineSet
EndChar
StartChar: uni01B1
Encoding: 433 433 433
Width: 1737
Flags: W
TeX: 117 0 0 0
Fore
714.092 1336 m 1,0,-1
 413.491 1336 l 1,1,-1
 391.623 1211 l 1,2,-1
 268.323 1211 l 1,3,-1
 322.381 1520 l 1,4,-1
 982.081 1520 l 1,5,-1
 948.317 1327 l 1,6,7
 802.318 1295 802.318 1295 703.727 1143 c 128,-1,8
 605.137 991 605.137 991 558.601 725 c 0,9,10
 506.993 430 506.993 430 570.053 276 c 128,-1,11
 632.937 121 632.937 121 805.736 121 c 0,12,13
 978.536 121 978.536 121 1095.65 276 c 128,-1,14
 1211.69 430 1211.69 430 1263.66 727 c 0,15,16
 1309.31 988 1309.31 988 1263.35 1142 c 128,-1,17
 1217.22 1295 1217.22 1295 1084.21 1327 c 1,18,-1
 1117.98 1520 l 1,19,-1
 1778.58 1520 l 1,20,-1
 1724.53 1211 l 1,21,-1
 1602.13 1211 l 1,22,-1
 1623.99 1336 l 1,23,-1
 1322.49 1336 l 1,24,25
 1519.7 1244 1519.7 1244 1601.51 1084 c 128,-1,26
 1683.14 923 1683.14 923 1644.65 703 c 0,27,28
 1589.38 387 1589.38 387 1353.11 194 c 128,-1,29
 1117.57 0 1117.57 0 784.568 0 c 0,30,31
 451.568 0 451.568 0 283.007 194 c 128,-1,32
 114.271 387 114.271 387 169.553 703 c 0,33,34
 208.04 923 208.04 923 346.006 1084 c 128,-1,35
 483.797 1244 483.797 1244 714.092 1336 c 1,0,-1
EndSplineSet
EndChar
StartChar: uni01B2
Encoding: 434 434 434
Width: 1740
Flags: W
TeX: 117 0 0 0
Fore
811.167 121 m 1,9,-1
 983.967 121 983.967 121 1100.55 275.5 c 128,-1,14
 1217.13 430 1217.13 430 1269.08 727 c 0,15,16
 1315.18 990.493 1315.18 990.493 1268.7 1141.5 c 128,-1,17
 1228.53 1272 1228.53 1272 1174.53 1272 c 1,18,-1
 1192.02 1372 l 1,19,-1
 1300.02 1372 l 1,24,25
 1506.34 1281.94 1506.34 1281.94 1606.85 1083.5 c 128,-1,26
 1688.57 923 1688.57 923 1650.08 703 c 0,27,28
 1594.8 387 1594.8 387 1358.9 193.5 c 128,-1,29
 1123 0 1123 0 790 0 c 1,10,-1
 610 0 l 2,11,12
 429.261 0 429.261 0 399.999 24 c 0,13,14
 304.763 102.108 304.763 102.108 345.854 337 c 2,2,-1
 526.92 1372 l 1,3,-1
 355.021 1372 l 1,4,-1
 376.188 1493 l 1,5,-1
 1067.38 1493 l 1,6,-1
 1046.22 1372 l 1,7,-1
 873.42 1372 l 1,8,-1
 698.652 373 l 2,9,-1
 676.146 244.35 676.146 244.35 700.339 182 c 0,7,8
 724.008 121 724.008 121 811.167 121 c 1,9,-1
EndSplineSet
EndChar
StartChar: uni01B3
Encoding: 435 435 435
Width: 1411
Flags: W
TeX: 117 0 0 0
Fore
1286.81 1372 m 2,8,9
 886.665 803 l 1,10,-1
 683.808 1372 l 1,9,-1
 833.207 1372 l 1,8,-1
 854.375 1493 l 1,7,-1
 209.975 1493 l 1,6,-1
 188.808 1372 l 1,5,-1
 303.107 1372 l 1,4,-1
 570.801 618 l 1,3,-1
 483.854 121 l 1,2,-1
 302.954 121 l 1,1,-1
 281.786 0 l 1,0,-1
 991.887 0 l 1,20,-1
 1013.05 121 l 1,19,-1
 832.154 121 l 1,18,-1
 928.198 670 l 1,17,-1
 1397.34 1335 l 2,16,-1
 1430.49 1382 1430.49 1382 1497.35 1382 c 0,18,19
 1556.75 1382 1556.75 1382 1577.09 1346.5 c 128,-1,17
 1597.43 1311 1597.43 1311 1585.24 1231 c 1,15,16
 1686.94 1231 l 1,14,-1
 1726.3 1456 l 1,13,-1
 1663.92 1475 1663.92 1475 1604.48 1485 c 128,-1,12
 1571.76 1495 1571.76 1495 1527.93 1495 c 0,10,11
 1373.31 1495 1373.31 1495 1286.81 1372 c 2,8,9
EndSplineSet
EndChar
StartChar: uni01B4
Encoding: 436 436 436
Width: 1365
Flags: W
TeX: 117 0 0 0
Fore
1183.96 932 m 2,28,-1
 1211.46 983.243 1211.46 983.243 1283.99 979 c 0,18,19
 1343.39 979 1343.39 979 1363.73 943.5 c 128,-1,17
 1384.07 908 1384.07 908 1371.88 828 c 1,15,16
 1473.58 828 l 1,14,-1
 1512.93 1053 l 1,13,-1
 1450.55 1072 1450.55 1072 1391.11 1082 c 128,-1,12
 1331.65 1092 1331.65 1092 1303.75 1092 c 0,10,11
 1150.49 1093.02 1150.49 1093.02 1069.62 942 c 2,8,9
 732.776 313 l 1,22,-1
 599.814 942 l 1,21,-1
 714.114 942 l 1,20,-1
 735.283 1063 l 1,19,-1
 183.583 1063 l 1,18,-1
 162.414 942 l 1,17,-1
 265.914 942 l 1,16,-1
 494.202 -135 l 1,15,-1
 473.329 -172 l 1,14,-1
 420.01 -271 420.01 -271 377.8 -306.5 c 128,-1,13
 335.589 -342 335.589 -342 277.089 -342 c 0,11,12
 216.789 -342 216.789 -342 193.111 -305 c 128,-1,10
 169.435 -268 169.435 -268 180.205 -191 c 1,8,9
 78.6807 -190 l 1,7,-1
 39.8428 -412 l 1,6,-1
 100.069 -433 100.069 -433 152.145 -444 c 128,-1,5
 204.22 -455 204.22 -455 248.32 -455 c 0,3,4
 351.82 -455 351.82 -455 421.593 -406 c 128,-1,2
 491.364 -357 491.364 -357 555.033 -240 c 1,0,1
 1183.96 932 l 2,28,-1
EndSplineSet
EndChar
StartChar: uni01B5
Encoding: 437 437 437
Width: 1419
Flags: W
TeX: 117 0 0 0
Fore
12.1553 0 m 1,0,-1
 36.8223 141 l 1,1,-1
 469.442 659 l 1,2,-1
 269.643 659 l 1,3,-1
 303.23 851 l 1,4,-1
 629.931 851 l 1,5,-1
 1051.27 1356 l 1,6,-1
 407.777 1356 l 1,7,-1
 368.765 1133 l 1,8,-1
 245.465 1133 l 1,9,-1
 308.443 1493 l 1,10,-1
 1474.84 1493 l 1,11,-1
 1450.18 1352 l 1,12,-1
 1035.83 851 l 1,13,-1
 1254.53 851 l 1,14,-1
 1220.94 659 l 1,15,-1
 877.143 659 l 1,16,-1
 444.723 137 l 1,17,-1
 1123.33 137 l 1,18,-1
 1159.88 346 l 1,19,-1
 1283.18 346 l 1,20,-1
 1222.66 0 l 1,21,-1
 12.1553 0 l 1,0,-1
EndSplineSet
EndChar
StartChar: uni01B6
Encoding: 438 438 438
Width: 1104
Flags: W
TeX: 117 0 0 0
Fore
948.684 600 m 1,0,-1
 927.516 479 l 1,1,-1
 724.115 479 l 1,2,-1
 420.836 119 l 1,3,-1
 863.636 119 l 1,4,-1
 897.225 311 l 1,5,-1
 1004.33 311 l 1,6,-1
 949.918 0 l 1,7,-1
 30.1182 0 l 1,8,-1
 51.2861 121 l 1,9,-1
 352.415 479 l 1,10,-1
 217.415 479 l 1,11,-1
 238.583 600 l 1,12,-1
 453.684 600 l 1,13,-1
 744.613 946 l 1,14,-1
 331.513 946 l 1,15,-1
 299.674 764 l 1,16,-1
 192.573 764 l 1,17,-1
 244.882 1063 l 1,18,-1
 1135.88 1063 l 1,19,-1
 1115.06 944 l 1,20,-1
 825.384 600 l 1,21,-1
 948.684 600 l 1,0,-1
EndSplineSet
EndChar
StartChar: uni01B7
Encoding: 439 439 439
Width: 1105
Flags: W
TeX: 117 0 0 0
Fore
735.016 839.25 m 1,0,1
 929.618 818.318 929.618 818.318 1015.18 734 c 0,2,3
 1137.98 612.849 1137.98 612.849 1101.27 403 c 24,4,5
 1064.71 194 1064.71 194 896.252 82.5 c 128,-1,6
 727.796 -29 727.796 -29 445.195 -29 c 0,7,8
 338.996 -29 338.996 -29 229.545 -9 c 128,-1,9
 120.094 11 120.094 11 3.79199 51 c 1,10,-1
 61.1729 379 l 1,11,-1
 170.073 379 l 1,12,13
 155.131 237 155.131 237 212.298 162.5 c 128,-1,14
 269.465 88 269.465 88 393.664 88 c 0,15,16
 530.465 88 530.465 88 619.947 172.5 c 128,-1,17
 709.43 257 709.43 257 736.546 412 c 0,18,19
 764.887 574 764.887 574 702.432 662 c 128,-1,20
 639.977 750 639.977 750 496.876 750 c 2,21,-1
 437.477 750 l 1,22,-1
 476.752 974.5 l 1,23,-1
 781.991 1356 l 1,24,-1
 394.991 1356 l 1,25,-1
 355.979 1133 l 1,26,-1
 232.679 1133 l 1,27,-1
 295.659 1493 l 1,28,-1
 1176.76 1493 l 1,29,-1
 1152.79 1356 l 1,30,-1
 735.016 839.25 l 1,0,1
EndSplineSet
EndChar
StartChar: uni01B8
Encoding: 440 440 440
Width: 1112
Flags: W
TeX: 117 0 0 0
Fore
591.439 839.25 m 1,0,1
 354.465 1356 l 1,30,-1
 378.433 1493 l 1,29,-1
 1259.53 1493 l 1,28,-1
 1196.56 1133 l 1,27,-1
 1073.26 1133 l 1,26,-1
 1112.26 1356 l 1,25,-1
 725.265 1356 l 1,24,-1
 897.025 974.5 l 1,23,-1
 857.75 750 l 1,22,-1
 798.351 750 l 2,21,-1
 655.25 750 655.25 750 562.006 662 c 128,-1,20
 468.761 574 468.761 574 440.419 412 c 0,18,19
 413.303 257 413.303 257 473.221 172.5 c 128,-1,17
 533.138 88 533.138 88 669.938 88 c 0,15,16
 794.138 88 794.138 88 877.372 162.5 c 128,-1,14
 960.604 237 960.604 237 995.343 379 c 1,12,13
 1104.24 379 l 1,11,-1
 1046.87 51 l 1,10,-1
 916.567 11 916.567 11 800.118 -9 c 128,-1,9
 683.67 -29 683.67 -29 577.47 -29 c 0,7,8
 294.869 -29 294.869 -29 165.426 82.5 c 128,-1,6
 35.9824 194 35.9824 194 72.5449 403 c 24,4,5
 109.257 612.849 109.257 612.849 274.451 734 c 0,2,3
 389.511 818.318 389.511 818.318 591.439 839.25 c 1,0,1
EndSplineSet
EndChar
StartChar: uni01B9
Encoding: 441 441 441
Width: 1113
Flags: W
TeX: 117 0 0 0
Fore
595.749 452.25 m 1,0,1
 393.822 431.318 393.822 431.318 278.763 347 c 0,2,3
 113.567 225.849 113.567 225.849 76.8564 16 c 24,4,5
 40.293 -193 40.293 -193 169.737 -304.5 c 128,-1,6
 299.182 -416 299.182 -416 581.781 -416 c 0,7,8
 687.981 -416 687.981 -416 804.431 -396 c 128,-1,9
 920.879 -376 920.879 -376 1051.18 -336 c 1,10,-1
 1108.55 -8 l 1,11,-1
 999.655 -8 l 1,12,13
 964.916 -150 964.916 -150 881.682 -224.5 c 128,-1,14
 798.449 -299 798.449 -299 674.249 -299 c 0,15,16
 537.449 -299 537.449 -299 477.532 -214.5 c 128,-1,17
 417.615 -130 417.615 -130 444.731 25 c 0,18,19
 473.071 187 473.071 187 566.315 275 c 128,-1,20
 659.562 363 659.562 363 802.661 363 c 2,21,-1
 862.062 363 l 1,22,-1
 901.335 587.5 l 1,23,-1
 725.553 946 l 1,24,-1
 1138.65 946 l 1,25,-1
 1106.81 764 l 1,26,-1
 1213.91 764 l 1,27,-1
 1266.22 1063 l 1,28,-1
 375.221 1063 l 1,29,-1
 354.402 944 l 1,30,-1
 595.749 452.25 l 1,0,1
EndSplineSet
EndChar
StartChar: uni01BB
Encoding: 443 443 443
Width: 1347
Flags: W
TeX: 117 0 0 0
Fore
371.577 1124 m 1,0,-1
 263.577 1124 l 1,1,-1
 319.908 1446 l 1,2,3
 436.182 1483 436.182 1483 547.505 1502 c 0,4,5
 657.754 1520 657.754 1520 767.554 1520 c 0,6,7
 1024.05 1520 1024.05 1520 1147.76 1404 c 0,8,9
 1270.39 1287 1270.39 1287 1234.01 1079 c 0,10,11
 1212.14 954 1212.14 954 1137.42 851 c 1,12,-1
 1242.72 851 l 1,13,-1
 1209.13 659 l 1,14,-1
 936.429 659 l 1,15,16
 859.857 602 859.857 602 757.236 535 c 2,17,-1
 335.076 262 l 1,18,-1
 971.378 262 l 1,19,-1
 1002.17 438 l 1,20,-1
 1125.47 438 l 1,21,-1
 1048.84 0 l 1,22,-1
 55.2412 0 l 1,23,-1
 97.9277 244 l 1,24,-1
 323.594 397 l 2,25,26
 543.16 546 543.16 546 657.429 659 c 1,27,-1
 257.828 659 l 1,28,-1
 291.417 851 l 1,29,-1
 798.117 851 l 1,30,31
 842.837 942 842.837 942 861.557 1049 c 0,32,33
 891.821 1222 891.821 1222 843.666 1312 c 0,34,35
 794.785 1403 794.785 1403 671.485 1403 c 0,36,37
 565.285 1403 565.285 1403 488.966 1332 c 0,38,39
 412.469 1260 412.469 1260 371.577 1124 c 1,0,-1
EndSplineSet
EndChar
StartChar: uni01BC
Encoding: 444 444 444
Width: 1474
Flags: W
TeX: 117 0 0 0
Fore
1027.52 840 m 0,0,1
 1197.6 809 1197.6 809 1266.15 707 c 0,2,3
 1334.71 605 1334.71 605 1299.37 403 c 0,4,5
 1262.81 194 1262.81 194 1094.35 82.5 c 0,6,7
 925.896 -29 925.896 -29 643.296 -29 c 0,8,9
 537.096 -29 537.096 -29 427.645 -9 c 0,10,11
 318.194 11 318.194 11 201.892 51 c 1,12,-1
 259.273 379 l 1,13,-1
 368.173 379 l 1,14,15
 353.231 237 353.231 237 410.398 162.5 c 0,16,17
 467.564 88 467.564 88 591.765 88 c 0,18,19
 728.564 88 728.564 88 818.047 172.5 c 0,20,21
 907.529 257 907.529 257 934.646 412 c 0,22,23
 962.986 574 962.986 574 900.532 662 c 0,24,25
 838.076 750 838.076 750 694.977 750 c 2,26,-1
 346.677 750 l 1,27,-1
 455.49 1372 l 1,28,-1
 283.59 1372 l 1,29,-1
 304.759 1493 l 1,30,-1
 1502.66 1493 l 1,31,-1
 1441.08 1141 l 1,32,-1
 1317.78 1141 l 1,33,-1
 1355.39 1356 l 1,34,-1
 800.991 1356 l 1,35,-1
 715.961 869.953 l 1,36,37
 869.42 868.817 869.42 868.817 1027.52 840 c 0,0,1
EndSplineSet
EndChar
